<svg xmlns="http://www.w3.org/2000/svg" viewBox="0 0 149.43 65.95"><g id="レイヤー_2" data-name="レイヤー 2"><g id="レイヤー_1-2" data-name="レイヤー 1"><path d="M11.64,60.17a12.8,12.8,0,0,1-5.52-5.59,19.09,19.09,0,0,1-1.9-8.88v-5A18.73,18.73,0,0,1,6.12,32a12.71,12.71,0,0,1,5.52-5.53,18.5,18.5,0,0,1,8.72-1.9,21.75,21.75,0,0,1,5.5.68,16.59,16.59,0,0,1,4.64,2,12.55,12.55,0,0,1,3.43,3.17l-5.7,5.34a9.92,9.92,0,0,0-3.37-2.32,10.39,10.39,0,0,0-4.05-.81,8.18,8.18,0,0,0-6,2.13,8.11,8.11,0,0,0-2.15,6v5a8.41,8.41,0,0,0,2.13,6.17A8.14,8.14,0,0,0,20.81,54a9.78,9.78,0,0,0,7.42-3.38l5.7,5.7a13.32,13.32,0,0,1-3.47,3.11,16.83,16.83,0,0,1-4.64,2,22,22,0,0,1-5.46.67A18.38,18.38,0,0,1,11.64,60.17Z" transform="translate(-4.22 -10.44)"/><path d="M38.6,59.29c-2.08-1.86-3.13-4.69-3.13-8.49q0-5.41,3.17-8.12T48.13,40H57.9l.49,6.54H48.16a5.64,5.64,0,0,0-3.74,1.06,4,4,0,0,0-1.25,3.23,3.82,3.82,0,0,0,1.62,3.39,8.71,8.71,0,0,0,4.89,1.11,15.15,15.15,0,0,0,6-.88,2.88,2.88,0,0,0,2-2.74l.73,5.2a6.1,6.1,0,0,1-2.09,2.89,10.24,10.24,0,0,1-3.6,1.74,17.63,17.63,0,0,1-4.61.58Q41.74,62.09,38.6,59.29Zm19-20.86a6.19,6.19,0,0,0-1.81-4.75A7.22,7.22,0,0,0,50.66,32a13.4,13.4,0,0,0-4.15.67,13,13,0,0,0-3.65,1.86l-5.59-4.71a14.07,14.07,0,0,1,5.62-3.88,20.62,20.62,0,0,1,7.73-1.39,18,18,0,0,1,8,1.6,11.38,11.38,0,0,1,5,4.64,14.54,14.54,0,0,1,1.74,7.33V61.56H57.59Z" transform="translate(-4.22 -10.44)"/><path d="M78.17,61.47a25.51,25.51,0,0,1-5.54-1.81A21.14,21.14,0,0,1,68,56.74l5.09-6.33a22.85,22.85,0,0,0,5.68,3,17,17,0,0,0,5.64,1,12.77,12.77,0,0,0,5.82-1,3.24,3.24,0,0,0,2-3,2.68,2.68,0,0,0-1-2.27,5.79,5.79,0,0,0-2.47-1c-1-.18-2.4-.36-4.21-.52l-.94-.07c-.33,0-.65-.06-1-.11a1.42,1.42,0,0,1-.29,0h-.28a36.19,36.19,0,0,1-6.29-1.18,8.22,8.22,0,0,1-4.13-2.9A9.85,9.85,0,0,1,70,36.11a11.48,11.48,0,0,1,1.67-6.35,10.25,10.25,0,0,1,4.9-3.9,21.12,21.12,0,0,1,8-1.32,26.83,26.83,0,0,1,10.6,2.13,24.34,24.34,0,0,1,4.62,2.58l-5,6.12A23.64,23.64,0,0,0,89.51,33a17.18,17.18,0,0,0-5.08-.81,10.7,10.7,0,0,0-5,.95A3,3,0,0,0,77.68,36a2.07,2.07,0,0,0,.95,1.83,5.88,5.88,0,0,0,2.37.86c1,.16,2.33.32,4.13.48l.55,0,.54,0h.25a1.35,1.35,0,0,1,.28,0,37.33,37.33,0,0,1,6.71,1.16A8.92,8.92,0,0,1,98,43.51q1.86,2.3,1.86,6.69a11.46,11.46,0,0,1-1.76,6.52,10.67,10.67,0,0,1-5.22,4,23.38,23.38,0,0,1-8.49,1.36A30.44,30.44,0,0,1,78.17,61.47Z" transform="translate(-4.22 -10.44)"/><path d="M103.28,25.07h8.4V76.39h-8.4Zm11.5,35.38a9.61,9.61,0,0,1-3.59-4.62l.49-8a7.77,7.77,0,0,0,.74,3.53,5.09,5.09,0,0,0,2.15,2.23,6.9,6.9,0,0,0,3.41.78,6.12,6.12,0,0,0,4.85-2,8.22,8.22,0,0,0,1.72-5.59V40a8.54,8.54,0,0,0-1.72-5.71,6,6,0,0,0-4.85-2,7.13,7.13,0,0,0-3.41.75,5,5,0,0,0-2.15,2.24,7.86,7.86,0,0,0-.74,3.55L111,31.22A12.28,12.28,0,0,1,115,26.28a9.79,9.79,0,0,1,5.64-1.74,12,12,0,0,1,6.63,1.79,11.19,11.19,0,0,1,4.2,5.26A21.72,21.72,0,0,1,133,39.94v6.89a20.83,20.83,0,0,1-1.46,8.24,11.08,11.08,0,0,1-4.27,5.22,12.17,12.17,0,0,1-6.71,1.8A10,10,0,0,1,114.78,60.45Z" transform="translate(-4.22 -10.44)"/><path d="M134.7,25.07h19v7.17h-19Zm3.87-5q0-4.85,2.23-7.26t6.87-2.41h6v7.7h-4.6a1.77,1.77,0,0,0-1.55.77,3.53,3.53,0,0,0-.53,2V61.56h-8.4Z" transform="translate(-4.22 -10.44)"/></g></g></svg>