<svg xmlns="http://www.w3.org/2000/svg" width="499.918" height="63.64" viewBox="0 0 499.918 63.64"><path d="M41.28-14.362a7.633,7.633,0,0,0,5.031-1.419,4.09,4.09,0,0,0,1.677-3.139,4.09,4.09,0,0,0-1.677-3.139,7.633,7.633,0,0,0-5.031-1.419H21.242v9.116ZM20.382-37.84h20.9A7.626,7.626,0,0,0,46.1-39.087a3.573,3.573,0,0,0,1.548-2.795A3.51,3.51,0,0,0,46.1-44.591a7.626,7.626,0,0,0-4.816-1.247H17.2L4.73-60.2H42.656a25.4,25.4,0,0,1,9.417,1.591,20.674,20.674,0,0,1,6.708,4.171,16.777,16.777,0,0,1,4.042,5.848,17.607,17.607,0,0,1,1.333,6.708,17.713,17.713,0,0,1-1.032,5.934,17.687,17.687,0,0,1-3.1,5.418,17.446,17.446,0,0,1,3.1,5.5,18.963,18.963,0,0,1,1.032,6.192,18.8,18.8,0,0,1-1.333,6.923,16.9,16.9,0,0,1-4.042,6.02,20.844,20.844,0,0,1-6.708,4.257A24.8,24.8,0,0,1,42.656,0H4.73V-23.478Zm54.18,6.364h25.456L91.934-60.2h17.114L125.99,0h-17.2l-4.816-17.114H87.72L82.9,0H65.79ZM175.01-43.086a14.122,14.122,0,0,0-4.9-3.311,16.911,16.911,0,0,0-6.45-1.161,16.42,16.42,0,0,0-6.579,1.247,13.147,13.147,0,0,0-4.859,3.569,15.925,15.925,0,0,0-3.01,5.547,23.182,23.182,0,0,0-1.032,7.1q0,7.912,4.042,12.685t11.438,4.773a16.834,16.834,0,0,0,6.88-1.333,13.323,13.323,0,0,0,4.988-3.741L185.76-5.934a28.762,28.762,0,0,1-9.718,5.676,36.644,36.644,0,0,1-12.3,1.978A35.492,35.492,0,0,1,150.758-.559a28.416,28.416,0,0,1-10.019-6.493,29.165,29.165,0,0,1-6.45-10.062,35.741,35.741,0,0,1-2.279-13.072,35.492,35.492,0,0,1,2.279-12.986,28.717,28.717,0,0,1,6.45-10.019,28.637,28.637,0,0,1,10.062-6.45A35.835,35.835,0,0,1,163.83-61.92a36.156,36.156,0,0,1,12.728,2.15,28.736,28.736,0,0,1,9.976,6.192Zm60.544,0a14.122,14.122,0,0,0-4.9-3.311,16.911,16.911,0,0,0-6.45-1.161,16.42,16.42,0,0,0-6.579,1.247,13.147,13.147,0,0,0-4.859,3.569,15.925,15.925,0,0,0-3.01,5.547,23.182,23.182,0,0,0-1.032,7.1q0,7.912,4.042,12.685T224.2-12.642a16.834,16.834,0,0,0,6.88-1.333,13.323,13.323,0,0,0,4.988-3.741L246.3-5.934a28.762,28.762,0,0,1-9.718,5.676,36.644,36.644,0,0,1-12.3,1.978A35.492,35.492,0,0,1,211.3-.559a28.416,28.416,0,0,1-10.019-6.493,29.165,29.165,0,0,1-6.45-10.062,35.741,35.741,0,0,1-2.279-13.072,35.492,35.492,0,0,1,2.279-12.986,28.717,28.717,0,0,1,6.45-10.019,28.637,28.637,0,0,1,10.062-6.45,35.835,35.835,0,0,1,13.029-2.279A36.156,36.156,0,0,1,237.1-59.77a28.736,28.736,0,0,1,9.976,6.192ZM254.818,0V-26.144L270.47-40.592H297.3V-60.2h16.6V0H297.388V-26.23H271.33V0Zm119.54-60.2v14.362H339.872v7.654h34.486L358.964-23.822H339.958v9.46h34.4V0h-51V-60.2ZM382.1,0V-19.78l15.738-14.448H417.1q3.87,0,5.762-1.806a5.48,5.48,0,0,0,1.892-4.042,5.347,5.347,0,0,0-1.892-4q-1.892-1.763-5.762-1.763H394.138L382.1-60.2h37.5a23.5,23.5,0,0,1,9.46,1.763,20.548,20.548,0,0,1,6.751,4.6,18.567,18.567,0,0,1,4.042,6.45,21.2,21.2,0,0,1,1.333,7.4,20.092,20.092,0,0,1-.774,5.547,21.638,21.638,0,0,1-2.236,5.16,17.917,17.917,0,0,1-3.7,4.386,19.963,19.963,0,0,1-5.246,3.225L442.814,0H426.3L413.918-19.866H398.61V0ZM453.22-31.476h25.456L470.592-60.2h17.114L504.648,0h-17.2l-4.816-17.114H466.378L461.562,0H444.448Z" transform="translate(-4.73 61.92)" fill="#fff"/></svg>