<svg xmlns="http://www.w3.org/2000/svg" width="397.75" height="63.64" viewBox="0 0 397.75 63.64"><path d="M14.792-17.372a12.71,12.71,0,0,0,4.429,3.526,12.011,12.011,0,0,0,5.2,1.2,12.171,12.171,0,0,0,4.816-.989A12.26,12.26,0,0,0,33.411-16.6a14.839,14.839,0,0,0,2.967-4.9A19.232,19.232,0,0,0,37.5-28.38V-60.2H54.008v32.938A29.528,29.528,0,0,1,51.471-14.62a27.236,27.236,0,0,1-6.708,9.073A27.885,27.885,0,0,1,35.3-.086,33.44,33.44,0,0,1,24.424,1.72,33.371,33.371,0,0,1,12.857-.344,27.345,27.345,0,0,1,3.01-6.536Zm55.728-14.1H95.976L87.892-60.2h17.114L121.948,0h-17.2L99.932-17.114H83.678L78.862,0H61.748Zm59.168,3.7,15.738-14.448v28.294h10.836a16.014,16.014,0,0,0,6.88-1.376,14.939,14.939,0,0,0,4.9-3.612,14.983,14.983,0,0,0,2.967-5.117A17.774,17.774,0,0,0,172-29.842a18.024,18.024,0,0,0-.989-5.891,14.983,14.983,0,0,0-2.967-5.117,14.939,14.939,0,0,0-4.9-3.612,16.014,16.014,0,0,0-6.88-1.376H141.728L129.688-60.2H159.7a29.393,29.393,0,0,1,12.685,2.58,26.613,26.613,0,0,1,9.073,6.837,29.039,29.039,0,0,1,5.418,9.632A34.47,34.47,0,0,1,188.684-30.1a34.47,34.47,0,0,1-1.806,11.051,29.039,29.039,0,0,1-5.418,9.632,26.613,26.613,0,0,1-9.073,6.837A29.393,29.393,0,0,1,159.7,0H129.688ZM194.7-30.186a35.492,35.492,0,0,1,2.279-12.986,28.717,28.717,0,0,1,6.45-10.019,28.717,28.717,0,0,1,10.019-6.45,35.492,35.492,0,0,1,12.986-2.279,35.741,35.741,0,0,1,13.072,2.279,29.165,29.165,0,0,1,10.062,6.45,28.416,28.416,0,0,1,6.493,10.019,35.492,35.492,0,0,1,2.279,12.986,35.742,35.742,0,0,1-2.279,13.072,28.854,28.854,0,0,1-6.493,10.062A28.854,28.854,0,0,1,239.51-.559,35.741,35.741,0,0,1,226.438,1.72,35.492,35.492,0,0,1,213.452-.559a28.416,28.416,0,0,1-10.019-6.493,29.165,29.165,0,0,1-6.45-10.062A35.741,35.741,0,0,1,194.7-30.186Zm16.6.086q0,7.912,3.827,12.685t11.223,4.773a16.343,16.343,0,0,0,6.622-1.247,13.453,13.453,0,0,0,4.816-3.526,14.968,14.968,0,0,0,2.967-5.5,24.433,24.433,0,0,0,.989-7.181,24.116,24.116,0,0,0-.989-7.1,15.4,15.4,0,0,0-2.967-5.547,13.231,13.231,0,0,0-4.816-3.569,16.343,16.343,0,0,0-6.622-1.247q-7.4,0-11.223,4.816T211.3-30.1ZM266.084-8.084V-60.2H285.95l13.588,24.768L313.04-60.2h19.78V0H316.308V-35.862L299.452-5.418l-16.77-30.444v12.556Zm83.248-23.392h25.456L366.7-60.2h17.114L400.76,0h-17.2l-4.816-17.114H362.49L357.674,0H340.56Z" transform="translate(-3.01 61.92)" fill="#fff"/></svg>