<svg xmlns="http://www.w3.org/2000/svg" width="403.77" height="63.64" viewBox="0 0 403.77 63.64"><path d="M36.722,1.72A37.936,37.936,0,0,1,23.435-.559,31.922,31.922,0,0,1,12.728-7.052,30.059,30.059,0,0,1,5.59-17.114,32.048,32.048,0,0,1,3.01-30.186,31.828,31.828,0,0,1,5.59-43.172a29.6,29.6,0,0,1,7.138-10.019,32.2,32.2,0,0,1,10.75-6.45,38.294,38.294,0,0,1,13.33-2.279A40.977,40.977,0,0,1,50.1-59.77,27.97,27.97,0,0,1,60.63-53.578L49.106-43.086A14.122,14.122,0,0,0,44.2-46.4a16.911,16.911,0,0,0-6.45-1.161,19.372,19.372,0,0,0-6.966,1.247,17.546,17.546,0,0,0-5.762,3.569A17.178,17.178,0,0,0,21.07-37.2a16.983,16.983,0,0,0-1.462,7.1,17.2,17.2,0,0,0,1.462,7.181,16.7,16.7,0,0,0,3.956,5.5,17.819,17.819,0,0,0,5.805,3.526,19.72,19.72,0,0,0,7.009,1.247q.946,0,2.236-.086t2.58-.258q1.29-.172,2.451-.387a8.736,8.736,0,0,0,1.935-.559v-7.052L34.486-35.432H63.64V0H51.858A20.158,20.158,0,0,1,48.59.731q-1.978.3-4.085.516t-4.171.344Q38.27,1.72,36.722,1.72ZM71.38-30.186a35.492,35.492,0,0,1,2.279-12.986,28.717,28.717,0,0,1,6.45-10.019,28.717,28.717,0,0,1,10.019-6.45,35.492,35.492,0,0,1,12.986-2.279,35.741,35.741,0,0,1,13.072,2.279,29.165,29.165,0,0,1,10.062,6.45,28.416,28.416,0,0,1,6.493,10.019,35.492,35.492,0,0,1,2.279,12.986,35.741,35.741,0,0,1-2.279,13.072,28.854,28.854,0,0,1-6.493,10.062A28.854,28.854,0,0,1,116.186-.559,35.741,35.741,0,0,1,103.114,1.72,35.492,35.492,0,0,1,90.128-.559,28.416,28.416,0,0,1,80.109-7.052a29.165,29.165,0,0,1-6.45-10.062A35.741,35.741,0,0,1,71.38-30.186Zm16.6.086q0,7.912,3.827,12.685t11.223,4.773a16.343,16.343,0,0,0,6.622-1.247,13.453,13.453,0,0,0,4.816-3.526,14.968,14.968,0,0,0,2.967-5.5,24.433,24.433,0,0,0,.989-7.181,24.116,24.116,0,0,0-.989-7.1,15.4,15.4,0,0,0-2.967-5.547,13.231,13.231,0,0,0-4.816-3.569,16.343,16.343,0,0,0-6.622-1.247q-7.4,0-11.223,4.816T87.978-30.1ZM142.76,0V-19.78L158.5-34.228h19.264q3.87,0,5.762-1.806a5.48,5.48,0,0,0,1.892-4.042,5.347,5.347,0,0,0-1.892-4q-1.892-1.763-5.762-1.763H154.8L142.76-60.2h37.5a23.5,23.5,0,0,1,9.46,1.763,20.548,20.548,0,0,1,6.751,4.6,18.568,18.568,0,0,1,4.042,6.45,21.2,21.2,0,0,1,1.333,7.4,20.093,20.093,0,0,1-.774,5.547,21.638,21.638,0,0,1-2.236,5.16,17.917,17.917,0,0,1-3.7,4.386,19.964,19.964,0,0,1-5.246,3.225L203.476,0H186.964L174.58-19.866H159.272V0Zm68.456-27.778,15.738-14.448v28.294H237.79a16.014,16.014,0,0,0,6.88-1.376,14.939,14.939,0,0,0,4.9-3.612,14.983,14.983,0,0,0,2.967-5.117,17.774,17.774,0,0,0,.989-5.805,18.024,18.024,0,0,0-.989-5.891,14.983,14.983,0,0,0-2.967-5.117,14.939,14.939,0,0,0-4.9-3.612,16.014,16.014,0,0,0-6.88-1.376H223.256L211.216-60.2H241.23a29.393,29.393,0,0,1,12.685,2.58,26.613,26.613,0,0,1,9.073,6.837,29.039,29.039,0,0,1,5.418,9.632A34.47,34.47,0,0,1,270.212-30.1a34.47,34.47,0,0,1-1.806,11.051,29.04,29.04,0,0,1-5.418,9.632,26.613,26.613,0,0,1-9.073,6.837A29.393,29.393,0,0,1,241.23,0H211.216Zm65.016-2.408a35.492,35.492,0,0,1,2.279-12.986,28.717,28.717,0,0,1,6.45-10.019,28.717,28.717,0,0,1,10.019-6.45,35.491,35.491,0,0,1,12.986-2.279,35.741,35.741,0,0,1,13.072,2.279,29.165,29.165,0,0,1,10.062,6.45,28.415,28.415,0,0,1,6.493,10.019,35.492,35.492,0,0,1,2.279,12.986,35.742,35.742,0,0,1-2.279,13.072A28.854,28.854,0,0,1,331.1-7.052,28.854,28.854,0,0,1,321.038-.559,35.742,35.742,0,0,1,307.966,1.72,35.491,35.491,0,0,1,294.98-.559a28.416,28.416,0,0,1-10.019-6.493,29.165,29.165,0,0,1-6.45-10.062A35.742,35.742,0,0,1,276.232-30.186Zm16.6.086q0,7.912,3.827,12.685t11.223,4.773a16.343,16.343,0,0,0,6.622-1.247,13.454,13.454,0,0,0,4.816-3.526,14.968,14.968,0,0,0,2.967-5.5,24.433,24.433,0,0,0,.989-7.181,24.116,24.116,0,0,0-.989-7.1,15.4,15.4,0,0,0-2.967-5.547,13.231,13.231,0,0,0-4.816-3.569,16.343,16.343,0,0,0-6.622-1.247q-7.4,0-11.223,4.816T292.83-30.1Zm71.38-30.1,25.972,35.6V-44.72l16.6-15.48V0H390.268V-.172L364.21-35.862V0h-16.6V-60.2Z" transform="translate(-3.01 61.92)" fill="#fff"/></svg>