<svg xmlns="http://www.w3.org/2000/svg" width="253.958" height="63.64" viewBox="0 0 253.958 63.64"><path d="M4.73-8.084V-60.2H24.6L38.184-35.432,51.686-60.2h19.78V0H54.954V-35.862L38.1-5.418,21.328-35.862v12.556ZM87.978-31.476h25.456L105.35-60.2h17.114L139.406,0h-17.2L117.39-17.114H101.136L96.32,0H79.206Zm100.448-11.61a14.122,14.122,0,0,0-4.9-3.311,16.911,16.911,0,0,0-6.45-1.161,16.42,16.42,0,0,0-6.579,1.247,13.147,13.147,0,0,0-4.859,3.569,15.925,15.925,0,0,0-3.01,5.547,23.182,23.182,0,0,0-1.032,7.1q0,7.912,4.042,12.685t11.438,4.773a16.834,16.834,0,0,0,6.88-1.333,13.323,13.323,0,0,0,4.988-3.741L199.176-5.934a28.762,28.762,0,0,1-9.718,5.676,36.644,36.644,0,0,1-12.3,1.978A35.492,35.492,0,0,1,164.174-.559a28.416,28.416,0,0,1-10.019-6.493,29.165,29.165,0,0,1-6.45-10.062,35.741,35.741,0,0,1-2.279-13.072,35.492,35.492,0,0,1,2.279-12.986,28.717,28.717,0,0,1,6.45-10.019,28.637,28.637,0,0,1,10.062-6.45,35.835,35.835,0,0,1,13.029-2.279,36.156,36.156,0,0,1,12.728,2.15,28.736,28.736,0,0,1,9.976,6.192ZM258.688-60.2v14.362H224.2v7.654h34.486L243.294-23.822H224.288v9.46h34.4V0h-51V-60.2Z" transform="translate(-4.73 61.92)" fill="#fff"/></svg>