<svg xmlns="http://www.w3.org/2000/svg" width="283.628" height="63.64" viewBox="0 0 283.628 63.64"><path d="M31.734-37.5a35.3,35.3,0,0,1,11.352,1.591,20.877,20.877,0,0,1,7.525,4.257,16.438,16.438,0,0,1,4.214,6.02,18.694,18.694,0,0,1,1.333,6.966,19.845,19.845,0,0,1-1.419,7.31,17.6,17.6,0,0,1-4.6,6.536A23.76,23.76,0,0,1,41.8-.086,38.244,38.244,0,0,1,29.24,1.72,32.625,32.625,0,0,1,22.274.989,34.81,34.81,0,0,1,16.082-.946a34.2,34.2,0,0,1-5.117-2.666,26.41,26.41,0,0,1-3.913-3.01L18.576-17.114a12.835,12.835,0,0,0,4.472,3.225,16.438,16.438,0,0,0,6.794,1.247,14.171,14.171,0,0,0,7.181-1.505q2.537-1.5,2.537-3.311,0-1.978-2.924-3.612t-9.2-1.634A35.612,35.612,0,0,1,16-24.3a21.256,21.256,0,0,1-7.525-4.214A15.551,15.551,0,0,1,4.3-34.529a19.355,19.355,0,0,1-1.29-6.923,20.179,20.179,0,0,1,1.419-7.353,17.514,17.514,0,0,1,4.6-6.579,23.76,23.76,0,0,1,8.342-4.73A38.244,38.244,0,0,1,29.928-61.92a32.625,32.625,0,0,1,6.966.731,34.811,34.811,0,0,1,6.192,1.935A34.2,34.2,0,0,1,48.2-56.588a26.411,26.411,0,0,1,3.913,3.01L40.592-43.086a12.835,12.835,0,0,0-4.472-3.225,16.438,16.438,0,0,0-6.794-1.247,14.171,14.171,0,0,0-7.181,1.5q-2.537,1.505-2.537,3.311,0,1.978,2.924,3.612T31.734-37.5Zm30.444,7.31a35.492,35.492,0,0,1,2.279-12.986,28.717,28.717,0,0,1,6.45-10.019,28.717,28.717,0,0,1,10.019-6.45A35.492,35.492,0,0,1,93.912-61.92a35.741,35.741,0,0,1,13.072,2.279,29.165,29.165,0,0,1,10.062,6.45,28.416,28.416,0,0,1,6.493,10.019,35.491,35.491,0,0,1,2.279,12.986,35.741,35.741,0,0,1-2.279,13.072,28.854,28.854,0,0,1-6.493,10.062A28.854,28.854,0,0,1,106.984-.559,35.741,35.741,0,0,1,93.912,1.72,35.492,35.492,0,0,1,80.926-.559,28.416,28.416,0,0,1,70.907-7.052a29.165,29.165,0,0,1-6.45-10.062A35.741,35.741,0,0,1,62.178-30.186Zm16.6.086q0,7.912,3.827,12.685t11.223,4.773a16.343,16.343,0,0,0,6.622-1.247,13.453,13.453,0,0,0,4.816-3.526,14.968,14.968,0,0,0,2.967-5.5,24.433,24.433,0,0,0,.989-7.181,24.116,24.116,0,0,0-.989-7.1,15.4,15.4,0,0,0-2.967-5.547,13.231,13.231,0,0,0-4.816-3.569,16.343,16.343,0,0,0-6.622-1.247q-7.4,0-11.223,4.816T78.776-30.1Zm71.38-30.1,25.972,35.6V-44.72l16.6-15.48V0H176.214V-.172l-26.058-35.69V0h-16.6V-60.2ZM202.186,0V-60.2H218.7V0ZM235.21-31.476h25.456L252.582-60.2H269.7L286.638,0h-17.2l-4.816-17.114H248.368L243.552,0H226.438Z" transform="translate(-3.01 61.92)" fill="#fff"/></svg>