<svg xmlns="http://www.w3.org/2000/svg" width="315.964" height="63.64" viewBox="0 0 315.964 63.64"><path d="M46.01-43.086a14.122,14.122,0,0,0-4.9-3.311,16.911,16.911,0,0,0-6.45-1.161,16.42,16.42,0,0,0-6.579,1.247,13.147,13.147,0,0,0-4.859,3.569A15.925,15.925,0,0,0,20.21-37.2a23.183,23.183,0,0,0-1.032,7.1q0,7.912,4.042,12.685t11.438,4.773a16.834,16.834,0,0,0,6.88-1.333,13.323,13.323,0,0,0,4.988-3.741L56.76-5.934A28.762,28.762,0,0,1,47.042-.258a36.644,36.644,0,0,1-12.3,1.978A35.492,35.492,0,0,1,21.758-.559,28.416,28.416,0,0,1,11.739-7.052a29.165,29.165,0,0,1-6.45-10.062A35.741,35.741,0,0,1,3.01-30.186,35.492,35.492,0,0,1,5.289-43.172a28.717,28.717,0,0,1,6.45-10.019A28.637,28.637,0,0,1,21.8-59.641,35.835,35.835,0,0,1,34.83-61.92a36.156,36.156,0,0,1,12.728,2.15,28.736,28.736,0,0,1,9.976,6.192Zm26.316,11.61H97.782L89.7-60.2h17.114L123.754,0h-17.2l-4.816-17.114H85.484L80.668,0H63.554ZM131.494,0V-19.78l15.738-14.448H166.5q3.87,0,5.762-1.806a5.48,5.48,0,0,0,1.892-4.042,5.347,5.347,0,0,0-1.892-4q-1.892-1.763-5.762-1.763H143.534L131.494-60.2h37.5a23.5,23.5,0,0,1,9.46,1.763,20.548,20.548,0,0,1,6.751,4.6,18.568,18.568,0,0,1,4.042,6.45,21.2,21.2,0,0,1,1.333,7.4,20.093,20.093,0,0,1-.774,5.547,21.638,21.638,0,0,1-2.236,5.16,17.917,17.917,0,0,1-3.7,4.386,19.964,19.964,0,0,1-5.246,3.225L192.21,0H175.7L163.314-19.866H148.006V0ZM198.23-30.186a35.492,35.492,0,0,1,2.279-12.986,28.717,28.717,0,0,1,6.45-10.019,28.717,28.717,0,0,1,10.019-6.45,35.492,35.492,0,0,1,12.986-2.279,35.741,35.741,0,0,1,13.072,2.279,29.165,29.165,0,0,1,10.062,6.45,28.415,28.415,0,0,1,6.493,10.019,35.492,35.492,0,0,1,2.279,12.986,35.742,35.742,0,0,1-2.279,13.072A28.854,28.854,0,0,1,253.1-7.052,28.854,28.854,0,0,1,243.036-.559,35.741,35.741,0,0,1,229.964,1.72,35.492,35.492,0,0,1,216.978-.559a28.416,28.416,0,0,1-10.019-6.493,29.165,29.165,0,0,1-6.45-10.062A35.741,35.741,0,0,1,198.23-30.186Zm16.6.086q0,7.912,3.827,12.685t11.223,4.773a16.343,16.343,0,0,0,6.622-1.247,13.453,13.453,0,0,0,4.816-3.526,14.968,14.968,0,0,0,2.967-5.5,24.433,24.433,0,0,0,.989-7.181,24.116,24.116,0,0,0-.989-7.1,15.4,15.4,0,0,0-2.967-5.547,13.231,13.231,0,0,0-4.816-3.569,16.343,16.343,0,0,0-6.622-1.247q-7.4,0-11.223,4.816T214.828-30.1Zm69.746-30.1v45.838h34.4V0h-51V-44.806Z" transform="translate(-3.01 61.92)" fill="#fff"/></svg>