<svg xmlns="http://www.w3.org/2000/svg" width="244.068" height="63.64" viewBox="0 0 244.068 63.64"><path d="M11.782-31.476H37.238L29.154-60.2H46.268L63.21,0H46.01L41.194-17.114H24.94L20.124,0H3.01ZM85.914-60.2v45.838h34.4V0h-51V-44.806Zm57.1,0v45.838h34.4V0h-51V-44.806Zm40.42,30.014a35.492,35.492,0,0,1,2.279-12.986,28.717,28.717,0,0,1,6.45-10.019,28.717,28.717,0,0,1,10.019-6.45,35.492,35.492,0,0,1,12.986-2.279,35.741,35.741,0,0,1,13.072,2.279,29.165,29.165,0,0,1,10.062,6.45A28.416,28.416,0,0,1,244.8-43.172a35.492,35.492,0,0,1,2.279,12.986A35.741,35.741,0,0,1,244.8-17.114a28.854,28.854,0,0,1-6.493,10.062A28.854,28.854,0,0,1,228.244-.559,35.741,35.741,0,0,1,215.172,1.72,35.492,35.492,0,0,1,202.186-.559a28.416,28.416,0,0,1-10.019-6.493,29.165,29.165,0,0,1-6.45-10.062A35.741,35.741,0,0,1,183.438-30.186Zm16.6.086q0,7.912,3.827,12.685t11.223,4.773a16.343,16.343,0,0,0,6.622-1.247,13.453,13.453,0,0,0,4.816-3.526,14.968,14.968,0,0,0,2.967-5.5,24.433,24.433,0,0,0,.989-7.181,24.116,24.116,0,0,0-.989-7.1,15.4,15.4,0,0,0-2.967-5.547,13.231,13.231,0,0,0-4.816-3.569,16.343,16.343,0,0,0-6.622-1.247q-7.4,0-11.223,4.816T200.036-30.1Z" transform="translate(-3.01 61.92)" fill="#fff"/></svg>