<svg xmlns="http://www.w3.org/2000/svg" width="323.016" height="63.64" viewBox="0 0 323.016 63.64"><path d="M4.73,0V-19.78L20.468-34.228H39.732q3.87,0,5.762-1.806a5.48,5.48,0,0,0,1.892-4.042,5.347,5.347,0,0,0-1.892-4q-1.892-1.763-5.762-1.763H16.77L4.73-60.2h37.5a23.5,23.5,0,0,1,9.46,1.763,20.548,20.548,0,0,1,6.751,4.6,18.567,18.567,0,0,1,4.042,6.45,21.2,21.2,0,0,1,1.333,7.4,20.093,20.093,0,0,1-.774,5.547,21.639,21.639,0,0,1-2.236,5.16A17.917,17.917,0,0,1,57.1-24.9a19.964,19.964,0,0,1-5.246,3.225L65.446,0H48.934L36.55-19.866H21.242V0ZM132.354-60.2v32.938a29.528,29.528,0,0,1-2.537,12.642,27.236,27.236,0,0,1-6.708,9.073,27.885,27.885,0,0,1-9.46,5.461A33.44,33.44,0,0,1,102.77,1.72,33.568,33.568,0,0,1,91.934-.086a27.8,27.8,0,0,1-9.5-5.461,27.236,27.236,0,0,1-6.708-9.073,29.528,29.528,0,0,1-2.537-12.642V-60.2H89.7v31.82a19.232,19.232,0,0,0,1.118,6.88,14.839,14.839,0,0,0,2.967,4.9A12.146,12.146,0,0,0,98-13.631a12.277,12.277,0,0,0,4.773.989,12.171,12.171,0,0,0,4.816-.989,12.26,12.26,0,0,0,4.171-2.967,14.839,14.839,0,0,0,2.967-4.9,19.232,19.232,0,0,0,1.118-6.88V-44.806Zm9.46,52.116V-60.2H161.68l13.588,24.768L188.77-60.2h19.78V0H192.038V-35.862L175.182-5.418l-16.77-30.444v12.556ZM245.014-37.5a35.3,35.3,0,0,1,11.352,1.591,20.878,20.878,0,0,1,7.525,4.257,16.438,16.438,0,0,1,4.214,6.02,18.694,18.694,0,0,1,1.333,6.966,19.844,19.844,0,0,1-1.419,7.31,17.6,17.6,0,0,1-4.6,6.536,23.76,23.76,0,0,1-8.342,4.73A38.244,38.244,0,0,1,242.52,1.72a32.625,32.625,0,0,1-6.966-.731,34.809,34.809,0,0,1-6.192-1.935,34.2,34.2,0,0,1-5.117-2.666,26.41,26.41,0,0,1-3.913-3.01l11.524-10.492a12.835,12.835,0,0,0,4.472,3.225,16.438,16.438,0,0,0,6.794,1.247,14.171,14.171,0,0,0,7.181-1.505q2.537-1.5,2.537-3.311,0-1.978-2.924-3.612t-9.2-1.634A35.612,35.612,0,0,1,229.276-24.3a21.256,21.256,0,0,1-7.525-4.214,15.551,15.551,0,0,1-4.171-6.02,19.355,19.355,0,0,1-1.29-6.923,20.179,20.179,0,0,1,1.419-7.353,17.514,17.514,0,0,1,4.6-6.579,23.76,23.76,0,0,1,8.342-4.73,38.244,38.244,0,0,1,12.556-1.806,32.625,32.625,0,0,1,6.966.731,34.811,34.811,0,0,1,6.192,1.935,34.2,34.2,0,0,1,5.117,2.666,26.411,26.411,0,0,1,3.913,3.01L253.872-43.086a12.836,12.836,0,0,0-4.472-3.225,16.438,16.438,0,0,0-6.794-1.247,14.171,14.171,0,0,0-7.181,1.5q-2.537,1.505-2.537,3.311,0,1.978,2.924,3.612T245.014-37.5Zm25.542-22.7h19.78l8.858,13.588L307.966-60.2h19.78L307.622-29.154v13.932L291.11,0V-28.724Z" transform="translate(-4.73 61.92)" fill="#fff"/></svg>