<svg xmlns="http://www.w3.org/2000/svg" width="117" height="121" viewBox="0 0 117 121"><g transform="translate(-1761 -6352)"><rect width="117" height="121" rx="10" transform="translate(1761 6352)" fill="#4e4e4e"/><path d="M10,2a8.009,8.009,0,0,0-8,8V111a8.009,8.009,0,0,0,8,8h97a8.009,8.009,0,0,0,8-8V10a8.009,8.009,0,0,0-8-8H10m0-2h97a10,10,0,0,1,10,10V111a10,10,0,0,1-10,10H10A10,10,0,0,1,0,111V10A10,10,0,0,1,10,0Z" transform="translate(1761 6352)" fill="#d8ff09"/><path d="M18.294,0,0,18.479H12.319v30.8H24.639v-30.8H36.958Z" transform="translate(1801.021 6387.861)" fill="#d8ff09"/></g></svg>