<svg xmlns="http://www.w3.org/2000/svg" xmlns:xlink="http://www.w3.org/1999/xlink" width="384" height="61" viewBox="0 0 384 61"><defs><clipPath id="a"><rect width="384" height="61" transform="translate(152 48)" fill="#fff" stroke="#707070" stroke-width="1"/></clipPath></defs><g transform="translate(-152 -48)" clip-path="url(#a)"><path d="M34.744-14.964H9.632v6.192H34.744Zm0-8.772H8.858a7.487,7.487,0,0,0-7.482,7.482V0H7.568V-17.544H34.744Zm35.432,7.482a7.487,7.487,0,0,0-7.482-7.482H44.29a7.487,7.487,0,0,0-7.482,7.482v8.772A7.487,7.487,0,0,0,44.29,0h18.4a7.487,7.487,0,0,0,7.482-7.482ZM43-6.192V-17.544H63.984V-6.192ZM106.3-4.9a5.585,5.585,0,0,0-2.15-4.386,5.585,5.585,0,0,0,2.15-4.386v-2.58a7.487,7.487,0,0,0-7.482-7.482H72.928V0H79.12V-17.544H100.1v5.16H81.184v6.192H100.1V0H106.3Zm34.228-18.834H107.5v6.192h33.024ZM127.108-15.48h-6.192V0h6.192Zm47.988-.774a7.487,7.487,0,0,0-7.482-7.482h-18.4a7.487,7.487,0,0,0-7.482,7.482v8.772A7.487,7.487,0,0,0,149.21,0h18.4A7.487,7.487,0,0,0,175.1-7.482ZM147.92-6.192V-17.544H168.9V-6.192Zm57.362-17.544v18.06L188.426-22.4a6.287,6.287,0,0,0-4.386-1.849,6.194,6.194,0,0,0-6.192,6.192V0h6.192V-18.06L200.9-1.29A6.172,6.172,0,0,0,205.282.516a6.166,6.166,0,0,0,6.192-6.192v-18.06ZM247.594-7.482a7.487,7.487,0,0,0-7.482-7.482H219.3v-2.58h27.176v-6.192H220.59a7.46,7.46,0,0,0-7.482,7.482,7.46,7.46,0,0,0,7.482,7.482H241.4v2.58H214.226V0h25.886A7.487,7.487,0,0,0,247.594-7.482Zm35-8.772a7.487,7.487,0,0,0-7.482-7.482H249.228V0h6.192V-17.544H276.4v5.16h-18.92v6.192h17.63a7.487,7.487,0,0,0,7.482-7.482ZM302.763-21.2a6.908,6.908,0,0,0-5.375-3.053A6.988,6.988,0,0,0,291.97-21.2L276.146,0h7.869l13.33-18.318,5.5,7.568h-8.385l-4.515,6.192h17.415L310.718,0h7.869Zm47.9,15.007H323.489V-17.544h27.176v-6.192H324.779a7.487,7.487,0,0,0-7.482,7.482v8.772A7.487,7.487,0,0,0,324.779,0h25.886Zm35-8.772H360.555v6.192h25.112Zm0,8.772H358.491V-17.544h27.176v-6.192H359.781a7.487,7.487,0,0,0-7.482,7.482v8.772A7.487,7.487,0,0,0,359.781,0h25.886Z" transform="translate(150 92.5)" fill="#fff"/></g></svg>