<svg xmlns="http://www.w3.org/2000/svg" width="730.4" height="65.12" viewBox="0 0 730.4 65.12"><path d="M4.84,0V-61.6h16.9V0ZM48.4-61.6,74.976-25.168V-45.76L91.96-61.6V0h-16.9V-.176L48.4-36.7V0H31.416V-61.6Zm51.48,0h60.544v14.7H139.04v31.328L122.144,0V-46.9H99.88ZM168.344,0V-20.24l16.1-14.784H204.16q3.96,0,5.9-1.848a5.607,5.607,0,0,0,1.936-4.136,5.471,5.471,0,0,0-1.936-4.092q-1.936-1.8-5.9-1.8h-23.5l-12.32-14.7h38.368a24.051,24.051,0,0,1,9.68,1.8,21.026,21.026,0,0,1,6.908,4.708,19,19,0,0,1,4.136,6.6A21.7,21.7,0,0,1,228.8-40.92a20.561,20.561,0,0,1-.792,5.676,22.142,22.142,0,0,1-2.288,5.28,18.334,18.334,0,0,1-3.784,4.488,20.428,20.428,0,0,1-5.368,3.3L230.472,0h-16.9L200.9-20.328H185.24V0Zm68.288-30.888a36.317,36.317,0,0,1,2.332-13.288,29.385,29.385,0,0,1,6.6-10.252,29.385,29.385,0,0,1,10.252-6.6A36.317,36.317,0,0,1,269.1-63.36a36.573,36.573,0,0,1,13.376,2.332,29.843,29.843,0,0,1,10.3,6.6,29.076,29.076,0,0,1,6.644,10.252,36.317,36.317,0,0,1,2.332,13.288,36.573,36.573,0,0,1-2.332,13.376,29.525,29.525,0,0,1-6.644,10.3,29.525,29.525,0,0,1-10.3,6.644A36.573,36.573,0,0,1,269.1,1.76,36.317,36.317,0,0,1,255.816-.572a29.077,29.077,0,0,1-10.252-6.644,29.844,29.844,0,0,1-6.6-10.3A36.572,36.572,0,0,1,236.632-30.888Zm16.984.088q0,8.1,3.916,12.98t11.484,4.884a16.723,16.723,0,0,0,6.776-1.276,13.766,13.766,0,0,0,4.928-3.608,15.317,15.317,0,0,0,3.036-5.632,25,25,0,0,0,1.012-7.348,24.678,24.678,0,0,0-1.012-7.26,15.754,15.754,0,0,0-3.036-5.676,13.539,13.539,0,0,0-4.928-3.652,16.723,16.723,0,0,0-6.776-1.276q-7.568,0-11.484,4.928T253.616-30.8Zm56.056,2.376,16.1-14.784v28.952h11.088a16.386,16.386,0,0,0,7.04-1.408,15.287,15.287,0,0,0,5.016-3.7,15.331,15.331,0,0,0,3.036-5.236,18.187,18.187,0,0,0,1.012-5.94,18.443,18.443,0,0,0-1.012-6.028A15.331,15.331,0,0,0,348.92-41.8a15.287,15.287,0,0,0-5.016-3.7,16.386,16.386,0,0,0-7.04-1.408H321.992l-12.32-14.7h30.712a30.076,30.076,0,0,1,12.98,2.64,27.232,27.232,0,0,1,9.284,7,29.716,29.716,0,0,1,5.544,9.856A35.272,35.272,0,0,1,370.04-30.8a35.272,35.272,0,0,1-1.848,11.308,29.716,29.716,0,0,1-5.544,9.856,27.232,27.232,0,0,1-9.284,7A30.076,30.076,0,0,1,340.384,0H309.672ZM438.5-61.6v33.7a30.215,30.215,0,0,1-2.6,12.936,27.869,27.869,0,0,1-6.864,9.284,28.534,28.534,0,0,1-9.68,5.588A34.218,34.218,0,0,1,408.232,1.76,34.349,34.349,0,0,1,397.144-.088a28.451,28.451,0,0,1-9.724-5.588,27.87,27.87,0,0,1-6.864-9.284,30.215,30.215,0,0,1-2.6-12.936V-61.6h16.9v32.56A19.68,19.68,0,0,0,396-22a15.184,15.184,0,0,0,3.036,5.016,12.429,12.429,0,0,0,4.312,3.036,12.562,12.562,0,0,0,4.884,1.012,12.454,12.454,0,0,0,4.928-1.012,12.545,12.545,0,0,0,4.268-3.036A15.185,15.185,0,0,0,420.464-22a19.68,19.68,0,0,0,1.144-7.04V-45.848Zm51.92,17.512a14.45,14.45,0,0,0-5.016-3.388,17.3,17.3,0,0,0-6.6-1.188,16.8,16.8,0,0,0-6.732,1.276,13.452,13.452,0,0,0-4.972,3.652,16.3,16.3,0,0,0-3.08,5.676,23.721,23.721,0,0,0-1.056,7.26q0,8.1,4.136,12.98t11.7,4.884a17.225,17.225,0,0,0,7.04-1.364,13.633,13.633,0,0,0,5.1-3.828L501.424-6.072A29.431,29.431,0,0,1,491.48-.264,37.5,37.5,0,0,1,478.9,1.76,36.317,36.317,0,0,1,465.608-.572a29.077,29.077,0,0,1-10.252-6.644,29.843,29.843,0,0,1-6.6-10.3,36.573,36.573,0,0,1-2.332-13.376,36.317,36.317,0,0,1,2.332-13.288,29.385,29.385,0,0,1,6.6-10.252,29.3,29.3,0,0,1,10.3-6.6,36.668,36.668,0,0,1,13.332-2.332,37,37,0,0,1,13.024,2.2,29.4,29.4,0,0,1,10.208,6.336ZM508.376-61.6H568.92v14.7H547.536v31.328L530.64,0V-46.9H508.376ZM576.84,0V-61.6h16.9V0Zm24.816-30.888a36.318,36.318,0,0,1,2.332-13.288,29.386,29.386,0,0,1,6.6-10.252,29.385,29.385,0,0,1,10.252-6.6,36.317,36.317,0,0,1,13.288-2.332A36.572,36.572,0,0,1,647.5-61.028a29.844,29.844,0,0,1,10.3,6.6,29.076,29.076,0,0,1,6.644,10.252,36.317,36.317,0,0,1,2.332,13.288,36.572,36.572,0,0,1-2.332,13.376,29.524,29.524,0,0,1-6.644,10.3A29.526,29.526,0,0,1,647.5-.572,36.572,36.572,0,0,1,634.128,1.76,36.317,36.317,0,0,1,620.84-.572a29.076,29.076,0,0,1-10.252-6.644,29.844,29.844,0,0,1-6.6-10.3A36.573,36.573,0,0,1,601.656-30.888Zm16.984.088q0,8.1,3.916,12.98t11.484,4.884a16.723,16.723,0,0,0,6.776-1.276,13.767,13.767,0,0,0,4.928-3.608,15.316,15.316,0,0,0,3.036-5.632,25,25,0,0,0,1.012-7.348,24.677,24.677,0,0,0-1.012-7.26,15.753,15.753,0,0,0-3.036-5.676,13.539,13.539,0,0,0-4.928-3.652,16.723,16.723,0,0,0-6.776-1.276q-7.568,0-11.484,4.928T618.64-30.8Zm73.04-30.8,26.576,36.432V-45.76L735.24-61.6V0h-16.9V-.176L691.68-36.7V0H674.7V-61.6Z" transform="translate(-4.84 63.36)" fill="#fff"/></svg>