<svg xmlns="http://www.w3.org/2000/svg" width="538.811" height="67.34" viewBox="0 0 538.811 67.34"><path d="M22.477-18.109V0H5.005V-18.018L21.658-33.306H42.042a7.687,7.687,0,0,0,5.688-2.139,7.687,7.687,0,0,0,2.139-5.687,6.941,6.941,0,0,0-2.139-5.46A8.217,8.217,0,0,0,42.042-48.5h-24.3L5.005-63.7H44.681a25.274,25.274,0,0,1,9.282,1.638,20.224,20.224,0,0,1,7.143,4.641,21.026,21.026,0,0,1,4.6,7.189A25.274,25.274,0,0,1,67.34-40.95,25.9,25.9,0,0,1,65.7-31.532a20.461,20.461,0,0,1-4.6,7.189,20.546,20.546,0,0,1-7.143,4.6,25.274,25.274,0,0,1-9.282,1.638ZM138.138-63.7v34.853a31.245,31.245,0,0,1-2.684,13.377,28.819,28.819,0,0,1-7.1,9.6,29.507,29.507,0,0,1-10.01,5.779A35.384,35.384,0,0,1,106.834,1.82,35.519,35.519,0,0,1,95.368-.091,29.421,29.421,0,0,1,85.313-5.87a28.82,28.82,0,0,1-7.1-9.6A31.245,31.245,0,0,1,75.53-28.847V-63.7H93v33.67a20.35,20.35,0,0,0,1.183,7.28,15.7,15.7,0,0,0,3.139,5.187,12.852,12.852,0,0,0,4.459,3.139,12.99,12.99,0,0,0,5.05,1.047,12.878,12.878,0,0,0,5.1-1.047,12.973,12.973,0,0,0,4.413-3.139,15.7,15.7,0,0,0,3.139-5.187,20.351,20.351,0,0,0,1.183-7.28V-47.411ZM148.148,0V-20.93L164.8-36.218h20.384q4.095,0,6.1-1.911a5.8,5.8,0,0,0,2-4.277,5.658,5.658,0,0,0-2-4.232q-2-1.865-6.1-1.866h-24.3l-12.74-15.2h39.676a24.871,24.871,0,0,1,10.01,1.866,21.742,21.742,0,0,1,7.143,4.868,19.647,19.647,0,0,1,4.277,6.825,22.437,22.437,0,0,1,1.41,7.826,21.261,21.261,0,0,1-.819,5.869,22.9,22.9,0,0,1-2.366,5.46,18.958,18.958,0,0,1-3.913,4.641,21.124,21.124,0,0,1-5.551,3.413L212.394,0H194.922l-13.1-21.021h-16.2V0ZM264.264-45.591a14.943,14.943,0,0,0-5.187-3.5,17.9,17.9,0,0,0-6.825-1.229A17.375,17.375,0,0,0,245.291-49a13.911,13.911,0,0,0-5.141,3.777,16.85,16.85,0,0,0-3.185,5.869,24.53,24.53,0,0,0-1.092,7.507q0,8.372,4.277,13.423t12.1,5.051a17.813,17.813,0,0,0,7.28-1.411,14.1,14.1,0,0,0,5.278-3.959L275.639-6.279A30.435,30.435,0,0,1,265.356-.273,38.774,38.774,0,0,1,252.343,1.82,37.555,37.555,0,0,1,238.6-.591,30.068,30.068,0,0,1,228-7.462a30.861,30.861,0,0,1-6.825-10.647,37.819,37.819,0,0,1-2.411-13.832,37.555,37.555,0,0,1,2.411-13.741A30.387,30.387,0,0,1,228-56.284a30.3,30.3,0,0,1,10.647-6.825,37.918,37.918,0,0,1,13.787-2.411A38.258,38.258,0,0,1,265.9-63.245a30.407,30.407,0,0,1,10.556,6.552ZM284.648,0V-27.664L301.21-42.952H329.6V-63.7h17.563V0H329.693V-27.755H302.12V0Zm79.989-33.306h26.936L383.019-63.7h18.109L419.055,0h-18.2l-5.1-18.109h-17.2L373.464,0H355.355Zm91.182-6.37a37.348,37.348,0,0,1,12.012,1.684,22.091,22.091,0,0,1,7.962,4.5,17.394,17.394,0,0,1,4.459,6.37,19.781,19.781,0,0,1,1.41,7.371,21,21,0,0,1-1.5,7.735A18.623,18.623,0,0,1,475.293-5.1a25.141,25.141,0,0,1-8.827,5.005A40.468,40.468,0,0,1,453.18,1.82a34.521,34.521,0,0,1-7.371-.774A36.833,36.833,0,0,1,439.257-1a36.187,36.187,0,0,1-5.414-2.821A27.946,27.946,0,0,1,429.7-7.007l12.194-11.1a13.582,13.582,0,0,0,4.732,3.413,17.394,17.394,0,0,0,7.189,1.32,15,15,0,0,0,7.6-1.593q2.684-1.592,2.685-3.5,0-2.093-3.094-3.822t-9.737-1.729a37.683,37.683,0,0,1-12.1-1.684,22.491,22.491,0,0,1-7.962-4.459,16.455,16.455,0,0,1-4.414-6.37,20.48,20.48,0,0,1-1.365-7.326,21.352,21.352,0,0,1,1.5-7.781A18.532,18.532,0,0,1,431.8-58.6a25.141,25.141,0,0,1,8.827-5.005,40.468,40.468,0,0,1,13.286-1.911,34.522,34.522,0,0,1,7.371.773,36.834,36.834,0,0,1,6.552,2.048,36.188,36.188,0,0,1,5.414,2.821,27.947,27.947,0,0,1,4.141,3.185l-12.194,11.1A13.582,13.582,0,0,0,460.46-49a17.394,17.394,0,0,0-7.189-1.319,15,15,0,0,0-7.6,1.592q-2.685,1.593-2.684,3.5,0,2.093,3.094,3.822T455.819-39.676Zm88-24.024v15.2H507.325v8.1h36.491l-16.289,15.2H507.416V-15.2h36.4V0H489.853V-63.7Z" transform="translate(-5.005 65.52)" fill="#fff"/></svg>