<svg xmlns="http://www.w3.org/2000/svg" width="774.946" height="63.64" viewBox="0 0 774.946 63.64"><path d="M31.734-37.5a35.3,35.3,0,0,1,11.352,1.591,20.877,20.877,0,0,1,7.525,4.257,16.438,16.438,0,0,1,4.214,6.02,18.694,18.694,0,0,1,1.333,6.966,19.845,19.845,0,0,1-1.419,7.31,17.6,17.6,0,0,1-4.6,6.536A23.76,23.76,0,0,1,41.8-.086,38.244,38.244,0,0,1,29.24,1.72,32.625,32.625,0,0,1,22.274.989,34.81,34.81,0,0,1,16.082-.946a34.2,34.2,0,0,1-5.117-2.666,26.41,26.41,0,0,1-3.913-3.01L18.576-17.114a12.835,12.835,0,0,0,4.472,3.225,16.438,16.438,0,0,0,6.794,1.247,14.171,14.171,0,0,0,7.181-1.505q2.537-1.5,2.537-3.311,0-1.978-2.924-3.612t-9.2-1.634A35.612,35.612,0,0,1,16-24.3a21.256,21.256,0,0,1-7.525-4.214A15.551,15.551,0,0,1,4.3-34.529a19.355,19.355,0,0,1-1.29-6.923,20.179,20.179,0,0,1,1.419-7.353,17.514,17.514,0,0,1,4.6-6.579,23.76,23.76,0,0,1,8.342-4.73A38.244,38.244,0,0,1,29.928-61.92a32.625,32.625,0,0,1,6.966.731,34.811,34.811,0,0,1,6.192,1.935A34.2,34.2,0,0,1,48.2-56.588a26.411,26.411,0,0,1,3.913,3.01L40.592-43.086a12.835,12.835,0,0,0-4.472-3.225,16.438,16.438,0,0,0-6.794-1.247,14.171,14.171,0,0,0-7.181,1.5q-2.537,1.505-2.537,3.311,0,1.978,2.924,3.612T31.734-37.5ZM80.41-17.114V0H63.9V-17.028L79.636-31.476H98.9a7.265,7.265,0,0,0,5.375-2.021,7.265,7.265,0,0,0,2.021-5.375,6.56,6.56,0,0,0-2.021-5.16A7.766,7.766,0,0,0,98.9-45.838H75.938L63.9-60.2h37.5a23.885,23.885,0,0,1,8.772,1.548,19.113,19.113,0,0,1,6.751,4.386,19.87,19.87,0,0,1,4.343,6.794,23.885,23.885,0,0,1,1.548,8.772,24.477,24.477,0,0,1-1.548,8.9,19.337,19.337,0,0,1-4.343,6.794,19.417,19.417,0,0,1-6.751,4.343,23.885,23.885,0,0,1-8.772,1.548ZM181.546-60.2v14.362H147.06v7.654h34.486L166.152-23.822H147.146v9.46h34.4V0h-51V-60.2Zm49.02,17.114a14.122,14.122,0,0,0-4.9-3.311,16.911,16.911,0,0,0-6.45-1.161,16.42,16.42,0,0,0-6.579,1.247,13.147,13.147,0,0,0-4.859,3.569,15.925,15.925,0,0,0-3.01,5.547,23.182,23.182,0,0,0-1.032,7.1q0,7.912,4.042,12.685t11.438,4.773a16.834,16.834,0,0,0,6.88-1.333,13.323,13.323,0,0,0,4.988-3.741L241.316-5.934A28.762,28.762,0,0,1,231.6-.258,36.644,36.644,0,0,1,219.3,1.72,35.492,35.492,0,0,1,206.314-.559,28.416,28.416,0,0,1,196.3-7.052a29.165,29.165,0,0,1-6.45-10.062,35.741,35.741,0,0,1-2.279-13.072,35.492,35.492,0,0,1,2.279-12.986,28.717,28.717,0,0,1,6.45-10.019,28.637,28.637,0,0,1,10.062-6.45,35.835,35.835,0,0,1,13.029-2.279,36.156,36.156,0,0,1,12.728,2.15,28.736,28.736,0,0,1,9.976,6.192ZM284.058,0H267.8l36.12-60.2h16.254ZM406.694-60.2v32.938a29.528,29.528,0,0,1-2.537,12.642,27.236,27.236,0,0,1-6.708,9.073,27.885,27.885,0,0,1-9.46,5.461A33.44,33.44,0,0,1,377.11,1.72,33.568,33.568,0,0,1,366.274-.086a27.8,27.8,0,0,1-9.5-5.461,27.236,27.236,0,0,1-6.708-9.073,29.528,29.528,0,0,1-2.537-12.642V-60.2h16.512v31.82a19.232,19.232,0,0,0,1.118,6.88,14.839,14.839,0,0,0,2.967,4.9,12.146,12.146,0,0,0,4.214,2.967,12.277,12.277,0,0,0,4.773.989,12.171,12.171,0,0,0,4.816-.989A12.26,12.26,0,0,0,386.1-16.6a14.839,14.839,0,0,0,2.967-4.9,19.232,19.232,0,0,0,1.118-6.88V-44.806Zm25.972,43.086V0H416.154V-17.028l15.738-14.448h19.264a7.265,7.265,0,0,0,5.375-2.021,7.265,7.265,0,0,0,2.021-5.375,6.56,6.56,0,0,0-2.021-5.16,7.766,7.766,0,0,0-5.375-1.806H428.194L416.154-60.2h37.5a23.885,23.885,0,0,1,8.772,1.548,19.113,19.113,0,0,1,6.751,4.386,19.871,19.871,0,0,1,4.343,6.794,23.886,23.886,0,0,1,1.548,8.772,24.477,24.477,0,0,1-1.548,8.9,19.337,19.337,0,0,1-4.343,6.794,19.417,19.417,0,0,1-6.751,4.343,23.885,23.885,0,0,1-8.772,1.548ZM482.8-27.778l15.738-14.448v28.294h10.836a16.014,16.014,0,0,0,6.88-1.376,14.939,14.939,0,0,0,4.9-3.612,14.983,14.983,0,0,0,2.967-5.117,17.773,17.773,0,0,0,.989-5.805,18.024,18.024,0,0,0-.989-5.891,14.984,14.984,0,0,0-2.967-5.117,14.939,14.939,0,0,0-4.9-3.612,16.014,16.014,0,0,0-6.88-1.376H494.844L482.8-60.2h30.014A29.393,29.393,0,0,1,525.5-57.62a26.613,26.613,0,0,1,9.073,6.837,29.04,29.04,0,0,1,5.418,9.632A34.471,34.471,0,0,1,541.8-30.1a34.471,34.471,0,0,1-1.806,11.051,29.04,29.04,0,0,1-5.418,9.632A26.613,26.613,0,0,1,525.5-2.58,29.392,29.392,0,0,1,512.818,0H482.8Zm69.4-3.7h25.456L569.578-60.2h17.114L603.634,0h-17.2l-4.816-17.114H565.364L560.548,0H543.434ZM600.882-60.2H660.05v14.362h-20.9v30.616L622.64,0V-45.838H600.882Zm117.906,0v14.362H684.3v7.654h34.486L703.394-23.822H684.388v9.46h34.4V0h-51V-60.2Zm34.744,22.7a35.3,35.3,0,0,1,11.352,1.591,20.878,20.878,0,0,1,7.525,4.257,16.438,16.438,0,0,1,4.214,6.02,18.694,18.694,0,0,1,1.333,6.966,19.845,19.845,0,0,1-1.419,7.31,17.6,17.6,0,0,1-4.6,6.536,23.76,23.76,0,0,1-8.342,4.73A38.244,38.244,0,0,1,751.038,1.72a32.625,32.625,0,0,1-6.966-.731A34.81,34.81,0,0,1,737.88-.946a34.2,34.2,0,0,1-5.117-2.666,26.407,26.407,0,0,1-3.913-3.01l11.524-10.492a12.835,12.835,0,0,0,4.472,3.225,16.438,16.438,0,0,0,6.794,1.247,14.171,14.171,0,0,0,7.181-1.505q2.537-1.5,2.537-3.311,0-1.978-2.924-3.612t-9.2-1.634A35.613,35.613,0,0,1,737.794-24.3a21.255,21.255,0,0,1-7.525-4.214,15.552,15.552,0,0,1-4.171-6.02,19.356,19.356,0,0,1-1.29-6.923,20.179,20.179,0,0,1,1.419-7.353,17.513,17.513,0,0,1,4.6-6.579,23.759,23.759,0,0,1,8.342-4.73,38.244,38.244,0,0,1,12.556-1.806,32.625,32.625,0,0,1,6.966.731,34.811,34.811,0,0,1,6.192,1.935A34.2,34.2,0,0,1,770-56.588a26.411,26.411,0,0,1,3.913,3.01L762.39-43.086a12.836,12.836,0,0,0-4.472-3.225,16.438,16.438,0,0,0-6.794-1.247,14.171,14.171,0,0,0-7.181,1.5q-2.537,1.505-2.537,3.311,0,1.978,2.924,3.612T753.532-37.5Z" transform="translate(-3.01 61.92)" fill="#fff"/></svg>