<svg xmlns="http://www.w3.org/2000/svg" width="668.759" height="67.34" viewBox="0 0 668.759 67.34"><path d="M5.005,0V-27.664L21.567-42.952H49.959V-63.7H67.522V0H50.05V-27.755H22.477V0ZM75.712-31.941a37.555,37.555,0,0,1,2.411-13.741,30.387,30.387,0,0,1,6.825-10.6,30.387,30.387,0,0,1,10.6-6.825,37.555,37.555,0,0,1,13.741-2.411,37.819,37.819,0,0,1,13.832,2.411,30.861,30.861,0,0,1,10.647,6.825,30.068,30.068,0,0,1,6.87,10.6,37.555,37.555,0,0,1,2.411,13.741,37.819,37.819,0,0,1-2.411,13.832,30.532,30.532,0,0,1-6.87,10.647A30.532,30.532,0,0,1,123.123-.591,37.819,37.819,0,0,1,109.291,1.82,37.555,37.555,0,0,1,95.55-.591a30.068,30.068,0,0,1-10.6-6.871,30.861,30.861,0,0,1-6.825-10.647A37.819,37.819,0,0,1,75.712-31.941Zm17.563.091q0,8.372,4.049,13.423T109.2-13.377a17.293,17.293,0,0,0,7.007-1.32,14.236,14.236,0,0,0,5.1-3.731,15.839,15.839,0,0,0,3.14-5.824,25.854,25.854,0,0,0,1.046-7.6,25.519,25.519,0,0,0-1.046-7.507,16.291,16.291,0,0,0-3.14-5.869,14,14,0,0,0-5.1-3.777,17.293,17.293,0,0,0-7.007-1.319q-7.826,0-11.876,5.1T93.275-31.85ZM149.422-48.5h15.743l5.187,19.292L179.634-63.7h15.834v.182l9.282,34.307L214.032-63.7h15.834L212.576,0H196.833l-9.282-34.489L178.269-.182V0H162.435ZM258.986-63.7h62.608v15.2H299.481v32.4L282.009,0V-48.5H258.986Zm66.066,31.759a37.555,37.555,0,0,1,2.411-13.741,30.387,30.387,0,0,1,6.825-10.6,30.387,30.387,0,0,1,10.6-6.825,37.555,37.555,0,0,1,13.741-2.411,37.82,37.82,0,0,1,13.832,2.411,30.861,30.861,0,0,1,10.647,6.825,30.068,30.068,0,0,1,6.87,10.6,37.555,37.555,0,0,1,2.411,13.741,37.819,37.819,0,0,1-2.411,13.832,30.532,30.532,0,0,1-6.87,10.647A30.532,30.532,0,0,1,372.463-.591,37.819,37.819,0,0,1,358.631,1.82,37.555,37.555,0,0,1,344.89-.591a30.068,30.068,0,0,1-10.6-6.871,30.86,30.86,0,0,1-6.825-10.647A37.819,37.819,0,0,1,325.052-31.941Zm17.563.091q0,8.372,4.049,13.423t11.876,5.051a17.293,17.293,0,0,0,7.007-1.32,14.236,14.236,0,0,0,5.1-3.731,15.839,15.839,0,0,0,3.139-5.824,25.854,25.854,0,0,0,1.047-7.6,25.519,25.519,0,0,0-1.047-7.507,16.291,16.291,0,0,0-3.139-5.869,14,14,0,0,0-5.1-3.777,17.293,17.293,0,0,0-7.007-1.319q-7.826,0-11.876,5.1T342.615-31.85ZM440.8-18.109V0H423.332V-18.018l16.653-15.288h20.384a7.687,7.687,0,0,0,5.688-2.139,7.687,7.687,0,0,0,2.139-5.687,6.941,6.941,0,0,0-2.139-5.46,8.217,8.217,0,0,0-5.687-1.911h-24.3l-12.74-15.2h39.676a25.274,25.274,0,0,1,9.282,1.638,20.224,20.224,0,0,1,7.143,4.641,21.026,21.026,0,0,1,4.6,7.189,25.274,25.274,0,0,1,1.638,9.282,25.9,25.9,0,0,1-1.638,9.418,20.462,20.462,0,0,1-4.6,7.189,20.546,20.546,0,0,1-7.143,4.6,25.274,25.274,0,0,1-9.282,1.638ZM509.691-63.7v48.5h36.4V0H492.128V-47.411Zm52.052,30.394h26.936L580.125-63.7h18.109L616.161,0h-18.2l-5.1-18.109h-17.2L570.57,0H552.461ZM613.249-63.7h20.93l9.373,14.378L652.834-63.7h20.93L652.47-30.849v14.742L635,0V-30.394Z" transform="translate(-5.005 65.52)" fill="#fff"/></svg>