<svg xmlns="http://www.w3.org/2000/svg" width="297.234" height="72.52" viewBox="0 0 297.234 72.52"><path d="M24.3-68.6,53.9-28.028V-50.96L72.814-68.6V0H54V-.2L24.3-40.866V0H5.39V-68.6Zm117.4,0v16.366h-39.3v8.722h39.3L124.166-27.146H102.508v10.78h39.2V0H83.594V-68.6Zm6.86,16.366h16.954l5.586,20.776,10-37.142h17.052v.2l10,36.946,10-37.142H235.2L216.58,0H199.626l-10-37.142L179.634-.2V0H162.582Zm126.224,9.506a40.22,40.22,0,0,1,12.936,1.813,23.791,23.791,0,0,1,8.575,4.851,18.732,18.732,0,0,1,4.8,6.86,21.3,21.3,0,0,1,1.519,7.938,22.615,22.615,0,0,1-1.617,8.33,20.055,20.055,0,0,1-5.243,7.448A27.075,27.075,0,0,1,286.258-.1,43.58,43.58,0,0,1,271.95,1.96a37.177,37.177,0,0,1-7.938-.833,39.667,39.667,0,0,1-7.056-2.205,38.97,38.97,0,0,1-5.831-3.038,30.1,30.1,0,0,1-4.459-3.43L259.8-19.5a14.626,14.626,0,0,0,5.1,3.675,18.732,18.732,0,0,0,7.742,1.421q5.292,0,8.183-1.715t2.891-3.773q0-2.254-3.332-4.116t-10.486-1.862a40.581,40.581,0,0,1-13.034-1.813,24.222,24.222,0,0,1-8.575-4.8,17.721,17.721,0,0,1-4.753-6.86,22.056,22.056,0,0,1-1.47-7.889,22.994,22.994,0,0,1,1.617-8.379,19.957,19.957,0,0,1,5.243-7.5,27.075,27.075,0,0,1,9.506-5.39,43.581,43.581,0,0,1,14.308-2.058,37.177,37.177,0,0,1,7.938.833,39.666,39.666,0,0,1,7.056,2.205,38.972,38.972,0,0,1,5.831,3.038,30.1,30.1,0,0,1,4.459,3.43L284.886-49.1a14.627,14.627,0,0,0-5.1-3.675,18.732,18.732,0,0,0-7.742-1.421q-5.292,0-8.183,1.715t-2.891,3.773q0,2.254,3.332,4.116T274.792-42.728Z" transform="translate(-5.39 70.56)" fill="#fff"/></svg>