<svg xmlns="http://www.w3.org/2000/svg" width="424.402" height="74.74" viewBox="0 0 424.402 74.74"><path d="M-179.477-44.036a41.452,41.452,0,0,1,13.332,1.868,24.519,24.519,0,0,1,8.837,5,19.306,19.306,0,0,1,4.949,7.07,21.955,21.955,0,0,1,1.565,8.181,23.306,23.306,0,0,1-1.667,8.585,20.669,20.669,0,0,1-5.4,7.676A27.9,27.9,0,0,1-167.66-.1,44.915,44.915,0,0,1-182.406,2.02a38.315,38.315,0,0,1-8.181-.859,40.881,40.881,0,0,1-7.272-2.273,40.162,40.162,0,0,1-6.009-3.131,31.017,31.017,0,0,1-4.6-3.535L-194.93-20.1a15.074,15.074,0,0,0,5.252,3.788,19.305,19.305,0,0,0,7.979,1.465q5.454,0,8.434-1.768t2.979-3.888q0-2.323-3.434-4.242t-10.807-1.919a41.824,41.824,0,0,1-13.433-1.868,24.963,24.963,0,0,1-8.837-4.949,18.263,18.263,0,0,1-4.9-7.07,22.731,22.731,0,0,1-1.515-8.131,23.7,23.7,0,0,1,1.667-8.636,20.568,20.568,0,0,1,5.4-7.727,27.9,27.9,0,0,1,9.8-5.555A44.915,44.915,0,0,1-181.6-72.72a38.315,38.315,0,0,1,8.181.858,40.881,40.881,0,0,1,7.272,2.272,40.165,40.165,0,0,1,6.009,3.131,31.017,31.017,0,0,1,4.6,3.535L-169.074-50.6a15.074,15.074,0,0,0-5.252-3.787,19.305,19.305,0,0,0-7.979-1.465q-5.454,0-8.434,1.767t-2.98,3.889q0,2.323,3.434,4.242T-179.477-44.036Zm30-26.664h23.23l10.4,15.958,10.3-15.958h23.23l-23.634,36.461v16.362L-125.341,0V-33.734ZM-44.743-44.036a41.452,41.452,0,0,1,13.332,1.868,24.519,24.519,0,0,1,8.837,5,19.305,19.305,0,0,1,4.949,7.07,21.955,21.955,0,0,1,1.565,8.181,23.306,23.306,0,0,1-1.667,8.585,20.669,20.669,0,0,1-5.4,7.676A27.9,27.9,0,0,1-32.926-.1,44.915,44.915,0,0,1-47.672,2.02a38.315,38.315,0,0,1-8.181-.859,40.881,40.881,0,0,1-7.272-2.273,40.162,40.162,0,0,1-6.009-3.131,31.016,31.016,0,0,1-4.6-3.535L-60.2-20.1a15.074,15.074,0,0,0,5.252,3.788,19.305,19.305,0,0,0,7.979,1.465q5.454,0,8.434-1.768t2.979-3.888q0-2.323-3.434-4.242t-10.807-1.919a41.824,41.824,0,0,1-13.433-1.868,24.963,24.963,0,0,1-8.838-4.949,18.263,18.263,0,0,1-4.9-7.07,22.731,22.731,0,0,1-1.515-8.131,23.7,23.7,0,0,1,1.666-8.636,20.568,20.568,0,0,1,5.4-7.727,27.9,27.9,0,0,1,9.8-5.555A44.915,44.915,0,0,1-46.864-72.72a38.315,38.315,0,0,1,8.181.858,40.881,40.881,0,0,1,7.272,2.272A40.164,40.164,0,0,1-25.4-66.458a31.017,31.017,0,0,1,4.6,3.535L-34.34-50.6a15.074,15.074,0,0,0-5.252-3.787,19.305,19.305,0,0,0-7.979-1.465q-5.454,0-8.434,1.767T-58.984-50.2q0,2.323,3.434,4.242T-44.743-44.036Zm30-26.664H54.742v16.867H30.2v35.956L10.807,0V-53.833H-14.746Zm138.471,0v16.867h-40.5v8.989h40.5L105.646-27.977H83.325v11.11h40.4V0H63.832V-70.7Zm9.09,61.206V-70.7h23.331L172.1-41.612,187.961-70.7h23.23V0H191.8V-42.117L172-6.363,152.308-42.117v14.746Z" transform="translate(213.211 72.72)" fill="#fff"/></svg>