<svg xmlns="http://www.w3.org/2000/svg" width="1379.105" height="67.34" viewBox="0 0 1379.105 67.34"><path d="M22.568-25.207V0H5.005V-63.7H58.968v15.2H22.477v8.1H58.968l-16.562,15.2Zm42.77-6.734a37.555,37.555,0,0,1,2.411-13.741,30.387,30.387,0,0,1,6.825-10.6,30.387,30.387,0,0,1,10.6-6.825A37.555,37.555,0,0,1,98.917-65.52a37.819,37.819,0,0,1,13.832,2.411A30.861,30.861,0,0,1,123.4-56.284a30.068,30.068,0,0,1,6.871,10.6,37.555,37.555,0,0,1,2.411,13.741,37.819,37.819,0,0,1-2.411,13.832A30.532,30.532,0,0,1,123.4-7.462,30.532,30.532,0,0,1,112.749-.591,37.819,37.819,0,0,1,98.917,1.82,37.555,37.555,0,0,1,85.176-.591a30.068,30.068,0,0,1-10.6-6.871,30.861,30.861,0,0,1-6.825-10.647A37.819,37.819,0,0,1,65.338-31.941ZM82.9-31.85q0,8.372,4.049,13.423t11.876,5.051a17.293,17.293,0,0,0,7.007-1.32,14.235,14.235,0,0,0,5.1-3.731,15.839,15.839,0,0,0,3.139-5.824,25.853,25.853,0,0,0,1.047-7.6,25.518,25.518,0,0,0-1.047-7.507,16.291,16.291,0,0,0-3.139-5.869,14,14,0,0,0-5.1-3.777,17.293,17.293,0,0,0-7.007-1.319q-7.826,0-11.876,5.1T82.9-31.85ZM140.868,0V-20.93l16.653-15.288H177.9q4.095,0,6.1-1.911a5.8,5.8,0,0,0,2-4.277,5.658,5.658,0,0,0-2-4.232q-2-1.865-6.1-1.866h-24.3l-12.74-15.2h39.676a24.871,24.871,0,0,1,10.01,1.866,21.742,21.742,0,0,1,7.143,4.868,19.647,19.647,0,0,1,4.277,6.825,22.437,22.437,0,0,1,1.41,7.826,21.261,21.261,0,0,1-.819,5.869,22.9,22.9,0,0,1-2.366,5.46,18.958,18.958,0,0,1-3.913,4.641,21.124,21.124,0,0,1-5.551,3.413L205.114,0H187.642l-13.1-21.021h-16.2V0ZM290.017-63.7v15.2H253.526v8.1h36.491l-16.289,15.2H253.617V-15.2h36.4V0H236.054V-63.7Zm15.652,30.394h26.936L324.051-63.7H342.16L360.087,0h-18.2l-5.1-18.109h-17.2L314.5,0H296.387ZM368.277,0V-20.93L384.93-36.218h20.384q4.1,0,6.1-1.911a5.8,5.8,0,0,0,2-4.277,5.658,5.658,0,0,0-2-4.232q-2-1.865-6.1-1.866h-24.3l-12.74-15.2h39.676a24.871,24.871,0,0,1,10.01,1.866,21.743,21.743,0,0,1,7.143,4.868,19.647,19.647,0,0,1,4.277,6.825,22.437,22.437,0,0,1,1.41,7.826,21.262,21.262,0,0,1-.819,5.869,22.9,22.9,0,0,1-2.366,5.46,18.959,18.959,0,0,1-3.913,4.641,21.125,21.125,0,0,1-5.551,3.413L432.523,0H415.051l-13.1-21.021h-16.2V0Zm88.27-63.7v48.5h36.4V0H438.984V-47.411Zm42.77,0h20.93l9.373,14.378L538.9-63.7h20.93L538.538-30.849v14.742L521.066,0V-30.394Zm98.917,30.394H625.17L616.616-63.7h18.109L652.652,0h-18.2l-5.1-18.109h-17.2L607.061,0H588.952ZM704.522-45.591a14.942,14.942,0,0,0-5.187-3.5,17.894,17.894,0,0,0-6.825-1.229A17.375,17.375,0,0,0,685.549-49a13.911,13.911,0,0,0-5.141,3.777,16.85,16.85,0,0,0-3.185,5.869,24.528,24.528,0,0,0-1.092,7.507q0,8.372,4.277,13.423t12.1,5.051a17.813,17.813,0,0,0,7.28-1.411,14.1,14.1,0,0,0,5.278-3.959L715.9-6.279A30.434,30.434,0,0,1,705.614-.273,38.774,38.774,0,0,1,692.6,1.82,37.555,37.555,0,0,1,678.86-.591a30.068,30.068,0,0,1-10.6-6.871,30.861,30.861,0,0,1-6.825-10.647,37.819,37.819,0,0,1-2.411-13.832,37.555,37.555,0,0,1,2.411-13.741,30.387,30.387,0,0,1,6.825-10.6,30.3,30.3,0,0,1,10.647-6.825,37.918,37.918,0,0,1,13.786-2.411,38.258,38.258,0,0,1,13.468,2.275,30.408,30.408,0,0,1,10.556,6.552Zm64.064,0a14.942,14.942,0,0,0-5.187-3.5,17.894,17.894,0,0,0-6.825-1.229A17.375,17.375,0,0,0,749.612-49a13.911,13.911,0,0,0-5.141,3.777,16.85,16.85,0,0,0-3.185,5.869,24.528,24.528,0,0,0-1.092,7.507q0,8.372,4.277,13.423t12.1,5.051a17.813,17.813,0,0,0,7.28-1.411,14.1,14.1,0,0,0,5.278-3.959L779.961-6.279A30.434,30.434,0,0,1,769.678-.273,38.774,38.774,0,0,1,756.665,1.82,37.555,37.555,0,0,1,742.924-.591a30.068,30.068,0,0,1-10.6-6.871A30.861,30.861,0,0,1,725.5-18.109a37.819,37.819,0,0,1-2.411-13.832A37.555,37.555,0,0,1,725.5-45.682a30.387,30.387,0,0,1,6.825-10.6,30.3,30.3,0,0,1,10.647-6.825,37.918,37.918,0,0,1,13.786-2.411,38.258,38.258,0,0,1,13.468,2.275,30.408,30.408,0,0,1,10.556,6.552ZM842.933-63.7v15.2H806.442v8.1h36.491l-16.289,15.2H806.533V-15.2h36.4V0H788.97V-63.7ZM879.7-39.676a37.348,37.348,0,0,1,12.012,1.684,22.091,22.091,0,0,1,7.963,4.5,17.4,17.4,0,0,1,4.459,6.37,19.783,19.783,0,0,1,1.411,7.371,21,21,0,0,1-1.5,7.735A18.623,18.623,0,0,1,899.171-5.1a25.142,25.142,0,0,1-8.827,5.005A40.468,40.468,0,0,1,877.058,1.82a34.521,34.521,0,0,1-7.371-.774A36.833,36.833,0,0,1,863.135-1a36.186,36.186,0,0,1-5.415-2.821,27.944,27.944,0,0,1-4.141-3.185l12.194-11.1a13.581,13.581,0,0,0,4.732,3.413,17.394,17.394,0,0,0,7.189,1.32,14.994,14.994,0,0,0,7.6-1.593q2.685-1.592,2.685-3.5,0-2.093-3.094-3.822t-9.737-1.729a37.683,37.683,0,0,1-12.1-1.684,22.492,22.492,0,0,1-7.963-4.459,16.455,16.455,0,0,1-4.414-6.37,20.481,20.481,0,0,1-1.365-7.326,21.351,21.351,0,0,1,1.5-7.781,18.531,18.531,0,0,1,4.868-6.961,25.141,25.141,0,0,1,8.827-5.005,40.468,40.468,0,0,1,13.286-1.911,34.522,34.522,0,0,1,7.371.773,36.834,36.834,0,0,1,6.552,2.048,36.186,36.186,0,0,1,5.414,2.821,27.945,27.945,0,0,1,4.141,3.185l-12.194,11.1A13.582,13.582,0,0,0,884.338-49a17.394,17.394,0,0,0-7.189-1.319,15,15,0,0,0-7.6,1.592q-2.685,1.593-2.685,3.5,0,2.093,3.094,3.822T879.7-39.676Zm62.608,0a37.348,37.348,0,0,1,12.012,1.684,22.091,22.091,0,0,1,7.963,4.5,17.4,17.4,0,0,1,4.459,6.37,19.781,19.781,0,0,1,1.41,7.371,21,21,0,0,1-1.5,7.735A18.623,18.623,0,0,1,961.779-5.1a25.142,25.142,0,0,1-8.827,5.005A40.468,40.468,0,0,1,939.666,1.82a34.522,34.522,0,0,1-7.371-.774A36.834,36.834,0,0,1,925.743-1a36.186,36.186,0,0,1-5.415-2.821,27.944,27.944,0,0,1-4.141-3.185l12.194-11.1a13.581,13.581,0,0,0,4.732,3.413,17.394,17.394,0,0,0,7.189,1.32,14.994,14.994,0,0,0,7.6-1.593q2.685-1.592,2.685-3.5,0-2.093-3.094-3.822t-9.737-1.729a37.683,37.683,0,0,1-12.1-1.684,22.492,22.492,0,0,1-7.963-4.459,16.455,16.455,0,0,1-4.414-6.37,20.481,20.481,0,0,1-1.365-7.326,21.351,21.351,0,0,1,1.5-7.781,18.531,18.531,0,0,1,4.868-6.961,25.141,25.141,0,0,1,8.827-5.005,40.468,40.468,0,0,1,13.286-1.911,34.522,34.522,0,0,1,7.371.773,36.834,36.834,0,0,1,6.552,2.048,36.186,36.186,0,0,1,5.414,2.821,27.945,27.945,0,0,1,4.141,3.185l-12.194,11.1A13.582,13.582,0,0,0,946.946-49a17.394,17.394,0,0,0-7.189-1.319,15,15,0,0,0-7.6,1.592q-2.685,1.593-2.685,3.5,0,2.093,3.094,3.822T942.3-39.676Zm74.256,21.567V0H999.089V-18.018l16.653-15.288h20.384a7.687,7.687,0,0,0,5.688-2.139,7.687,7.687,0,0,0,2.138-5.687,6.941,6.941,0,0,0-2.138-5.46,8.217,8.217,0,0,0-5.687-1.911h-24.3l-12.74-15.2h39.676a25.274,25.274,0,0,1,9.282,1.638,20.225,20.225,0,0,1,7.144,4.641,21.024,21.024,0,0,1,4.6,7.189,25.273,25.273,0,0,1,1.638,9.282,25.9,25.9,0,0,1-1.638,9.418,20.46,20.46,0,0,1-4.6,7.189,20.546,20.546,0,0,1-7.144,4.6,25.274,25.274,0,0,1-9.282,1.638ZM1085.448-63.7v48.5h36.4V0h-53.963V-47.411ZM1137.5-33.306h26.936L1155.882-63.7h18.109L1191.918,0h-18.2l-5.1-18.109h-17.2L1146.327,0h-18.109ZM1189.006-63.7h20.93l9.373,14.378,9.282-14.378h20.93l-21.294,32.851v14.742L1210.755,0V-30.394Zm122.668,0v15.2h-36.491v8.1h36.491l-16.289,15.2h-20.111V-15.2h36.4V0h-53.963V-63.7Zm8.19,63.7V-20.93l16.653-15.288H1356.9q4.095,0,6.1-1.911a5.8,5.8,0,0,0,2-4.277,5.658,5.658,0,0,0-2-4.232q-2-1.865-6.1-1.866h-24.3l-12.74-15.2h39.676a24.872,24.872,0,0,1,10.01,1.866,21.742,21.742,0,0,1,7.143,4.868,19.646,19.646,0,0,1,4.277,6.825,22.437,22.437,0,0,1,1.411,7.826,21.26,21.26,0,0,1-.819,5.869,22.9,22.9,0,0,1-2.366,5.46,18.958,18.958,0,0,1-3.913,4.641,21.123,21.123,0,0,1-5.551,3.413L1384.11,0h-17.472l-13.1-21.021h-16.2V0Z" transform="translate(-5.005 65.52)" fill="#fff"/></svg>