<svg xmlns="http://www.w3.org/2000/svg" width="727.155" height="73.26" viewBox="0 0 727.155 73.26"><path d="M52.965-49.6a16.256,16.256,0,0,0-5.643-3.811A19.468,19.468,0,0,0,39.9-54.747a18.9,18.9,0,0,0-7.574,1.436A15.134,15.134,0,0,0,26.73-49.2a18.332,18.332,0,0,0-3.465,6.385,26.687,26.687,0,0,0-1.188,8.168q0,9.108,4.653,14.6T39.9-14.553a19.379,19.379,0,0,0,7.92-1.535,15.337,15.337,0,0,0,5.742-4.306L65.34-6.831A33.11,33.11,0,0,1,54.153-.3,42.183,42.183,0,0,1,40,1.98,40.857,40.857,0,0,1,25.047-.644,32.711,32.711,0,0,1,13.514-8.118,33.574,33.574,0,0,1,6.089-19.7,41.144,41.144,0,0,1,3.465-34.749,40.857,40.857,0,0,1,6.089-49.7a33.058,33.058,0,0,1,7.425-11.534A32.966,32.966,0,0,1,25.1-68.657a41.251,41.251,0,0,1,15-2.624,41.622,41.622,0,0,1,14.652,2.475,33.08,33.08,0,0,1,11.484,7.128ZM75.141,0V-30.1L93.159-46.728h30.888V-69.3h19.107V0H124.146V-30.2h-30V0Zm87.021-36.234h29.3L182.16-69.3h19.7L221.364,0h-19.8L196.02-19.7H177.309L171.765,0h-19.7ZM230.274,0V-22.77L248.391-39.4h22.176q4.455,0,6.633-2.079a6.308,6.308,0,0,0,2.178-4.653,6.155,6.155,0,0,0-2.178-4.6q-2.178-2.029-6.633-2.03H244.134L230.274-69.3h43.164a27.058,27.058,0,0,1,10.89,2.029,23.654,23.654,0,0,1,7.772,5.3,21.374,21.374,0,0,1,4.653,7.425,24.409,24.409,0,0,1,1.535,8.514,23.129,23.129,0,0,1-.891,6.386,24.91,24.91,0,0,1-2.574,5.94,20.625,20.625,0,0,1-4.257,5.049,22.982,22.982,0,0,1-6.039,3.713L300.168,0H281.16L266.9-22.869H249.282V0Zm81.873-36.234h29.3L332.145-69.3h19.7L371.349,0h-19.8l-5.544-19.7H327.294L321.75,0h-19.7ZM427.779-49.6a16.256,16.256,0,0,0-5.643-3.811,19.467,19.467,0,0,0-7.425-1.337,18.9,18.9,0,0,0-7.574,1.436,15.134,15.134,0,0,0-5.593,4.109,18.332,18.332,0,0,0-3.465,6.385,26.686,26.686,0,0,0-1.188,8.168q0,9.108,4.653,14.6t13.167,5.495a19.379,19.379,0,0,0,7.92-1.535,15.336,15.336,0,0,0,5.742-4.306L440.154-6.831A33.11,33.11,0,0,1,428.967-.3,42.183,42.183,0,0,1,414.81,1.98,40.857,40.857,0,0,1,399.861-.644a32.711,32.711,0,0,1-11.534-7.475A33.574,33.574,0,0,1,380.9-19.7a41.144,41.144,0,0,1-2.624-15.048A40.857,40.857,0,0,1,380.9-49.7a33.058,33.058,0,0,1,7.425-11.534,32.966,32.966,0,0,1,11.583-7.425,41.251,41.251,0,0,1,15-2.624,41.622,41.622,0,0,1,14.652,2.475,33.08,33.08,0,0,1,11.484,7.128Zm20.2-19.7h68.112v16.533H492.03v35.244L473.022,0V-52.767H447.975Zm135.729,0v16.533h-39.7v8.811h39.7L565.983-27.423H544.1v10.89h39.6V0H525V-69.3ZM592.614,0V-22.77L610.731-39.4h22.176q4.455,0,6.633-2.079a6.308,6.308,0,0,0,2.178-4.653,6.155,6.155,0,0,0-2.178-4.6q-2.178-2.029-6.633-2.03H606.474L592.614-69.3h43.164a27.058,27.058,0,0,1,10.89,2.029,23.654,23.654,0,0,1,7.771,5.3,21.375,21.375,0,0,1,4.653,7.425,24.409,24.409,0,0,1,1.534,8.514,23.131,23.131,0,0,1-.891,6.386,24.912,24.912,0,0,1-2.574,5.94,20.625,20.625,0,0,1-4.257,5.049,22.982,22.982,0,0,1-6.039,3.713L662.508,0H643.5L629.244-22.869H611.622V0ZM702.5-43.164a40.631,40.631,0,0,1,13.068,1.832,24.033,24.033,0,0,1,8.662,4.9,18.923,18.923,0,0,1,4.851,6.93,21.52,21.52,0,0,1,1.534,8.019,22.845,22.845,0,0,1-1.633,8.415,20.259,20.259,0,0,1-5.3,7.524,27.351,27.351,0,0,1-9.6,5.445A44.026,44.026,0,0,1,699.633,1.98a37.556,37.556,0,0,1-8.019-.842,40.073,40.073,0,0,1-7.128-2.228A39.363,39.363,0,0,1,678.6-4.158a30.406,30.406,0,0,1-4.5-3.465L687.357-19.7a14.776,14.776,0,0,0,5.148,3.713,18.923,18.923,0,0,0,7.821,1.436q5.346,0,8.266-1.733t2.92-3.811q0-2.277-3.366-4.158t-10.593-1.881a41,41,0,0,1-13.167-1.832,24.468,24.468,0,0,1-8.662-4.851,17.9,17.9,0,0,1-4.8-6.93,22.281,22.281,0,0,1-1.485-7.97,23.229,23.229,0,0,1,1.633-8.465,20.161,20.161,0,0,1,5.3-7.573,27.351,27.351,0,0,1,9.6-5.445,44.026,44.026,0,0,1,14.454-2.079,37.557,37.557,0,0,1,8.019.841,40.071,40.071,0,0,1,7.128,2.228,39.37,39.37,0,0,1,5.891,3.069,30.407,30.407,0,0,1,4.5,3.465L712.7-49.6a14.776,14.776,0,0,0-5.148-3.712,18.923,18.923,0,0,0-7.821-1.436q-5.346,0-8.267,1.732t-2.92,3.812q0,2.277,3.366,4.158T702.5-43.164Z" transform="translate(-3.465 71.28)" fill="#fff"/></svg>