<svg xmlns="http://www.w3.org/2000/svg" width="188.279" height="75.257" viewBox="0 0 188.279 75.257"><path d="M22.568-25.207V0H5.005V-63.7H58.968v15.2H22.477v8.1H58.968l-16.562,15.2Zm41.041-8.1H90.545L81.991-63.7H100.1L118.027,0h-18.2l-5.1-18.109h-17.2L72.436,0H54.327ZM157.976-65.52a37.819,37.819,0,0,1,13.832,2.411,30.861,30.861,0,0,1,10.647,6.825,30.068,30.068,0,0,1,6.87,10.6,37.555,37.555,0,0,1,2.411,13.741,38.87,38.87,0,0,1-1.729,11.876,31.6,31.6,0,0,1-5,9.691l8.281,9.191-12.1,10.92L171.808-.546A39.154,39.154,0,0,1,158.067,1.82,37.918,37.918,0,0,1,144.281-.591a29.985,29.985,0,0,1-10.647-6.871,30.861,30.861,0,0,1-6.825-10.647A37.819,37.819,0,0,1,124.4-31.941a37.555,37.555,0,0,1,2.411-13.741,30.387,30.387,0,0,1,6.825-10.6,30.387,30.387,0,0,1,10.6-6.825A37.555,37.555,0,0,1,157.976-65.52Zm-.091,52.143a17.293,17.293,0,0,0,7.007-1.32,14.236,14.236,0,0,0,5.1-3.731,15.839,15.839,0,0,0,3.139-5.824,25.854,25.854,0,0,0,1.046-7.6,25.519,25.519,0,0,0-1.046-7.507,16.291,16.291,0,0,0-3.139-5.869,14,14,0,0,0-5.1-3.777,17.293,17.293,0,0,0-7.007-1.319q-7.826,0-11.876,5.1T141.96-31.85q0,8.372,4.049,13.423T157.885-13.377Z" transform="translate(-5.005 65.52)" fill="#fff"/></svg>