<svg xmlns="http://www.w3.org/2000/svg" width="79.34" height="17.75" viewBox="0 0 79.34 17.75">
  <defs>
    <style>
      .cls-1 {
        fill: #ffc104;
        fill-rule: evenodd;
      }
    </style>
  </defs>
  <path id="movie" class="cls-1" d="M2258.39,897.928v-3.5l4.68,8.5,4.71-8.5v10.008h4.6v-16.8h-5.52l-3.76,6.912-3.8-6.912h-5.54v14.544Zm16.79,1.728a8.024,8.024,0,0,0,1.8,2.808,7.875,7.875,0,0,0,2.8,1.812,9.845,9.845,0,0,0,3.62.636,10.008,10.008,0,0,0,3.65-.636,7.914,7.914,0,0,0,4.62-4.62,10.807,10.807,0,0,0,0-7.272,8.065,8.065,0,0,0-1.81-2.8,8.281,8.281,0,0,0-2.81-1.8,10.008,10.008,0,0,0-3.65-.636,9.845,9.845,0,0,0-3.62.636,7.843,7.843,0,0,0-4.6,4.6A10.648,10.648,0,0,0,2275.18,899.656Zm5.06-7.152a3.769,3.769,0,0,1,3.14-1.344,4.508,4.508,0,0,1,1.84.348,3.714,3.714,0,0,1,1.35,1,4.526,4.526,0,0,1,.83,1.548,6.869,6.869,0,0,1,.27,1.98,6.96,6.96,0,0,1-.27,2,4.4,4.4,0,0,1-.83,1.536,3.776,3.776,0,0,1-1.35.984,4.508,4.508,0,0,1-1.84.348,3.785,3.785,0,0,1-3.14-1.332A6.421,6.421,0,0,1,2280.24,892.5Zm17.13,11.928h7.34l4.73-16.8h-4.8l-3.6,12.84-2.26-8.04h-4.8Zm18.84,0v-16.8h-4.61v16.8h4.61Zm2.64-16.8v16.8h14.23v-4.008h-9.6v-2.64h5.3l4.3-4.008h-9.63V891.64h9.63v-4.008h-14.23Z" transform="translate(-2253.75 -887.156)"/>
</svg>
