<svg xmlns="http://www.w3.org/2000/svg" width="66.72" height="17.75" viewBox="0 0 66.72 17.75">
  <defs>
    <style>
      .cls-1 {
        fill: #ffc104;
        fill-rule: evenodd;
      }
    </style>
  </defs>
  <path id="spec" class="cls-1" d="M2770.73,892.512a1.262,1.262,0,0,1-.82-1.008,1.165,1.165,0,0,1,.71-0.924,3.943,3.943,0,0,1,2-.42,4.575,4.575,0,0,1,1.9.348,3.609,3.609,0,0,1,1.25.9l3.21-2.928a6.859,6.859,0,0,0-1.09-.84,9.284,9.284,0,0,0-1.43-.744,9.524,9.524,0,0,0-1.72-.54,9.216,9.216,0,0,0-1.95-.2,10.672,10.672,0,0,0-3.5.5,6.623,6.623,0,0,0-2.33,1.32,4.854,4.854,0,0,0-1.28,1.836,5.515,5.515,0,0,0-.4,2.052,5.4,5.4,0,0,0,.36,1.932,4.394,4.394,0,0,0,1.16,1.68,6,6,0,0,0,2.1,1.176,9.991,9.991,0,0,0,3.2.444,5.462,5.462,0,0,1,2.56.456,1.262,1.262,0,0,1,.82,1.008,1.165,1.165,0,0,1-.71.924,3.943,3.943,0,0,1-2,.42,4.607,4.607,0,0,1-1.9-.348,3.609,3.609,0,0,1-1.25-.9l-3.21,2.928a7.347,7.347,0,0,0,1.09.84,9.284,9.284,0,0,0,1.43.744,9.634,9.634,0,0,0,1.73.54,9.054,9.054,0,0,0,1.94.2,10.631,10.631,0,0,0,3.5-.5,6.623,6.623,0,0,0,2.33-1.32,5.023,5.023,0,0,0,1.29-1.824,5.613,5.613,0,0,0,.39-2.04,5.175,5.175,0,0,0-.37-1.944,4.575,4.575,0,0,0-1.18-1.68,5.725,5.725,0,0,0-2.1-1.188,9.815,9.815,0,0,0-3.16-.444A5.481,5.481,0,0,1,2770.73,892.512Zm22.01,6.144a6.623,6.623,0,0,0,2.44-.432,5.236,5.236,0,0,0,3.1-3.108,6.789,6.789,0,0,0,.43-2.484,6.624,6.624,0,0,0-.43-2.448,5.571,5.571,0,0,0-1.21-1.9,5.323,5.323,0,0,0-1.89-1.224,6.623,6.623,0,0,0-2.44-.432h-10.47l3.36,4.008h6.41a2.181,2.181,0,0,1,1.5.5,1.849,1.849,0,0,1,.56,1.44,1.934,1.934,0,0,1-2.06,2.064h-5.38l-4.39,4.032v4.752h4.61v-4.776h5.86Zm8.13-12.024v16.8h14.23v-4.008h-9.6v-2.64h5.31l4.29-4.008h-9.62V890.64h9.62v-4.008h-14.23ZM2832,888.48a8.027,8.027,0,0,0-2.79-1.728,10.055,10.055,0,0,0-3.55-.6,9.937,9.937,0,0,0-3.63.636,7.823,7.823,0,0,0-4.61,4.6,10.648,10.648,0,0,0,0,7.272,8.024,8.024,0,0,0,1.8,2.808,7.923,7.923,0,0,0,2.79,1.812,9.937,9.937,0,0,0,3.63.636,10.206,10.206,0,0,0,3.43-.552,8.037,8.037,0,0,0,2.71-1.584l-2.85-3.288a3.762,3.762,0,0,1-1.4,1.044,4.7,4.7,0,0,1-1.92.372,3.954,3.954,0,0,1-3.19-1.332,5.306,5.306,0,0,1-1.13-3.54,6.53,6.53,0,0,1,.29-1.98,4.38,4.38,0,0,1,.84-1.548,3.667,3.667,0,0,1,1.36-1,4.56,4.56,0,0,1,1.83-.348,4.662,4.662,0,0,1,1.8.324,3.894,3.894,0,0,1,1.37.924Z" transform="translate(-2765.28 -886.156)"/>
</svg>
