<svg xmlns="http://www.w3.org/2000/svg" width="161" height="17.75" viewBox="0 0 161 17.75">
  <defs>
    <style>
      .cls-1 {
        fill: #ffc104;
        fill-rule: evenodd;
      }
    </style>
  </defs>
  <path id="character" class="cls-1" d="M2484.5,889.48a8.12,8.12,0,0,0-2.79-1.728,10.768,10.768,0,0,0-7.19.036,7.843,7.843,0,0,0-4.6,4.6,10.648,10.648,0,0,0,0,7.272,8.024,8.024,0,0,0,1.8,2.808,7.834,7.834,0,0,0,2.79,1.812,9.937,9.937,0,0,0,3.63.636,10.248,10.248,0,0,0,3.43-.552,8.037,8.037,0,0,0,2.71-1.584l-2.86-3.288a3.649,3.649,0,0,1-1.39,1.044,4.7,4.7,0,0,1-1.92.372,3.954,3.954,0,0,1-3.19-1.332,5.306,5.306,0,0,1-1.13-3.54,6.53,6.53,0,0,1,.29-1.98,4.38,4.38,0,0,1,.84-1.548,3.667,3.667,0,0,1,1.36-1,4.526,4.526,0,0,1,1.83-.348,4.734,4.734,0,0,1,1.8.324,3.894,3.894,0,0,1,1.37.924Zm6.76,14.952v-7.32h7.28v7.32h4.6v-16.8h-4.63V893.1h-7.49l-4.36,4.032v7.3h4.6Zm14.04,0h4.78l1.34-4.776h4.54l1.34,4.776h4.8l-4.72-16.8h-4.78l2.26,8.016h-7.11Zm23.57,0v-5.544h4.27l3.46,5.544h4.61l-3.8-6.048a5.674,5.674,0,0,0,1.47-.9,5.081,5.081,0,0,0,1.03-1.224,5.947,5.947,0,0,0,.62-1.44,5.394,5.394,0,0,0,.22-1.548,5.87,5.87,0,0,0-.37-2.064,5.276,5.276,0,0,0-1.13-1.8,5.7,5.7,0,0,0-1.88-1.284,6.614,6.614,0,0,0-2.64-.492h-10.47l3.36,4.008h6.41a2.291,2.291,0,0,1,1.61.492,1.5,1.5,0,0,1,.53,1.116,1.539,1.539,0,0,1-.53,1.128,2.255,2.255,0,0,1-1.61.5h-5.38l-4.39,4.032v5.52h4.61Zm14.02,0h4.77l1.35-4.776h4.53l1.35,4.776h4.8l-4.73-16.8h-4.78l2.26,8.016h-7.11Zm33.69-14.952a7.984,7.984,0,0,0-2.78-1.728,10.768,10.768,0,0,0-7.19.036,8,8,0,0,0-2.81,1.8,8.188,8.188,0,0,0-1.8,2.8,10.807,10.807,0,0,0,0,7.272,8.317,8.317,0,0,0,1.8,2.808,7.965,7.965,0,0,0,2.8,1.812,9.883,9.883,0,0,0,3.62.636,10.206,10.206,0,0,0,3.43-.552,8.083,8.083,0,0,0,2.72-1.584l-2.86-3.288a3.727,3.727,0,0,1-1.39,1.044,4.7,4.7,0,0,1-1.92.372,3.94,3.94,0,0,1-3.19-1.332,5.254,5.254,0,0,1-1.13-3.54,6.234,6.234,0,0,1,.29-1.98,4.38,4.38,0,0,1,.84-1.548,3.632,3.632,0,0,1,1.35-1,4.609,4.609,0,0,1,1.84-.348,4.734,4.734,0,0,1,1.8.324,3.986,3.986,0,0,1,1.37.924Zm1.68,2.16h6.07v12.792l4.61-4.248V891.64h5.83v-4.008h-16.51v4.008Zm18.67-4.008v16.8h14.24v-4.008h-9.6v-2.64h5.3l4.3-4.008h-9.63V891.64h9.63v-4.008h-14.24Zm21,16.8v-5.544h4.28l3.45,5.544h4.61l-3.79-6.048a5.451,5.451,0,0,0,1.46-.9,4.863,4.863,0,0,0,1.03-1.224,5.979,5.979,0,0,0,.63-1.44,5.757,5.757,0,0,0,.21-1.548,5.87,5.87,0,0,0-.37-2.064,5.129,5.129,0,0,0-1.13-1.8,5.7,5.7,0,0,0-1.88-1.284,6.546,6.546,0,0,0-2.64-.492h-10.46l3.36,4.008h6.4a2.291,2.291,0,0,1,1.61.492,1.5,1.5,0,0,1,.53,1.116,1.539,1.539,0,0,1-.53,1.128,2.255,2.255,0,0,1-1.61.5h-5.37l-4.39,4.032v5.52h4.6Z" transform="translate(-2469.28 -887.156)"/>
</svg>
