<svg xmlns="http://www.w3.org/2000/svg" width="89.22" height="17.75" viewBox="0 0 89.22 17.75">
  <defs>
    <style>
      .cls-1 {
        fill: #ffc104;
        fill-rule: evenodd;
      }
    </style>
  </defs>
  <path id="story" class="cls-1" d="M2362.73,893.512a1.262,1.262,0,0,1-.82-1.008,1.165,1.165,0,0,1,.71-0.924,3.943,3.943,0,0,1,2-.42,4.575,4.575,0,0,1,1.9.348,3.609,3.609,0,0,1,1.25.9l3.21-2.928a6.859,6.859,0,0,0-1.09-.84,9.284,9.284,0,0,0-1.43-.744,9.524,9.524,0,0,0-1.72-.54,9.216,9.216,0,0,0-1.95-.2,10.672,10.672,0,0,0-3.5.5,6.623,6.623,0,0,0-2.33,1.32,4.854,4.854,0,0,0-1.28,1.836,5.515,5.515,0,0,0-.4,2.052,5.4,5.4,0,0,0,.36,1.932,4.394,4.394,0,0,0,1.16,1.68,6,6,0,0,0,2.1,1.176,9.991,9.991,0,0,0,3.2.444,5.462,5.462,0,0,1,2.56.456,1.262,1.262,0,0,1,.82,1.008,1.165,1.165,0,0,1-.71.924,3.943,3.943,0,0,1-2,.42,4.607,4.607,0,0,1-1.9-.348,3.609,3.609,0,0,1-1.25-.9l-3.21,2.928a7.347,7.347,0,0,0,1.09.84,9.284,9.284,0,0,0,1.43.744,9.634,9.634,0,0,0,1.73.54,9.054,9.054,0,0,0,1.94.2,10.631,10.631,0,0,0,3.5-.5,6.623,6.623,0,0,0,2.33-1.32,5.023,5.023,0,0,0,1.29-1.824,5.613,5.613,0,0,0,.39-2.04,5.175,5.175,0,0,0-.37-1.944,4.575,4.575,0,0,0-1.18-1.68,5.725,5.725,0,0,0-2.1-1.188,9.815,9.815,0,0,0-3.16-.444A5.481,5.481,0,0,1,2362.73,893.512Zm11.06-1.872h6.07v12.792l4.61-4.248V891.64h5.83v-4.008h-16.51v4.008Zm18.83,8.016a8.024,8.024,0,0,0,1.8,2.808,7.875,7.875,0,0,0,2.8,1.812,9.845,9.845,0,0,0,3.62.636,10.008,10.008,0,0,0,3.65-.636,7.914,7.914,0,0,0,4.62-4.62,10.807,10.807,0,0,0,0-7.272,8.065,8.065,0,0,0-1.81-2.8,8.281,8.281,0,0,0-2.81-1.8,10.008,10.008,0,0,0-3.65-.636,9.845,9.845,0,0,0-3.62.636,7.843,7.843,0,0,0-4.6,4.6A10.648,10.648,0,0,0,2392.62,899.656Zm5.06-7.152a3.769,3.769,0,0,1,3.14-1.344,4.508,4.508,0,0,1,1.84.348,3.714,3.714,0,0,1,1.35,1,4.526,4.526,0,0,1,.83,1.548,6.869,6.869,0,0,1,.27,1.98,6.96,6.96,0,0,1-.27,2,4.4,4.4,0,0,1-.83,1.536,3.776,3.776,0,0,1-1.35.984,4.508,4.508,0,0,1-1.84.348,3.785,3.785,0,0,1-3.14-1.332A6.421,6.421,0,0,1,2397.68,892.5Zm18.83,11.928v-5.544h4.27l3.46,5.544h4.61l-3.8-6.048a5.674,5.674,0,0,0,1.47-.9,5.081,5.081,0,0,0,1.03-1.224,5.947,5.947,0,0,0,.62-1.44,5.394,5.394,0,0,0,.22-1.548,5.87,5.87,0,0,0-.37-2.064,5.276,5.276,0,0,0-1.13-1.8,5.7,5.7,0,0,0-1.88-1.284,6.614,6.614,0,0,0-2.64-.492H2411.9l3.36,4.008h6.41a2.291,2.291,0,0,1,1.61.492,1.5,1.5,0,0,1,.53,1.116,1.539,1.539,0,0,1-.53,1.128,2.255,2.255,0,0,1-1.61.5h-5.38l-4.39,4.032v5.52h4.61Zm19.75-8.016v8.016l4.61-4.248V896.3l5.62-8.664h-5.52l-2.45,3.792-2.47-3.792h-5.52Z" transform="translate(-2357.28 -887.156)"/>
</svg>
