<svg xmlns="http://www.w3.org/2000/svg" width="133.44" height="35.53" viewBox="0 0 133.44 35.53">
  <defs>
    <style>
      .cls-1 {
        fill: #fff;
        fill-rule: evenodd;
      }
    </style>
  </defs>
  <path id="spec" class="cls-1" d="M1065.4,1435.28c-1.09-.61-1.63-1.28-1.63-2.02a2.3,2.3,0,0,1,1.42-1.84,7.887,7.887,0,0,1,4-.84,9.285,9.285,0,0,1,3.8.69,7.333,7.333,0,0,1,2.49,1.8l6.43-5.85a13.705,13.705,0,0,0-2.18-1.68,19.357,19.357,0,0,0-6.31-2.57,18.4,18.4,0,0,0-3.89-.41,21.416,21.416,0,0,0-7.01,1.01,13.134,13.134,0,0,0-4.65,2.64,9.745,9.745,0,0,0-2.57,3.67,11.221,11.221,0,0,0-.79,4.1,10.827,10.827,0,0,0,.72,3.87,8.739,8.739,0,0,0,2.32,3.36,12.068,12.068,0,0,0,4.2,2.35,19.967,19.967,0,0,0,6.39.89,10.921,10.921,0,0,1,5.13.91c1.09,0.61,1.64,1.28,1.64,2.02a2.324,2.324,0,0,1-1.42,1.84,7.9,7.9,0,0,1-4.01.84,9.235,9.235,0,0,1-3.79-.69,7.376,7.376,0,0,1-2.5-1.8l-6.43,5.85a14.286,14.286,0,0,0,2.19,1.68,18.559,18.559,0,0,0,2.85,1.49,19.2,19.2,0,0,0,3.46,1.08,18.329,18.329,0,0,0,3.89.41,21.353,21.353,0,0,0,7-1.01,13.184,13.184,0,0,0,4.66-2.64,9.872,9.872,0,0,0,2.57-3.65,11,11,0,0,0,.79-4.08,10.494,10.494,0,0,0-.74-3.88,9.118,9.118,0,0,0-2.36-3.36,11.479,11.479,0,0,0-4.2-2.38,19.7,19.7,0,0,0-6.33-.89A10.968,10.968,0,0,1,1065.4,1435.28Zm44.02,12.29a13.217,13.217,0,0,0,4.89-.87,10.525,10.525,0,0,0,6.2-6.21,13.824,13.824,0,0,0,.86-4.97,13.517,13.517,0,0,0-.86-4.9,11.214,11.214,0,0,0-2.43-3.79,10.838,10.838,0,0,0-3.77-2.45,13.424,13.424,0,0,0-4.89-.86h-20.93l6.72,8.02h12.82a4.368,4.368,0,0,1,3,1,3.686,3.686,0,0,1,1.12,2.88,3.871,3.871,0,0,1-4.12,4.13h-10.76l-8.78,8.07v9.5h9.22v-9.55h11.71Zm16.27-24.05v33.6h28.46v-8.02h-19.2v-5.28h10.61l8.59-8.01H1134.9v-4.27h19.25v-8.02h-28.46Zm62.25,3.7a15.889,15.889,0,0,0-5.56-3.46,20.246,20.246,0,0,0-7.11-1.2,19.963,19.963,0,0,0-7.27,1.27,15.65,15.65,0,0,0-9.22,9.19,21.472,21.472,0,0,0,0,14.55,16.292,16.292,0,0,0,3.6,5.61,15.943,15.943,0,0,0,5.6,3.63,19.724,19.724,0,0,0,7.24,1.27,20.624,20.624,0,0,0,6.87-1.1,16.146,16.146,0,0,0,5.42-3.17l-5.71-6.58a7.458,7.458,0,0,1-2.78,2.09,9.33,9.33,0,0,1-3.84.74,7.9,7.9,0,0,1-6.39-2.66,10.622,10.622,0,0,1-2.25-7.08,13.065,13.065,0,0,1,.57-3.96,9.164,9.164,0,0,1,1.68-3.1,7.488,7.488,0,0,1,2.71-1.99,9.288,9.288,0,0,1,3.68-.69,9.507,9.507,0,0,1,3.6.64,8.051,8.051,0,0,1,2.73,1.85Z" transform="translate(-1054.5 -1422.56)"/>
</svg>
