<svg xmlns="http://www.w3.org/2000/svg" width="106.75" height="34.56" viewBox="0 0 106.75 34.56">
  <defs>
    <style>
      .cls-1 {
        fill: #fff;
        fill-rule: evenodd;
      }
    </style>
  </defs>
  <path id="Buy" class="cls-1" d="M1080.72,1532.22v-5.09h11.18a4.244,4.244,0,0,1,2.81.79,2.1,2.1,0,0,1,0,3.5,4.244,4.244,0,0,1-2.81.8h-11.18Zm-9.22-5.09v13.1h21.17a13.821,13.821,0,0,0,5.26-.91,11.7,11.7,0,0,0,3.74-2.38,9.365,9.365,0,0,0,2.26-3.36,10.518,10.518,0,0,0,.16-7.32,9.806,9.806,0,0,0-1.72-3.07,9.911,9.911,0,0,0,1.72-3.02,9.741,9.741,0,0,0,.58-3.31,9.983,9.983,0,0,0-.74-3.75,9.443,9.443,0,0,0-2.26-3.26,11.6,11.6,0,0,0-3.74-2.33,14.232,14.232,0,0,0-5.26-.89H1071.5l6.96,8.02h13.44a4.29,4.29,0,0,1,2.69.69,1.956,1.956,0,0,1,.86,1.52,2,2,0,0,1-.86,1.56,4.29,4.29,0,0,1-2.69.69h-11.66Zm61.3-11.91v9.17a10.619,10.619,0,0,1-.63,3.84,8.179,8.179,0,0,1-1.65,2.74,6.865,6.865,0,0,1-5.02,2.21,6.83,6.83,0,0,1-2.66-.56,6.531,6.531,0,0,1-2.35-1.65,8.364,8.364,0,0,1-1.66-2.74,10.628,10.628,0,0,1-.62-3.84v-17.76h-9.22v18.39a16.37,16.37,0,0,0,1.42,7.05,15.149,15.149,0,0,0,3.74,5.07,15.468,15.468,0,0,0,5.3,3.04,18.685,18.685,0,0,0,12.12,0,15.474,15.474,0,0,0,5.28-3.04,15.174,15.174,0,0,0,3.75-5.07,16.519,16.519,0,0,0,1.41-7.05v-18.39Zm25.01,8.98v16.03l9.21-8.49v-7.78l11.23-17.33h-11.04l-4.89,7.59-4.95-7.59h-11.04Z" transform="translate(-1071.5 -1506.63)"/>
</svg>
