<svg xmlns="http://www.w3.org/2000/svg" width="173.94" height="35.53" viewBox="0 0 173.94 35.53">
  <defs>
    <style>
      .cls-1 {
        fill: #fff;
        fill-rule: evenodd;
      }
    </style>
  </defs>
  <path id="_stage_" data-name=" stage " class="cls-1" d="M1048.15,1352.28c-1.09-.61-1.64-1.28-1.64-2.02a2.324,2.324,0,0,1,1.42-1.84,7.9,7.9,0,0,1,4.01-.84,9.235,9.235,0,0,1,3.79.69,7.376,7.376,0,0,1,2.5,1.8l6.43-5.85a14.286,14.286,0,0,0-2.19-1.68,18.559,18.559,0,0,0-2.85-1.49,19.2,19.2,0,0,0-3.46-1.08,18.329,18.329,0,0,0-3.89-.41,21.353,21.353,0,0,0-7,1.01,13.184,13.184,0,0,0-4.66,2.64,9.858,9.858,0,0,0-2.57,3.67,11.221,11.221,0,0,0-.79,4.1,10.827,10.827,0,0,0,.72,3.87,8.766,8.766,0,0,0,2.33,3.36,11.887,11.887,0,0,0,4.2,2.35,19.9,19.9,0,0,0,6.38.89,10.968,10.968,0,0,1,5.14.91c1.09,0.61,1.63,1.28,1.63,2.02a2.3,2.3,0,0,1-1.42,1.84,7.887,7.887,0,0,1-4,.84,9.285,9.285,0,0,1-3.8-.69,7.333,7.333,0,0,1-2.49-1.8l-6.43,5.85a13.705,13.705,0,0,0,2.18,1.68,19.357,19.357,0,0,0,6.31,2.57,18.4,18.4,0,0,0,3.89.41,21.416,21.416,0,0,0,7.01-1.01,13.134,13.134,0,0,0,4.65-2.64,9.758,9.758,0,0,0,2.57-3.65,11,11,0,0,0,.79-4.08,10.3,10.3,0,0,0-.74-3.88,9.208,9.208,0,0,0-2.35-3.36,11.479,11.479,0,0,0-4.2-2.38,19.769,19.769,0,0,0-6.34-.89A10.921,10.921,0,0,1,1048.15,1352.28Zm22.12-3.74h12.15v25.58l9.21-8.5v-17.08h11.67v-8.02h-33.03v8.02Zm36.39,25.58h9.55l2.69-9.55h9.07l2.69,9.55h9.6l-9.46-33.6h-9.55l4.51,16.03h-14.21Zm57.79,0.89c0.77-.05,1.54-0.11,2.33-0.19s1.54-.18,2.28-0.29a11.107,11.107,0,0,0,1.82-.41h6.58v-19.78h-16.28l7.01,8.07v3.93a4.808,4.808,0,0,1-1.08.32c-0.43.08-.89,0.15-1.37,0.21s-0.96.11-1.44,0.15-0.89.04-1.24,0.04a11.152,11.152,0,0,1-3.92-.69,10.062,10.062,0,0,1-3.24-1.97,9.368,9.368,0,0,1-2.2-3.07,9.522,9.522,0,0,1-.82-4.01,9.388,9.388,0,0,1,.82-3.96,9.709,9.709,0,0,1,2.2-3.1,9.954,9.954,0,0,1,3.22-1.99,10.907,10.907,0,0,1,3.89-.69,9.507,9.507,0,0,1,3.6.64,7.955,7.955,0,0,1,2.73,1.85l6.44-5.85a15.571,15.571,0,0,0-5.88-3.46,22.939,22.939,0,0,0-7.42-1.2,21.294,21.294,0,0,0-7.44,1.27,18.121,18.121,0,0,0-6,3.6,16.488,16.488,0,0,0-3.98,5.59,19.1,19.1,0,0,0,0,14.55,16.666,16.666,0,0,0,3.98,5.61,17.869,17.869,0,0,0,5.98,3.63,21.086,21.086,0,0,0,7.41,1.27C1163.01,1375.08,1163.68,1375.06,1164.45,1375.01Zm18.29-34.49v33.6h28.46v-8.02H1192v-5.28h10.61l8.59-8.01h-19.25v-4.27h19.25v-8.02h-28.46Z" transform="translate(-1037.25 -1339.56)"/>
</svg>
