<svg xmlns="http://www.w3.org/2000/svg" width="178.41" height="35.53" viewBox="0 0 178.41 35.53">
  <defs>
    <style>
      .cls-1 {
        fill: #fff;
        fill-rule: evenodd;
      }
    </style>
  </defs>
  <path id="_story_" data-name=" story " class="cls-1" d="M1046.91,1184.28c-1.08-.61-1.63-1.28-1.63-2.02a2.3,2.3,0,0,1,1.42-1.84,7.9,7.9,0,0,1,4.01-.84,9.267,9.267,0,0,1,3.79.69,7.333,7.333,0,0,1,2.49,1.8l6.44-5.85a14.286,14.286,0,0,0-2.19-1.68,19.116,19.116,0,0,0-6.31-2.57,18.329,18.329,0,0,0-3.89-.41,21.416,21.416,0,0,0-7.01,1.01,13.134,13.134,0,0,0-4.65,2.64,9.745,9.745,0,0,0-2.57,3.67,11.221,11.221,0,0,0-.79,4.1,10.827,10.827,0,0,0,.72,3.87,8.658,8.658,0,0,0,2.33,3.36,11.887,11.887,0,0,0,4.2,2.35,19.859,19.859,0,0,0,6.38.89,10.968,10.968,0,0,1,5.14.91c1.08,0.61,1.63,1.28,1.63,2.02a2.3,2.3,0,0,1-1.42,1.84,7.9,7.9,0,0,1-4.01.84,9.267,9.267,0,0,1-3.79-.69,7.333,7.333,0,0,1-2.49-1.8l-6.44,5.85a14.286,14.286,0,0,0,2.19,1.68,19.116,19.116,0,0,0,6.31,2.57,18.329,18.329,0,0,0,3.89.41,21.416,21.416,0,0,0,7.01-1.01,13.134,13.134,0,0,0,4.65-2.64,9.758,9.758,0,0,0,2.57-3.65,11,11,0,0,0,.79-4.08,10.494,10.494,0,0,0-.74-3.88,9.208,9.208,0,0,0-2.35-3.36,11.647,11.647,0,0,0-4.2-2.38,19.769,19.769,0,0,0-6.34-.89A10.968,10.968,0,0,1,1046.91,1184.28Zm22.13-3.74h12.15v25.58l9.21-8.5v-17.08h11.67v-8.02h-33.03v8.02Zm37.66,16.03a16.006,16.006,0,0,0,3.6,5.61,15.812,15.812,0,0,0,5.59,3.63,21.443,21.443,0,0,0,14.54,0,16.117,16.117,0,0,0,5.62-3.63,15.913,15.913,0,0,0,3.62-5.61,21.314,21.314,0,0,0,0-14.55,15.742,15.742,0,0,0-3.62-5.59,16.335,16.335,0,0,0-5.62-3.6,21.443,21.443,0,0,0-14.54,0,16.021,16.021,0,0,0-5.59,3.6,15.833,15.833,0,0,0-3.6,5.59A21.472,21.472,0,0,0,1106.7,1196.57Zm10.13-14.31a7.512,7.512,0,0,1,6.26-2.68,9.218,9.218,0,0,1,3.7.69,7.465,7.465,0,0,1,2.68,1.99,8.638,8.638,0,0,1,1.66,3.1,13.4,13.4,0,0,1,.55,3.96,13.6,13.6,0,0,1-.55,4.01,8.339,8.339,0,0,1-1.66,3.07,7.532,7.532,0,0,1-2.68,1.97,9.218,9.218,0,0,1-3.7.69,7.528,7.528,0,0,1-6.26-2.66A12.749,12.749,0,0,1,1116.83,1182.26Zm37.65,23.86v-11.09h8.55l6.91,11.09h9.21l-7.58-12.1a11.287,11.287,0,0,0,2.93-1.8,9.94,9.94,0,0,0,2.06-2.44,12.2,12.2,0,0,0,1.25-2.88,11.156,11.156,0,0,0,.43-3.1,12,12,0,0,0-.74-4.13,10.478,10.478,0,0,0-2.26-3.6,11.593,11.593,0,0,0-3.77-2.57,13.2,13.2,0,0,0-5.28-.98h-20.92l6.72,8.02h12.81a4.58,4.58,0,0,1,3.22.98,3,3,0,0,1,1.05,2.23,3.074,3.074,0,0,1-1.05,2.26,4.536,4.536,0,0,1-3.22,1.01h-10.75l-8.78,8.06v11.04h9.21Zm39.5-16.03v16.03l9.22-8.5v-7.77l11.23-17.33h-11.04l-4.89,7.58-4.95-7.58h-11.04Z" transform="translate(-1036.03 -1171.56)"/>
</svg>
