<svg xmlns="http://www.w3.org/2000/svg" width="321.97" height="35.53" viewBox="0 0 321.97 35.53">
  <defs>
    <style>
      .cls-1 {
        fill: #fff;
        fill-rule: evenodd;
      }
    </style>
  </defs>
  <path id="_character_" data-name=" character " class="cls-1" d="M995.667,1260.22a15.978,15.978,0,0,0-5.568-3.46,20.184,20.184,0,0,0-7.1-1.2,19.951,19.951,0,0,0-7.272,1.27,15.658,15.658,0,0,0-9.216,9.19,21.44,21.44,0,0,0,0,14.55,16.2,16.2,0,0,0,3.6,5.61,15.856,15.856,0,0,0,5.592,3.63,19.76,19.76,0,0,0,7.248,1.27,20.609,20.609,0,0,0,6.864-1.1,16.233,16.233,0,0,0,5.424-3.17l-5.712-6.58a7.457,7.457,0,0,1-2.784,2.09,9.334,9.334,0,0,1-3.84.74,7.888,7.888,0,0,1-6.384-2.66,10.6,10.6,0,0,1-2.256-7.08,12.939,12.939,0,0,1,.576-3.96,8.945,8.945,0,0,1,1.68-3.1,7.428,7.428,0,0,1,2.712-1.99,9.228,9.228,0,0,1,3.672-.69,9.478,9.478,0,0,1,3.6.64,8,8,0,0,1,2.736,1.85Zm13.533,29.9v-14.64h14.55v14.64h9.21v-33.6h-9.26v10.94h-14.98l-8.734,8.07v14.59h9.214Zm28.08,0h9.55l2.69-9.55h9.07l2.69,9.55h9.6l-9.45-33.6h-9.56l4.52,16.03h-14.21Zm47.14,0v-11.09h8.54l6.91,11.09h9.22l-7.58-12.1a11.062,11.062,0,0,0,2.92-1.8,9.983,9.983,0,0,0,2.07-2.44,12.628,12.628,0,0,0,1.25-2.88,11.541,11.541,0,0,0,.43-3.1,11.778,11.778,0,0,0-.75-4.13,10.3,10.3,0,0,0-2.25-3.6,11.7,11.7,0,0,0-3.77-2.57,13.2,13.2,0,0,0-5.28-.98H1075.2l6.72,8.02h12.82a4.536,4.536,0,0,1,3.21.98,2.974,2.974,0,0,1,1.06,2.23,3.05,3.05,0,0,1-1.06,2.26,4.493,4.493,0,0,1-3.21,1.01h-10.75l-8.79,8.06v11.04h9.22Zm28.03,0H1122l2.69-9.55h9.07l2.69,9.55h9.6l-9.46-33.6h-9.55l4.51,16.03h-14.2Zm67.39-29.9a15.932,15.932,0,0,0-5.57-3.46,20.15,20.15,0,0,0-7.1-1.2,19.925,19.925,0,0,0-7.27,1.27,15.65,15.65,0,0,0-9.22,9.19,21.472,21.472,0,0,0,0,14.55,16.292,16.292,0,0,0,3.6,5.61,15.9,15.9,0,0,0,5.59,3.63,19.778,19.778,0,0,0,7.25,1.27,20.564,20.564,0,0,0,6.86-1.1,16.291,16.291,0,0,0,5.43-3.17l-5.71-6.58a7.494,7.494,0,0,1-2.79,2.09,9.33,9.33,0,0,1-3.84.74,7.879,7.879,0,0,1-6.38-2.66,10.574,10.574,0,0,1-2.26-7.08,12.757,12.757,0,0,1,.58-3.96,8.831,8.831,0,0,1,1.68-3.1,7.4,7.4,0,0,1,2.71-1.99,9.238,9.238,0,0,1,3.67-.69,9.435,9.435,0,0,1,3.6.64,8,8,0,0,1,2.74,1.85Zm3.36,4.32h12.14v25.58l9.22-8.5v-17.08h11.66v-8.02H1183.2v8.02Zm37.34-8.02v33.6h28.47v-8.02h-19.2v-5.28h10.61l8.59-8.01h-19.25v-4.27h19.25v-8.02h-28.47Zm42,33.6v-11.09h8.55l6.91,11.09h9.22l-7.59-12.1a11.122,11.122,0,0,0,2.93-1.8,9.94,9.94,0,0,0,2.06-2.44,12.2,12.2,0,0,0,1.25-2.88,11.156,11.156,0,0,0,.43-3.1,11.766,11.766,0,0,0-.74-4.13,10.478,10.478,0,0,0-2.26-3.6,11.547,11.547,0,0,0-3.76-2.57,13.264,13.264,0,0,0-5.28-.98h-20.93l6.72,8.02h12.81a4.563,4.563,0,0,1,3.22.98,3.009,3.009,0,0,1,1.06,2.23,3.086,3.086,0,0,1-1.06,2.26,4.52,4.52,0,0,1-3.22,1.01h-10.75l-8.78,8.06v11.04h9.21Z" transform="translate(-965.25 -1255.56)"/>
</svg>
