<svg xmlns="http://www.w3.org/2000/svg" width="158.65" height="35.53" viewBox="0 0 158.65 35.53">
  <defs>
    <style>
      .cls-1 {
        fill: #fff;
        fill-rule: evenodd;
      }
    </style>
  </defs>
  <path id="movie" class="cls-1" d="M1055.65,1109.11v-7.01l9.36,17,9.41-17v20.02h9.21v-33.6h-11.04l-7.53,13.82-7.59-13.82h-11.08v29.09Zm33.58,3.46a16.006,16.006,0,0,0,3.6,5.61,15.812,15.812,0,0,0,5.59,3.63,21.443,21.443,0,0,0,14.54,0,15.872,15.872,0,0,0,9.24-9.24,21.472,21.472,0,0,0,0-14.55,16.018,16.018,0,0,0-3.62-5.59,16.335,16.335,0,0,0-5.62-3.6,21.443,21.443,0,0,0-14.54,0,16.021,16.021,0,0,0-5.59,3.6,15.833,15.833,0,0,0-3.6,5.59A21.314,21.314,0,0,0,1089.23,1112.57Zm10.12-14.31a7.532,7.532,0,0,1,6.27-2.68,9.134,9.134,0,0,1,3.69.69,7.5,7.5,0,0,1,2.69,1.99,8.638,8.638,0,0,1,1.66,3.1,13.732,13.732,0,0,1,.55,3.96,13.934,13.934,0,0,1-.55,4.01,8.339,8.339,0,0,1-1.66,3.07,7.569,7.569,0,0,1-2.69,1.97,9.134,9.134,0,0,1-3.69.69,7.548,7.548,0,0,1-6.27-2.66A12.8,12.8,0,0,1,1099.35,1098.26Zm34.25,23.86h14.69l9.46-33.6h-9.6l-7.2,25.68-4.52-16.08h-9.6Zm37.68,0v-33.6h-9.22v33.6h9.22Zm5.28-33.6v33.6h28.46v-8.02h-19.2v-5.28h10.61l8.59-8.01h-19.24v-4.27h19.24v-8.02h-28.46Z" transform="translate(-1046.38 -1087.56)"/>
</svg>
