<svg xmlns="http://www.w3.org/2000/svg" width="670.621" height="258" viewBox="0 0 670.621 258">
  <defs>
    <style>
      .cls-1 {
        fill: #fff;
        fill-rule: evenodd;
      }
    </style>
  </defs>
  <path id="charac_ter" data-name="charac ter" class="cls-1" d="M856.8,3016.81a50.446,50.446,0,0,0-17.4-10.8,63.3,63.3,0,0,0-22.2-3.75,62.487,62.487,0,0,0-22.725,3.98,48.929,48.929,0,0,0-28.8,28.72,66.946,66.946,0,0,0,0,45.45,50.625,50.625,0,0,0,11.25,17.55,49.41,49.41,0,0,0,17.475,11.33,61.893,61.893,0,0,0,22.65,3.97,63.922,63.922,0,0,0,21.45-3.45,49.851,49.851,0,0,0,16.95-9.9l-17.85-20.55a23.168,23.168,0,0,1-8.7,6.53,29.368,29.368,0,0,1-12,2.32q-12.9,0-19.95-8.32t-7.05-22.13a40.4,40.4,0,0,1,1.8-12.37,27.767,27.767,0,0,1,5.25-9.68,22.894,22.894,0,0,1,8.475-6.22,28.633,28.633,0,0,1,11.475-2.18,29.5,29.5,0,0,1,11.25,2.03,24.756,24.756,0,0,1,8.55,5.77Zm42.3,93.45v-45.75h45.45v45.75h28.8v-105H944.4v34.2H897.6l-27.3,25.2v45.6h28.8Zm87.749,0H1016.7l8.4-29.85h28.35l8.4,29.85h30l-29.55-105h-29.85l14.1,50.1h-44.4Zm147.3,0v-34.65h26.7l21.6,34.65h28.8l-23.7-37.8a34.808,34.808,0,0,0,9.15-5.62,31.25,31.25,0,0,0,6.45-7.65,37.742,37.742,0,0,0,3.9-9,35.081,35.081,0,0,0,1.35-9.68,37.251,37.251,0,0,0-2.32-12.9,32.532,32.532,0,0,0-7.05-11.25,35.851,35.851,0,0,0-11.78-8.02,41,41,0,0,0-16.5-3.08h-65.4l21,25.05h40.05q6.75,0,10.05,3.08a9.332,9.332,0,0,1,3.3,6.97,9.541,9.541,0,0,1-3.3,7.05q-3.3,3.15-10.05,3.15h-33.6l-27.45,25.2v34.5h28.8Zm87.6,0h29.85l8.4-29.85h28.35l8.4,29.85h30l-29.55-105h-29.85l14.1,50.1h-44.4Zm210.6-93.45a50.418,50.418,0,0,0-17.4-10.8,63.291,63.291,0,0,0-22.2-3.75,62.53,62.53,0,0,0-22.73,3.98,48.929,48.929,0,0,0-28.8,28.72,67.025,67.025,0,0,0,0,45.45,50.682,50.682,0,0,0,11.25,17.55,49.457,49.457,0,0,0,17.48,11.33,61.9,61.9,0,0,0,22.65,3.97,63.913,63.913,0,0,0,21.45-3.45,49.841,49.841,0,0,0,16.95-9.9l-17.85-20.55a23.145,23.145,0,0,1-8.7,6.53,29.362,29.362,0,0,1-12,2.32q-12.9,0-19.95-8.32t-7.05-22.13a40.4,40.4,0,0,1,1.8-12.37,27.8,27.8,0,0,1,5.25-9.68,22.9,22.9,0,0,1,8.47-6.22,28.665,28.665,0,0,1,11.48-2.18,29.5,29.5,0,0,1,11.25,2.03,24.756,24.756,0,0,1,8.55,5.77ZM761.7,3180.31h37.95v79.95l28.8-26.55v-53.4H864.9v-25.05H761.7v25.05Zm116.7-25.05v105h88.95v-25.05h-60v-16.5H940.5l26.85-25.05H907.2v-13.35h60.15v-25.05H878.4Zm131.247,105v-34.65h26.7l21.6,34.65h28.8l-23.7-37.8a34.808,34.808,0,0,0,9.15-5.62,31.25,31.25,0,0,0,6.45-7.65,37.742,37.742,0,0,0,3.9-9,35.081,35.081,0,0,0,1.35-9.68,37.019,37.019,0,0,0-2.32-12.9,32.385,32.385,0,0,0-7.05-11.25,35.851,35.851,0,0,0-11.78-8.02,41,41,0,0,0-16.5-3.08h-65.4l21,25.05h40.05q6.75,0,10.05,3.08a9.332,9.332,0,0,1,3.3,6.97,9.541,9.541,0,0,1-3.3,7.05q-3.3,3.15-10.05,3.15h-33.6l-27.447,25.2v34.5h28.8Z" transform="translate(-761.719 -3002.25)"/>
</svg>
