<svg xmlns="http://www.w3.org/2000/svg" width="543.59" height="111" viewBox="0 0 543.59 111">
  <defs>
    <style>
      .cls-1 {
        fill: #fff;
        fill-rule: evenodd;
      }
    </style>
  </defs>
  <path id="stage" class="cls-1" d="M1675.54,4293.18q-5.1-2.85-5.1-6.3,0-3.15,4.42-5.77t12.53-2.63a28.668,28.668,0,0,1,11.85,2.18,22.377,22.377,0,0,1,7.8,5.62l20.1-18.3a46.122,46.122,0,0,0-6.83-5.25,59.584,59.584,0,0,0-8.92-4.65,60.713,60.713,0,0,0-10.8-3.37,56.9,56.9,0,0,0-12.15-1.28q-12.9,0-21.9,3.15a41.441,41.441,0,0,0-14.55,8.25,30.577,30.577,0,0,0-8.03,11.48,35.162,35.162,0,0,0-2.47,12.82,33.786,33.786,0,0,0,2.25,12.08,27.111,27.111,0,0,0,7.27,10.5,37.1,37.1,0,0,0,13.13,7.35q8.1,2.775,19.95,2.77,10.95,0,16.05,2.85t5.1,6.3q0,3.15-4.43,5.78t-12.52,2.62a28.675,28.675,0,0,1-11.85-2.17,22.4,22.4,0,0,1-7.8-5.63l-20.1,18.3a46.005,46.005,0,0,0,6.82,5.25,59.71,59.71,0,0,0,8.93,4.65,61.546,61.546,0,0,0,10.8,3.38,57.553,57.553,0,0,0,12.15,1.27q12.9,0,21.9-3.15a41.441,41.441,0,0,0,14.55-8.25,30.682,30.682,0,0,0,8.02-11.4,34.62,34.62,0,0,0,2.48-12.75,32.611,32.611,0,0,0-2.33-12.15,28.671,28.671,0,0,0-7.35-10.5,36.384,36.384,0,0,0-13.12-7.42q-8.1-2.775-19.8-2.78Q1680.64,4296.03,1675.54,4293.18Zm69.15-11.7h37.95v79.95l28.8-26.55v-53.4h36.45v-25.05h-103.2v25.05Zm113.69,79.95h29.85l8.4-29.85h28.35l8.4,29.85h30l-29.55-105h-29.85l14.1,50.1h-44.4Zm180.6,2.78c2.4-.15,4.83-0.36,7.28-0.6q3.675-.39,7.12-0.9a36.2,36.2,0,0,0,5.7-1.28h20.55v-61.8h-50.85l21.9,25.2v12.3a15.17,15.17,0,0,1-3.37.98c-1.35.25-2.78,0.47-4.28,0.67s-3,.35-4.5.45-2.8.15-3.9,0.15a34.364,34.364,0,0,1-12.22-2.17,31.1,31.1,0,0,1-10.13-6.15,29.122,29.122,0,0,1-6.9-9.6,30.015,30.015,0,0,1-2.55-12.53,29.6,29.6,0,0,1,2.55-12.37,29.983,29.983,0,0,1,6.9-9.68,30.591,30.591,0,0,1,10.05-6.22,33.792,33.792,0,0,1,12.15-2.18,29.5,29.5,0,0,1,11.25,2.03,24.618,24.618,0,0,1,8.55,5.77l20.1-18.3a48.763,48.763,0,0,0-18.37-10.8,71.5,71.5,0,0,0-23.18-3.75,66.793,66.793,0,0,0-23.25,3.98,56.168,56.168,0,0,0-18.75,11.25,51.613,51.613,0,0,0-12.45,17.47,59.63,59.63,0,0,0,0,45.45,52.428,52.428,0,0,0,12.45,17.55,55.713,55.713,0,0,0,18.68,11.33,66.367,66.367,0,0,0,23.17,3.97Q2035.38,4364.43,2038.98,4364.21Zm57.15-107.78v105h88.95v-25.05h-60v-16.5h33.15l26.85-25.05h-60.15v-13.35h60.15v-25.05h-88.95Z" transform="translate(-1641.5 -4253.44)"/>
</svg>
