<svg xmlns="http://www.w3.org/2000/svg" width="115.13" height="20.44" viewBox="0 0 115.13 20.44">
  <defs>
    <style>
      .cls-1 {
        fill: #fff;
        fill-rule: evenodd;
      }
    </style>
  </defs>
  <path id="マドフムイ" class="cls-1" d="M2580.15,1399.11h-19.61l0.53,4.17h13.68l-4.08,8.09-1.58-2.71h-4.44l6.72,8.55h2.76l-1.92-3.24,7.36-10.69Zm23.21-.43h-1.92l-0.34,2.95h1.83Zm-2.52,0h-1.95l-0.16,2.95h1.68Zm1.51,9.86-11.5-4.15-0.04-6.22h-5.33l3.05,19.25h2.4l-0.05-8.57,10.99,2.64Zm25.7-8.81h-19.17l0.55,4.32h13.15l-5.95,13.25h2.69l7.92-13.1Zm23.07,14.84-1.66-7.54h-3.89l2.64,7.49h-11.4l6.27-16.04h-5.4l-3.96,15.97,0.38,2.61,16.75,0.03Zm24.55-17.21-18.74,9,0.6,3.5,7.27-2.78,1.03,10.7h2.11l1.13-12.36,6-2.3Z" transform="translate(-2560.53 -1397.34)"/>
</svg>
