<svg xmlns="http://www.w3.org/2000/svg" width="295.81" height="79.68" viewBox="0 0 295.81 79.68">
  <defs>
    <style>
      .cls-1 {
        fill: #fff;
        fill-rule: evenodd;
      }
    </style>
  </defs>
  <path id="牢獄の先にあるものは_服従か_自由か_" data-name="牢獄の先にあるものは 服従か、自由か。" class="cls-1" d="M1809.44,1143.26v5.47h-9.42a16.919,16.919,0,0,1-2.49-.21l0.32,1.13a15.049,15.049,0,0,1,2.17-.18h9.42c-0.01,2.66-.04,4.99-0.09,7.01-0.02.66-.03,1.05-0.03,1.15a0.705,0.705,0,0,0,.84.75c0.84,0,1.26-.3,1.26-0.89,0-.03-0.02-0.71-0.05-2.04-0.03-1.76-.06-3.75-0.07-5.98h11.79c0.26,0,.38-0.09.38-0.29a1.975,1.975,0,0,0-.77-0.88,8.025,8.025,0,0,0-1.77-1.23,6.217,6.217,0,0,0-1.65,1.66h-7.98v-5.47h8.97c0.26,0,.39-0.08.39-0.26a1.7,1.7,0,0,0-.72-0.83,6.215,6.215,0,0,0-1.71-1.21,6.375,6.375,0,0,0-1.55,1.56h-5.38v-3.55a1.364,1.364,0,0,0,1-.77,0.514,0.514,0,0,0-.46-0.39,24.814,24.814,0,0,0-2.55-.39q0.15,1.23.15,5.1h-5.27c0.54-.88,1.01-1.72,1.4-2.52,0.79-.05,1.18-0.24,1.18-0.57a0.562,0.562,0,0,0-.43-0.39c-0.24-.09-1.01-0.34-2.31-0.73a18.094,18.094,0,0,1-1.04,3.01,23.812,23.812,0,0,1-3.75,5.85,0.161,0.161,0,0,0-.03.09,0.215,0.215,0,0,0,.25.24,0.145,0.145,0,0,0,.07-0.02,17.758,17.758,0,0,0,4.17-4.22h5.76Zm-8.64-9.2a0.147,0.147,0,0,0-.16-0.13,0.141,0.141,0,0,0-.16.13,4.223,4.223,0,0,1-2.05,3.51,1.392,1.392,0,0,0-.93,1.23,1.044,1.044,0,0,0,.27.7,0.919,0.919,0,0,0,.73.35,2.019,2.019,0,0,0,1.61-.89,4.807,4.807,0,0,0,.88-2.8h19.04a20.279,20.279,0,0,1-1.07,2.88,0.249,0.249,0,0,0-.01.08,0.146,0.146,0,0,0,.17.16,0.326,0.326,0,0,0,.14-0.04,19.059,19.059,0,0,0,2.03-1.81,1.341,1.341,0,0,1,.92-0.39,4.126,4.126,0,0,0,.88-0.13,0.4,0.4,0,0,0,.27-0.41,1.987,1.987,0,0,0-.66-0.94,4.481,4.481,0,0,0-1.58-1.23,3.788,3.788,0,0,0-1.21,1.08h-8.73v-2.34a1.5,1.5,0,0,0,1.09-.85,0.511,0.511,0,0,0-.44-0.43,17.1,17.1,0,0,0-2.68-.41,16.842,16.842,0,0,1,.14,2.16v1.87h-8.3a13.265,13.265,0,0,0-.19-1.35h0Zm30.45,8.4a26.018,26.018,0,0,1-5.12,7.7,0.122,0.122,0,0,0-.03.09,0.205,0.205,0,0,0,.23.24,0.145,0.145,0,0,0,.07-0.02,17.357,17.357,0,0,0,5.1-5.29q0.09,1.62.09,3.21a25.223,25.223,0,0,1-.6,6.37,3.35,3.35,0,0,1-.43,1.03,0.813,0.813,0,0,1-.68.32,17.637,17.637,0,0,1-2.86-.4c-0.1-.01-0.15.04-0.15,0.18a0.18,0.18,0,0,0,.12.19,6.792,6.792,0,0,1,1.66.76,1.67,1.67,0,0,1,.6,1,0.433,0.433,0,0,0,.48.39,2.8,2.8,0,0,0,2.61-2.09,20.712,20.712,0,0,0,.96-7.27,27.815,27.815,0,0,0-2.02-11.33,22.623,22.623,0,0,0,2.98-4.11q1.17,0,1.17-.45c0-.27-0.79-0.76-2.38-1.45a10.342,10.342,0,0,1-1.23,2.86q-0.195.375-1.17,1.89a15.653,15.653,0,0,0-2.94-3.84,0.122,0.122,0,0,0-.09-0.03c-0.18,0-.26.07-0.26,0.2a0.16,0.16,0,0,0,.03.08,16.17,16.17,0,0,1,2.57,4.55,21.18,21.18,0,0,1-3.45,3.78,0.138,0.138,0,0,0-.05.09,0.225,0.225,0,0,0,.25.26,0.127,0.127,0,0,0,.06-0.01,19.57,19.57,0,0,0,3.65-2.89,25.839,25.839,0,0,1,.83,3.99h0Zm18.91,9.39a18.781,18.781,0,0,0,2.49,5.7,1,1,0,0,0,.5.48,0.362,0.362,0,0,0,.31-0.26,1.522,1.522,0,0,1,1.29-1.18,0.172,0.172,0,0,0,.2-0.2,0.211,0.211,0,0,0-.05-0.13,13.352,13.352,0,0,1-3.3-4.65,34.188,34.188,0,0,1-2.49-10.44h4.98c0.25,0,.38-0.09.38-0.26a1.328,1.328,0,0,0-.51-0.8,1.37,1.37,0,0,0-2.7.31h-2.3c0.08-1.8.13-3.37,0.15-4.69l0.03-2.46a1.1,1.1,0,0,0,.86-0.66c0-.33-0.93-0.6-2.78-0.8a41.167,41.167,0,0,1,.15,4.29q0,1.77-.06,4.32h-1.17a14.151,14.151,0,0,1-2.22-.2l0.27,1.12a16.323,16.323,0,0,1,1.95-.17h1.14a35.869,35.869,0,0,1-1.6,10.11,19.674,19.674,0,0,1-3.75,6.69,0.091,0.091,0,0,0-.03.07,0.242,0.242,0,0,0,.27.28,0.046,0.046,0,0,0,.05-0.03,16.19,16.19,0,0,0,5.06-7.28,29.139,29.139,0,0,0,1.46-7.61,47.3,47.3,0,0,0,1.42,8.45h0Zm-9.24,3.89a0.585,0.585,0,0,0,.69.63c0.68,0,1.02-.25,1.02-0.77l-0.08-4v-1.5a1.453,1.453,0,0,0,.71-0.71,1.175,1.175,0,0,0-.51-0.69,3.053,3.053,0,0,0-1.02-.66,2.758,2.758,0,0,0-.99.86h-3.48a13.2,13.2,0,0,0-2.01-.96,40.412,40.412,0,0,1,.15,4.14l-0.09,4.75a0.589,0.589,0,0,0,.72.6q1.02,0,1.02-.69v-1.35h3.87v0.35Zm-3.87-1.09v-5h3.87v5h-3.87Zm14.58-17.17a0.877,0.877,0,0,0,.75.95c0.59,0,.89-0.4.89-1.2a2.4,2.4,0,0,0-.66-1.54,5.485,5.485,0,0,0-2.18-1.45,0.2,0.2,0,0,0-.08-0.01,0.133,0.133,0,0,0-.16.14,0.16,0.16,0,0,0,.03.08,6.209,6.209,0,0,1,1.41,3.03h0Zm-14.2-2.55h5.81a0.306,0.306,0,0,0,.38-0.29,0.974,0.974,0,0,0-.49-0.66,5.478,5.478,0,0,0-1.37-.97,3.4,3.4,0,0,0-1.15,1.17h-3.18a12.074,12.074,0,0,1-2.03-.2l0.29,1.1a11.16,11.16,0,0,1,1.74-.15h0Zm-1.4,3.69h8.61c0.26,0,.38-0.09.38-0.26a1.037,1.037,0,0,0-.51-0.66,4.55,4.55,0,0,0-1.41-1.03,3.758,3.758,0,0,0-1.23,1.2h-5.84a14,14,0,0,1-2.13-.17l0.36,1.07c0.86-.1,1.46-0.15,1.77-0.15h0Zm1.02,3.62h5.88q0.39,0,.39-0.27a0.833,0.833,0,0,0-.42-0.57,5.334,5.334,0,0,0-1.38-.99,3.1,3.1,0,0,0-1.11,1.08h-3.36a9.656,9.656,0,0,1-1.99-.2l0.31,1.12a12.967,12.967,0,0,1,1.68-.17h0Zm0.09,3.72h6.02c0.27,0,.4-0.09.4-0.26a0.818,0.818,0,0,0-.43-0.58,6.572,6.572,0,0,0-1.37-.99,3.811,3.811,0,0,0-1.12,1.08h-3.5a11.436,11.436,0,0,1-1.98-.2l0.3,1.12a12.059,12.059,0,0,1,1.68-.17h0Zm33.78-8.72q0.42,0,.81.03a8.733,8.733,0,0,1,5.39,1.99,7.223,7.223,0,0,1,2.53,5.78,7.837,7.837,0,0,1-3.09,6.3,16.174,16.174,0,0,1-7.66,3.17,0.526,0.526,0,0,0-.51.49c0,0.22.14,0.33,0.44,0.33h0.07a17.312,17.312,0,0,0,8.17-2.34q4.56-2.745,4.56-7.44a8.756,8.756,0,0,0-2.52-6.37,10.305,10.305,0,0,0-7.75-2.99,12.208,12.208,0,0,0-8.7,3.24,9.84,9.84,0,0,0-3.27,7.44,7.178,7.178,0,0,0,1.06,3.95,2.906,2.906,0,0,0,2.4,1.57c0.88,0,1.86-.67,2.96-2.01a27.242,27.242,0,0,0,4.32-7.95,10.465,10.465,0,0,0,.57-2.95,4.018,4.018,0,0,0-.6-2.21c0.25-.02.53-0.03,0.82-0.03h0Zm-1.39,1.41a6.487,6.487,0,0,1-.43,2.15,26.493,26.493,0,0,1-4.13,7.87c-0.88,1.16-1.58,1.74-2.11,1.74a1.621,1.621,0,0,1-1.4-1.02,6.52,6.52,0,0,1-.72-3.04,8.17,8.17,0,0,1,2.43-5.93,10.56,10.56,0,0,1,6.01-3.03,1.774,1.774,0,0,1,.35,1.26h0Zm20.14,5.58a16.818,16.818,0,0,1-2.39-.2l0.3,1.12a12.6,12.6,0,0,1,2.13-.17h5.91a18.108,18.108,0,0,1-1.17,6.41,10.352,10.352,0,0,1-2.52,3.55,16.522,16.522,0,0,1-4.97,2.99,0.108,0.108,0,0,0-.07.11c0,0.24.08,0.34,0.25,0.31q6.36-1.59,8.71-5.81a17.067,17.067,0,0,0,1.75-7.56h4.52v6.41l-0.06,3.55a2.362,2.362,0,0,0,.94,2.14c0.73,0.47,2.27.7,4.61,0.7a19.421,19.421,0,0,0,4.63-.37c1.02-.19,1.53-0.62,1.53-1.28a0.666,0.666,0,0,0-.46-0.72,0.823,0.823,0,0,1-.55-0.81c-0.01-.14-0.02-0.3-0.02-0.48,0-.29.02-1.13,0.06-2.51a0.158,0.158,0,0,0-.19-0.16,0.187,0.187,0,0,0-.18.1c-0.62,2.27-1.14,3.59-1.55,3.97-0.37.33-1.47,0.49-3.29,0.49a9.817,9.817,0,0,1-2.88-.27,1.071,1.071,0,0,1-.7-1.14v-9.62h9.36c0.27,0,.4-0.09.4-0.27a1.861,1.861,0,0,0-.78-0.93,6.878,6.878,0,0,0-1.74-1.23,6.776,6.776,0,0,0-1.72,1.68h-8.27v-6.03h9.28c0.29,0,.43-0.1.43-0.3a1.654,1.654,0,0,0-.72-0.83,6.422,6.422,0,0,0-1.65-1.15,6.076,6.076,0,0,0-1.53,1.53h-5.81v-4.29a1.317,1.317,0,0,0,1.04-.78,0.53,0.53,0,0,0-.44-0.44,16.537,16.537,0,0,0-2.64-.44,40.959,40.959,0,0,1,.15,4.35v1.6h-5.67a23.289,23.289,0,0,0,1.46-3.21c0.73-.12,1.09-0.32,1.09-0.6q0-.48-2.79-1.14a16.1,16.1,0,0,1-.82,3.21,20,20,0,0,1-4.2,6.84,0.133,0.133,0,0,0-.03.08,0.212,0.212,0,0,0,.24.24,0.185,0.185,0,0,0,.07-0.02,15.454,15.454,0,0,0,4.52-4.65h6.13v6.03h-9.7Zm41.75-3.13a0.691,0.691,0,0,0-.18.42c0,0.16.11,0.23,0.33,0.23a0.628,0.628,0,0,0,.39-0.23,14.935,14.935,0,0,1,2.75-2.18,3.858,3.858,0,0,1,1.86-.49l2.11,0.09a0.771,0.771,0,0,0,.93-0.8c0-.76-0.8-1.15-2.41-1.15a15.48,15.48,0,0,0-8.42,2.2,0.626,0.626,0,0,0-.36.51,0.279,0.279,0,0,0,.33.3,0.842,0.842,0,0,0,.35-0.12,17.087,17.087,0,0,1,4.41-1.39h0.08c0.07,0,.11.02,0.11,0.06a0.333,0.333,0,0,1-.08.16,22.659,22.659,0,0,0-2.2,2.39h0Zm-2.92,4.68a6.6,6.6,0,0,0-.55,2.63,4.433,4.433,0,0,0,1.68,3.72q1.92,1.545,6.71,1.55a16.222,16.222,0,0,0,4.26-.4,0.894,0.894,0,0,0,.78-0.86c0-.66-0.6-1-1.8-1a4.586,4.586,0,0,0-1.2.15,15.217,15.217,0,0,1-3.5.37,8.493,8.493,0,0,1-4.6-1.03,3.373,3.373,0,0,1-1.44-3.02,10.432,10.432,0,0,1,.22-1.95,0.664,0.664,0,0,0,.01-0.13,0.223,0.223,0,0,0-.24-0.26,0.371,0.371,0,0,0-.33.23h0Zm-5.9,5.1a0.3,0.3,0,0,1-.26.25c-0.11,0-.19-0.14-0.25-0.42a11.956,11.956,0,0,1-.18-2.35,20.889,20.889,0,0,1,.46-4.11,22.655,22.655,0,0,1,1.07-3.93,2.765,2.765,0,0,1,.57-1.01,1.556,1.556,0,0,0,.42-1.14,3.185,3.185,0,0,0-.75-1.98c-0.81-1.07-1.5-1.6-2.08-1.6a0.236,0.236,0,0,0-.26.27,0.7,0.7,0,0,0,.23.45,2.7,2.7,0,0,1,.94,1.92,11.451,11.451,0,0,1-.42,2.11,36.43,36.43,0,0,0-1.44,8.96,15.557,15.557,0,0,0,1.06,5.95,1.39,1.39,0,0,0,1.17,1.08,0.634,0.634,0,0,0,.66-0.77l-0.1-1.72a10.776,10.776,0,0,1,.39-2.06c0.36-1.51.87-3.33,1.51-5.47a1.488,1.488,0,0,0,.06-0.3,0.273,0.273,0,0,0-.34-0.27,0.434,0.434,0,0,0-.39.35q-0.615,1.635-2.07,5.79h0Zm42.36-8.64a0.875,0.875,0,0,0-.29-0.63,3.266,3.266,0,0,0-2.15-1.35c-0.34,0-.52.06-0.52,0.18a0.412,0.412,0,0,0,.3.3,1.432,1.432,0,0,1,.89,1.26,2.506,2.506,0,0,1-.04.55,15.623,15.623,0,0,0-5.23,1.11,37.643,37.643,0,0,1,.57-4.59q1.935-.3,4.29-0.9a24.392,24.392,0,0,0,2.97-1.03,0.8,0.8,0,0,0,.55-0.78,0.735,0.735,0,0,0-.9-0.74,3.642,3.642,0,0,0-1.42.42,23.935,23.935,0,0,1-5.21,1.64c0.18-.86.32-1.43,0.42-1.73a1.624,1.624,0,0,1,.47-0.73,1,1,0,0,0,.48-0.72,1.975,1.975,0,0,0-1.11-1.29,4.037,4.037,0,0,0-2.21-.68,1.335,1.335,0,0,0-.66.19,0.627,0.627,0,0,0-.4.38c0,0.14.14,0.23,0.4,0.26,1.05,0.14,1.58.58,1.58,1.33a5.778,5.778,0,0,1-.09.93c-0.04.31-.09,0.68-0.16,1.1-0.08.54-.13,0.95-0.17,1.21a14.792,14.792,0,0,1-1.95.12,6.828,6.828,0,0,1-2.02-.24,4.034,4.034,0,0,1-1.56-.93,0.475,0.475,0,0,0-.36-0.15,0.236,0.236,0,0,0-.27.26,0.99,0.99,0,0,0,.3.66,4.923,4.923,0,0,0,3.97,1.66q0.75,0,1.71-.09-0.42,3.3-.51,4.95a14.964,14.964,0,0,0-4.5,3.05,7.051,7.051,0,0,0-2.46,4.92q0,2.49,1.89,2.49a6.1,6.1,0,0,0,2.64-.76,14.206,14.206,0,0,0,3.23-2.26,6.541,6.541,0,0,0,.63,1.22,1.1,1.1,0,0,0,.85.54,0.664,0.664,0,0,0,.69-0.8,1.719,1.719,0,0,0-.17-0.75,15.064,15.064,0,0,1-.74-1.35,33.6,33.6,0,0,0,5.26-6.36c0.07-.11.15-0.24,0.24-0.36,0.09-.14.16-0.23,0.19-0.27a5.943,5.943,0,0,1,3.54,1.23,4.5,4.5,0,0,1,1.67,3.71,6.084,6.084,0,0,1-2.87,5,19.1,19.1,0,0,1-7.6,2.95,0.414,0.414,0,0,0-.4.41,0.378,0.378,0,0,0,.47.37h0.08a20.692,20.692,0,0,0,7.74-2.06q4.53-2.34,4.53-6.3a5.4,5.4,0,0,0-1.84-4.16,8.116,8.116,0,0,0-4.82-2.03,0.863,0.863,0,0,0,.08-0.36h0Zm-2.21,1.27a27.366,27.366,0,0,1-4.5,5.79,24.351,24.351,0,0,1-.36-4.19v-0.47a14.732,14.732,0,0,1,4.86-1.13h0ZM1952,1153q-0.84,0-.84-1.17a5.8,5.8,0,0,1,1.63-3.64,11.9,11.9,0,0,1,3.81-3.01v0.44a23.845,23.845,0,0,0,.45,4.79c-2.27,1.73-3.96,2.59-5.05,2.59h0Zm39.76-.39a4.981,4.981,0,0,0-3.64-1.6,3.125,3.125,0,0,0-1.92.57,2.135,2.135,0,0,0-.89,1.81,2.629,2.629,0,0,0,1.3,2.21,7.738,7.738,0,0,0,4.34,1.05,9.133,9.133,0,0,0,5.29-1.56,6.148,6.148,0,0,0,2.84-5.31,5.676,5.676,0,0,0-1.3-3.76,6.643,6.643,0,0,0-5.42-2.16,11.26,11.26,0,0,0-6.3,2.32l-0.06-.03q7.485-8.355,7.72-8.58a3.655,3.655,0,0,1,1.49-1.06,0.638,0.638,0,0,0,.57-0.63,1.835,1.835,0,0,0-1.02-1.29,2.755,2.755,0,0,0-1.47-.66,0.863,0.863,0,0,0-.63.27,1.875,1.875,0,0,1-.74.48c-1.83.54-3.17,0.9-4.03,1.1a9.416,9.416,0,0,1-1.7.23,1.941,1.941,0,0,1-1.45-.93,0.786,0.786,0,0,0-.51-0.4q-0.27,0-.27.48a2.97,2.97,0,0,0,.81,1.8,2.313,2.313,0,0,0,1.68,1.06,1.253,1.253,0,0,0,.75-0.4,3.416,3.416,0,0,1,.78-0.39c1.58-.61,3.19-1.18,4.83-1.73a0.685,0.685,0,0,1,.22-0.04c0.1,0,.15.03,0.15,0.1a0.483,0.483,0,0,1-.11.22,154.038,154.038,0,0,1-10.88,12.73,1.861,1.861,0,0,0-.6,1.14,0.911,0.911,0,0,0,.29.66,1,1,0,0,0,.71.31,0.809,0.809,0,0,0,.71-0.34,20.514,20.514,0,0,1,2.1-2.36,10.579,10.579,0,0,1,7.1-3.09,4.859,4.859,0,0,1,3.02.95,4.638,4.638,0,0,1,1.7,3.91,5.02,5.02,0,0,1-.98,2.88,5.757,5.757,0,0,1-3.11,2.28,5.24,5.24,0,0,0-1.37-2.24h0Zm-1.41,2.67a6.2,6.2,0,0,1-3-.62,1.7,1.7,0,0,1-1.07-1.44,1.208,1.208,0,0,1,.33-0.87,1.626,1.626,0,0,1,1.28-.47,3.179,3.179,0,0,1,1.98.86,4.909,4.909,0,0,1,1.62,2.4,3.478,3.478,0,0,1-1.14.14h0Zm29.53-5.59a5.632,5.632,0,0,0,1.35-.11,0.771,0.771,0,0,0,.69-0.82q0-.81-1.41-0.75a6.253,6.253,0,0,1-.64.03,15.507,15.507,0,0,1-1.62-.09q0.9-5.31,2.25-10.78a1.915,1.915,0,0,1,.57-1.14,0.817,0.817,0,0,0,.39-0.75,2.251,2.251,0,0,0-.93-1.61,3.324,3.324,0,0,0-2.16-1,2.022,2.022,0,0,0-.75.16,0.574,0.574,0,0,0-.42.41q0,0.195.51,0.3a1.59,1.59,0,0,1,1.04.54,2.033,2.033,0,0,1,.31,1.29,7.879,7.879,0,0,1-.09.88q-0.045.33-.06,0.54c-0.14.99-.37,2.27-0.68,3.87a1.522,1.522,0,0,0-1.48-.81,5.693,5.693,0,0,1-3.93-2.12,0.871,0.871,0,0,0-.48-0.43c-0.16,0-.24.12-0.24,0.37a2.729,2.729,0,0,0,.81,1.67,5.958,5.958,0,0,0,2.34,1.62q-2.61,2.16-2.61,4.19a3.564,3.564,0,0,0,.94,2.57,8.034,8.034,0,0,0,3.14,1.64,22.706,22.706,0,0,0-.12,2.43,5.559,5.559,0,0,0,1.38,4.04,4.972,4.972,0,0,0,3.75,1.39,6.982,6.982,0,0,0,4.19-1.31,5.239,5.239,0,0,0,2.24-4.41,8.457,8.457,0,0,0-1.25-4.24,11.975,11.975,0,0,0-3.62-3.91,1.361,1.361,0,0,0-.44-0.23,0.337,0.337,0,0,0-.42.33,0.656,0.656,0,0,0,.23.44q3.645,3.645,3.64,7.36a4.686,4.686,0,0,1-1.18,3.26,4.5,4.5,0,0,1-3.51,1.48q-3.81,0-3.81-3.97a24.163,24.163,0,0,1,.12-2.49,12.133,12.133,0,0,0,1.96.16h0Zm-6.37-4.65q0-1.485,1.95-2.85a3.288,3.288,0,0,1,1.71-.63,1.24,1.24,0,0,0,.94-0.27c-0.34,1.8-.71,3.96-1.09,6.47q-3.51-.63-3.51-2.72h0Zm37.41-7.8q0.42,0,.81.03a8.733,8.733,0,0,1,5.39,1.99,7.223,7.223,0,0,1,2.53,5.78,7.837,7.837,0,0,1-3.09,6.3,16.174,16.174,0,0,1-7.66,3.17,0.526,0.526,0,0,0-.51.49c0,0.22.14,0.33,0.44,0.33h0.07a17.312,17.312,0,0,0,8.17-2.34q4.56-2.745,4.56-7.44a8.756,8.756,0,0,0-2.52-6.37,10.305,10.305,0,0,0-7.75-2.99,12.208,12.208,0,0,0-8.7,3.24,9.84,9.84,0,0,0-3.27,7.44,7.178,7.178,0,0,0,1.06,3.95,2.906,2.906,0,0,0,2.4,1.57c0.88,0,1.86-.67,2.96-2.01a27.242,27.242,0,0,0,4.32-7.95,10.465,10.465,0,0,0,.57-2.95,4.018,4.018,0,0,0-.6-2.21c0.25-.02.53-0.03,0.82-0.03h0Zm-1.39,1.41a6.487,6.487,0,0,1-.43,2.15,26.493,26.493,0,0,1-4.13,7.87c-0.88,1.16-1.58,1.74-2.11,1.74a1.621,1.621,0,0,1-1.4-1.02,6.52,6.52,0,0,1-.72-3.04,8.17,8.17,0,0,1,2.43-5.93,10.56,10.56,0,0,1,6.01-3.03,1.774,1.774,0,0,1,.35,1.26h0Zm37.44,3.27a30.564,30.564,0,0,0,4.03-1.06,1.045,1.045,0,0,0,.86-0.88,0.611,0.611,0,0,0-.3-0.51,1.321,1.321,0,0,0-.75-0.21,3.026,3.026,0,0,0-1.5.34,8.745,8.745,0,0,1-.89.46,15.116,15.116,0,0,1-1.48.38c0-.95.04-1.92,0.1-2.9a1.758,1.758,0,0,1,.38-1.23,0.872,0.872,0,0,0,.37-0.66,1.7,1.7,0,0,0-1.26-1.29,4.622,4.622,0,0,0-2.06-.54,1.554,1.554,0,0,0-.78.19,0.612,0.612,0,0,0-.4.46,0.309,0.309,0,0,0,.38.31,2.608,2.608,0,0,1,1.43.35,1.5,1.5,0,0,1,.38,1.15c0.07,1.72.11,3.19,0.11,4.43a30.217,30.217,0,0,1-4.85.46,2.742,2.742,0,0,1-2.34-1.14,0.67,0.67,0,0,0-.45-0.37,0.242,0.242,0,0,0-.27.28,1.427,1.427,0,0,0,.09.44,3.158,3.158,0,0,0,3.15,2.11,32.208,32.208,0,0,0,4.7-.34l0.09,8.38a11.222,11.222,0,0,0-2.84-.34,5.5,5.5,0,0,0-3,.72,2.339,2.339,0,0,0-1.23,2.07,2.429,2.429,0,0,0,1.05,2.02,5.14,5.14,0,0,0,3.15.89,4.824,4.824,0,0,0,3.19-.97,2.856,2.856,0,0,0,1.16-2.33,26.414,26.414,0,0,1,3.41,2.29,1.555,1.555,0,0,0,.9.35,0.8,0.8,0,0,0,.82-0.95,1.289,1.289,0,0,0-.52-0.84,16.92,16.92,0,0,0-4.58-2.43q-0.255-3.765-.25-9.09h0Zm-2.04,11.92a3.216,3.216,0,0,1-2.34.76q-3.03,0-3.03-1.71a1.29,1.29,0,0,1,.73-1.14,3.755,3.755,0,0,1,1.95-.44,9.545,9.545,0,0,1,3.41.65,2.441,2.441,0,0,1-.72,1.88h0Zm-12.84-9.49a26.1,26.1,0,0,1,1.36-4.81,2.8,2.8,0,0,1,.47-1.01,1.5,1.5,0,0,0,.42-0.99,3.4,3.4,0,0,0-.6-1.95,4.647,4.647,0,0,0-1.26-1.39,1.1,1.1,0,0,0-.6-0.3,0.291,0.291,0,0,0-.35.3,0.843,0.843,0,0,0,.15.36,4.1,4.1,0,0,1,.69,2.13,10.459,10.459,0,0,1-.49,2.65,39.4,39.4,0,0,0-1.46,9.59c0,3.16.38,5.46,1.14,6.92a1.178,1.178,0,0,0,1.03.77,0.662,0.662,0,0,0,.68-0.8l-0.03-1.8a11.79,11.79,0,0,1,.27-1.54q0.09-.4,1.68-6.04a0.882,0.882,0,0,0,.06-0.29c0-.26-0.09-0.4-0.26-0.4a0.427,0.427,0,0,0-.4.34c-0.81,1.96-1.56,3.99-2.25,6.07a0.238,0.238,0,0,1-.24.17,0.6,0.6,0,0,1-.28-0.54,23.022,23.022,0,0,1-.17-3.41,20.673,20.673,0,0,1,.44-4.03h0Zm-249.9,52.25a1.309,1.309,0,0,0,.93-0.72,1.115,1.115,0,0,0-.45-0.66,4.022,4.022,0,0,0-1.29-.97,3.606,3.606,0,0,0-1.08,1.03h-8.19v-8.88h8.24a25.147,25.147,0,0,1-.51,3.96,0.99,0.99,0,0,1-.86.94,27.233,27.233,0,0,1-3.03-.28c-0.1-.02-0.15.03-0.15,0.16a0.185,0.185,0,0,0,.12.2,10.141,10.141,0,0,1,1.91.71,1.152,1.152,0,0,1,.61.88,0.376,0.376,0,0,0,.45.36,2.7,2.7,0,0,0,1.46-.39,2.791,2.791,0,0,0,1.03-1.41,24.381,24.381,0,0,0,.72-4.56,1.683,1.683,0,0,0,.86-0.82,1.1,1.1,0,0,0-.48-0.67,1.178,1.178,0,0,0-2.3.18h-7.84a13.125,13.125,0,0,0-2.15-1.09c0.12,0.89.17,4.14,0.17,9.76l-0.14,15.8a0.649,0.649,0,0,0,.77.69c0.77,0,1.15-.28,1.15-0.83l-0.03-12.04v-1.92h1.92a24.41,24.41,0,0,0,2.94,8.49,19.717,19.717,0,0,1-4.1,4.72,0.138,0.138,0,0,0-.05.09,0.256,0.256,0,0,0,.28.29,0.092,0.092,0,0,0,.06-0.01,17.994,17.994,0,0,0,4.59-3.96,17.291,17.291,0,0,0,4.29,4.21,1.7,1.7,0,0,0,.66.33,0.4,0.4,0,0,0,.36-0.31,2.3,2.3,0,0,1,.43-0.77,1.181,1.181,0,0,1,.72-0.32,0.239,0.239,0,0,0,.2-0.25,0.118,0.118,0,0,0-.09-0.12,14.976,14.976,0,0,1-5.58-4.06,25.387,25.387,0,0,0,3.45-7.76h0Zm-7.48-.57h5.67a25.983,25.983,0,0,1-2.6,7.13,22.819,22.819,0,0,1-3.07-7.13h0Zm-9.24,11.83a0.479,0.479,0,0,1-.51.57c-0.46,0-1.44-.06-2.93-0.19-0.09,0-.13.06-0.13,0.17a0.175,0.175,0,0,0,.13.2,7.21,7.21,0,0,1,1.86.56,1.1,1.1,0,0,1,.57.88,0.483,0.483,0,0,0,.5.48,2.3,2.3,0,0,0,1.32-.37,1.907,1.907,0,0,0,.99-1.78l-0.08-14.02v-7.56a1.387,1.387,0,0,0,.74-0.75,1.047,1.047,0,0,0-.48-0.63,3.589,3.589,0,0,0-1.14-.8,2.882,2.882,0,0,0-1.04.92h-3.97a19.334,19.334,0,0,0-2.16-1.11q0.15,1.92.15,7.26a91.991,91.991,0,0,1-.54,11.73,20.154,20.154,0,0,1-2.23,7.08,0.127,0.127,0,0,0-.01.06,0.232,0.232,0,0,0,.29.23,0.105,0.105,0,0,0,.1-0.04,16.654,16.654,0,0,0,3.36-6.97,27.68,27.68,0,0,0,.57-3.78h4.64v7.86Zm-4.58-8.61c0.06-.91.11-2.27,0.13-4.09,0.02-.91.03-1.58,0.04-2.03h4.41v6.12h-4.58Zm0.17-6.87v-6.09h4.41v6.09h-4.41Zm38.19,4.86a1.175,1.175,0,0,0,.95-0.69c0-.31-0.94-0.6-2.84-0.87-0.01.16-.01,0.4-0.01,0.71,0,0.57-.03,1.15-0.08,1.75q-0.48,7.425-4.38,12.04a0.06,0.06,0,0,0-.03.06,0.243,0.243,0,0,0,.28.26,0.114,0.114,0,0,0,.08-0.03,17.049,17.049,0,0,0,4.98-7.62,12.14,12.14,0,0,0,4,5.36,10.43,10.43,0,0,0,3.16,1.5,20.126,20.126,0,0,0,5.26.57c1.06,0,1.74-.01,2.02-0.03a0.557,0.557,0,0,0,.37-0.12,0.806,0.806,0,0,0,.19-0.48,1.671,1.671,0,0,1,.26-0.73,2.631,2.631,0,0,1,.82-0.63,0.208,0.208,0,0,0,.09-0.19q0-.24-0.18-0.21a21.633,21.633,0,0,1-4.58.47,17.2,17.2,0,0,1-4.72-.53v-8.49h7.16c0.29,0,.43-0.1.43-0.31a1.69,1.69,0,0,0-.66-0.78,7.165,7.165,0,0,0-1.66-1.2,7.748,7.748,0,0,0-1.55,1.54h-3.72v-6.63h8.5c0.27,0,.41-0.09.41-0.27a1.717,1.717,0,0,0-.66-0.83,4.739,4.739,0,0,0-1.66-1.15,5.924,5.924,0,0,0-1.46,1.5h-4.47a37.706,37.706,0,0,0,3.72-5.13q1.17-.075,1.17-0.48c0-.3-0.91-0.83-2.72-1.6a12.541,12.541,0,0,1-.68,2.11,42.622,42.622,0,0,1-2.3,5.1h-6.51a14.315,14.315,0,0,1-2.28-.18l0.3,1.1a10.868,10.868,0,0,1,2-.17h4.87v15.14a6.062,6.062,0,0,1-.92-0.57,11.415,11.415,0,0,1-3.7-4.73,32.832,32.832,0,0,0,.75-4.56h0Zm-4.99-4.74h0.26c0.68,0,1.02-.14,1.02-0.43,0-.22-0.82-0.76-2.47-1.61a16.583,16.583,0,0,1-1.17,2.58,26.3,26.3,0,0,1-5.63,7.21,0.105,0.105,0,0,0-.04.1,0.226,0.226,0,0,0,.22.28,0.091,0.091,0,0,0,.07-0.03,28.024,28.024,0,0,0,3.87-3.15q0,2.49-.03,3.72-0.045,4.725-.12,8c-0.02.68-.03,1.07-0.03,1.15a0.691,0.691,0,0,0,.81.75,0.915,0.915,0,0,0,1.14-.89l-0.03-8.72v-3.98a1.331,1.331,0,0,0,.92-0.72c0-.27-0.46-0.48-1.4-0.63a20.541,20.541,0,0,0,2.61-3.63h0Zm5.78-3.61c0.14,0.84.45,1.26,0.94,1.26a0.971,0.971,0,0,0,.75-0.33,1.585,1.585,0,0,0,.36-1.1,3.374,3.374,0,0,0-.8-1.95,9.312,9.312,0,0,0-2.84-2.36,0.277,0.277,0,0,0-.09-0.01c-0.17,0-.25.06-0.25,0.2a0.17,0.17,0,0,0,.01.07,8.709,8.709,0,0,1,1.92,4.22h0Zm-6.18-3.15h0.34q0.99,0,.99-0.36a0.749,0.749,0,0,0-.44-0.57,17.964,17.964,0,0,0-2.15-1.1,10.058,10.058,0,0,1-1.17,2.49,23.544,23.544,0,0,1-4.67,5.77,0.166,0.166,0,0,0-.05.12,0.212,0.212,0,0,0,.21.26,0.078,0.078,0,0,0,.04-0.03,22.514,22.514,0,0,0,6.9-6.58h0Zm47.71,10.76a11.5,11.5,0,0,0-4.67-3.58,0.942,0.942,0,0,0-.43-0.09,0.267,0.267,0,0,0-.26.33,0.4,0.4,0,0,0,.17.33,12.717,12.717,0,0,1,3.11,2.7,4.96,4.96,0,0,1,1.42,2.91,0.464,0.464,0,0,1-.42.44c-0.69.21-1.86,0.47-3.53,0.79a0.358,0.358,0,0,0-.34.36,0.315,0.315,0,0,0,.35.36h0.07c1.15-.08,2.31-0.12,3.49-0.12a1.71,1.71,0,0,1,.98.24,1.475,1.475,0,0,0,.79.2,0.917,0.917,0,0,0,.9-1.14,6.264,6.264,0,0,0-1.63-3.73h0Zm-11.88-6.58a2.085,2.085,0,0,1,.75-1,0.617,0.617,0,0,0,.42-0.6,1.8,1.8,0,0,0-1.07-1.45,4.15,4.15,0,0,0-2.17-.67,2.162,2.162,0,0,0-1.14.23,0.441,0.441,0,0,0-.23.31c0,0.15.11,0.23,0.33,0.26a2.89,2.89,0,0,1,1.26.36,1.012,1.012,0,0,1,.65.82,4,4,0,0,1-.24,1.23,37.765,37.765,0,0,1-1.37,3.56c-0.35.1-1.56,0.44-3.61,0.99a7.9,7.9,0,0,1-2.11.4,1.693,1.693,0,0,1-1.46-1.03,0.649,0.649,0,0,0-.26-0.31c-0.23,0-.34.23-0.34,0.69a3.087,3.087,0,0,0,1.11,1.97,1.856,1.856,0,0,0,1.26.57,1.083,1.083,0,0,0,.63-0.24,5.774,5.774,0,0,1,1.14-.54c1.32-.53,2.34-0.91,3.07-1.14a111.231,111.231,0,0,1-7.03,12.35,1.369,1.369,0,0,0-.27.79,0.714,0.714,0,0,0,.87.74,0.878,0.878,0,0,0,.82-0.48q3.57-6.045,7.19-13.83a7.3,7.3,0,0,1,2.37-.49c1.18,0,1.77.89,1.77,2.69a18.936,18.936,0,0,1-.83,5.27,12.309,12.309,0,0,1-2.17,4.47,1.535,1.535,0,0,1-1.11.49,1.748,1.748,0,0,1-.78-0.15,21.137,21.137,0,0,1-2.52-1.6,0.6,0.6,0,0,0-.31-0.14,0.243,0.243,0,0,0-.26.29,0.378,0.378,0,0,0,.12.28,16.763,16.763,0,0,1,1.68,1.74,2.074,2.074,0,0,1,.46.86,1,1,0,0,0,1.07.88,3.548,3.548,0,0,0,2.49-1.2,9.937,9.937,0,0,0,2.46-4.26,21.1,21.1,0,0,0,.8-3.03,17.417,17.417,0,0,0,.4-3.33q0-4.23-3.12-4.23a11.383,11.383,0,0,0-1.92.2c0.16-.36.57-1.27,1.2-2.72h0Zm17.87,14.59a10.693,10.693,0,0,1,4.63,5.23,1.512,1.512,0,0,0,1.38,1.08,1.147,1.147,0,0,0,.86-0.36,1.588,1.588,0,0,0,.43-1.13c0-1.06-.66-2.12-1.98-3.2a12.145,12.145,0,0,0-4.92-2.25,1.225,1.225,0,0,0-.19-0.02c-0.3,0-.44.09-0.44,0.27a0.433,0.433,0,0,0,.23.38h0Zm36.4-16.22a19.052,19.052,0,0,0-2.37-1.14q0.15,1.77.15,9.96l-0.15,13.21a0.68,0.68,0,0,0,.83.69c0.79,0,1.18-.28,1.18-0.85v-1.43h13.74v1.32a0.674,0.674,0,0,0,.83.68c0.78,0,1.17-.27,1.17-0.83l-0.11-13.42v-6.75a1.8,1.8,0,0,0,.83-0.87,1.331,1.331,0,0,0-.54-0.68,1.252,1.252,0,0,0-2.42.11h-8.64a25.378,25.378,0,0,0,2.3-3.06q1.11-.21,1.11-0.6a0.663,0.663,0,0,0-.51-0.47,24.276,24.276,0,0,0-2.39-.7,10.338,10.338,0,0,1-.48,2.28,19.945,19.945,0,0,1-.94,2.55h-3.59Zm-0.36,19.69v-6.27h13.74v6.27H1923.6Zm0-7.02v-5.59h13.74v5.59H1923.6Zm0-6.34v-5.58h13.74v5.58H1923.6Zm28.19-3.09a19.262,19.262,0,0,0-2.28-1.17q0.18,2.205.18,8.64c0,3.17-.06,6.89-0.18,11.13a0.68,0.68,0,0,0,.83.69c0.79,0,1.18-.29,1.18-0.86v-1.23h17.97v1.32a0.666,0.666,0,0,0,.81.68c0.8,0,1.2-.3,1.2-0.92-0.1-5.62-.15-9.42-0.15-11.38v-5.49a1.622,1.622,0,0,0,.84-0.84,1.145,1.145,0,0,0-.49-0.72,3.537,3.537,0,0,0-1.29-.9,3.967,3.967,0,0,0-1.18,1.05h-8.08v-5.95a1.341,1.341,0,0,0,1.09-.8,0.514,0.514,0,0,0-.44-0.41,17.555,17.555,0,0,0-2.68-.46c0.12,0.96.17,3.29,0.17,6.99v0.63h-7.5Zm9.36,8.61h8.34v7.84h-8.34v-7.84Zm-9.63,7.84v-7.84h7.77v7.84h-7.77Zm9.63-15.7h8.34v7.12h-8.34v-7.12Zm-9.63,7.12v-7.12h7.77v7.12h-7.77Zm50.05-2.9a11.5,11.5,0,0,0-4.67-3.58,0.942,0.942,0,0,0-.43-0.09,0.267,0.267,0,0,0-.26.33,0.4,0.4,0,0,0,.17.33,12.717,12.717,0,0,1,3.11,2.7,4.96,4.96,0,0,1,1.42,2.91,0.464,0.464,0,0,1-.42.44c-0.69.21-1.86,0.47-3.53,0.79a0.358,0.358,0,0,0-.34.36,0.315,0.315,0,0,0,.35.36h0.07c1.15-.08,2.31-0.12,3.49-0.12a1.71,1.71,0,0,1,.98.24,1.475,1.475,0,0,0,.79.2,0.917,0.917,0,0,0,.9-1.14,6.264,6.264,0,0,0-1.63-3.73h0Zm-11.88-6.58a2.085,2.085,0,0,1,.75-1,0.617,0.617,0,0,0,.42-0.6,1.8,1.8,0,0,0-1.07-1.45,4.15,4.15,0,0,0-2.17-.67,2.162,2.162,0,0,0-1.14.23,0.441,0.441,0,0,0-.23.31c0,0.15.11,0.23,0.33,0.26a2.89,2.89,0,0,1,1.26.36,1.012,1.012,0,0,1,.65.82,4,4,0,0,1-.24,1.23,37.765,37.765,0,0,1-1.37,3.56c-0.35.1-1.56,0.44-3.61,0.99a7.9,7.9,0,0,1-2.11.4,1.693,1.693,0,0,1-1.46-1.03,0.649,0.649,0,0,0-.26-0.31c-0.23,0-.34.23-0.34,0.69a3.087,3.087,0,0,0,1.11,1.97,1.856,1.856,0,0,0,1.26.57,1.083,1.083,0,0,0,.63-0.24,5.774,5.774,0,0,1,1.14-.54c1.32-.53,2.34-0.91,3.07-1.14a111.231,111.231,0,0,1-7.03,12.35,1.369,1.369,0,0,0-.27.79,0.714,0.714,0,0,0,.87.74,0.878,0.878,0,0,0,.82-0.48q3.57-6.045,7.19-13.83a7.3,7.3,0,0,1,2.37-.49c1.18,0,1.77.89,1.77,2.69a18.936,18.936,0,0,1-.83,5.27,12.309,12.309,0,0,1-2.17,4.47,1.535,1.535,0,0,1-1.11.49,1.748,1.748,0,0,1-.78-0.15,21.137,21.137,0,0,1-2.52-1.6,0.6,0.6,0,0,0-.31-0.14,0.243,0.243,0,0,0-.26.29,0.378,0.378,0,0,0,.12.28,16.763,16.763,0,0,1,1.68,1.74,2.074,2.074,0,0,1,.46.86,1,1,0,0,0,1.07.88,3.548,3.548,0,0,0,2.49-1.2,9.937,9.937,0,0,0,2.46-4.26,21.1,21.1,0,0,0,.8-3.03,17.417,17.417,0,0,0,.4-3.33q0-4.23-3.12-4.23a11.383,11.383,0,0,0-1.92.2c0.16-.36.57-1.27,1.2-2.72h0Zm18.98,14.13a3.894,3.894,0,0,0,2.61,6.77,3.692,3.692,0,0,0,2.59-1.01,3.88,3.88,0,0,0,.28-5.48,3.716,3.716,0,0,0-2.87-1.27,3.867,3.867,0,0,0-2.61.99h0Zm4.52,0.77a2.861,2.861,0,0,1,.2,4.02,2.71,2.71,0,0,1-2.11.96,2.8,2.8,0,0,1-1.92-.74,2.86,2.86,0,0,1,1.92-4.98,2.8,2.8,0,0,1,1.91.74h0Z" transform="translate(-1796.5 -1131.38)"/>
</svg>
