<svg xmlns="http://www.w3.org/2000/svg" width="495.75" height="111" viewBox="0 0 495.75 111">
  <defs>
    <style>
      .cls-1 {
        fill: #fff;
        fill-rule: evenodd;
      }
    </style>
  </defs>
  <path id="movie" class="cls-1" d="M1667.42,2003.32v-21.9l29.25,53.1,29.4-53.1v62.55h28.8v-105h-34.5l-23.55,43.2-23.7-43.2h-34.65v90.9Zm104.92,10.8a50.869,50.869,0,0,0,11.25,17.55,49.571,49.571,0,0,0,17.48,11.32,66.867,66.867,0,0,0,45.45,0,49.5,49.5,0,0,0,28.87-28.87,66.867,66.867,0,0,0,0-45.45,49.571,49.571,0,0,0-11.32-17.48,50.869,50.869,0,0,0-17.55-11.25,67.025,67.025,0,0,0-45.45,0,49.045,49.045,0,0,0-28.73,28.73A67.025,67.025,0,0,0,1772.34,2014.12Zm31.65-44.7q6.675-8.4,19.58-8.4a28.506,28.506,0,0,1,11.55,2.17,23.09,23.09,0,0,1,8.4,6.23,26.821,26.821,0,0,1,5.17,9.67,42.1,42.1,0,0,1,1.73,12.38,42.577,42.577,0,0,1-1.73,12.52,26.1,26.1,0,0,1-5.17,9.6,23.465,23.465,0,0,1-8.4,6.15,28.5,28.5,0,0,1-11.55,2.18q-12.9,0-19.58-8.33t-6.67-22.12Q1797.32,1977.82,1803.99,1969.42Zm107.03,74.55h45.9l29.55-105h-30l-22.5,80.25-14.1-50.25h-30Zm117.75,0v-105h-28.8v105h28.8Zm16.49-105v105h88.95v-25.05h-60v-16.5h33.15l26.85-25.05h-60.15v-13.35h60.15v-25.05h-88.95Z" transform="translate(-1638.47 -1935.97)"/>
</svg>
