<svg xmlns="http://www.w3.org/2000/svg" width="557.56" height="111" viewBox="0 0 557.56 111">
  <defs>
    <style>
      .cls-1 {
        fill: #fff;
        fill-rule: evenodd;
      }
    </style>
  </defs>
  <path id="story" class="cls-1" d="M1669.19,2627.61q-5.1-2.85-5.1-6.3,0-3.15,4.42-5.77t12.53-2.63a28.668,28.668,0,0,1,11.85,2.18,22.377,22.377,0,0,1,7.8,5.62l20.1-18.3a46.122,46.122,0,0,0-6.83-5.25,59.584,59.584,0,0,0-8.92-4.65,60.713,60.713,0,0,0-10.8-3.37,56.9,56.9,0,0,0-12.15-1.28q-12.9,0-21.9,3.15a41.441,41.441,0,0,0-14.55,8.25,30.577,30.577,0,0,0-8.03,11.48,35.162,35.162,0,0,0-2.47,12.82,33.786,33.786,0,0,0,2.25,12.08,27.111,27.111,0,0,0,7.27,10.5,37.1,37.1,0,0,0,13.13,7.35q8.1,2.775,19.95,2.77,10.95,0,16.05,2.85t5.1,6.3q0,3.15-4.43,5.78t-12.52,2.62a28.675,28.675,0,0,1-11.85-2.17,22.4,22.4,0,0,1-7.8-5.63l-20.1,18.3a46.005,46.005,0,0,0,6.82,5.25,59.71,59.71,0,0,0,8.93,4.65,60.716,60.716,0,0,0,10.8,3.38,56.9,56.9,0,0,0,12.15,1.27q12.9,0,21.9-3.15a41.441,41.441,0,0,0,14.55-8.25,30.682,30.682,0,0,0,8.02-11.4,34.62,34.62,0,0,0,2.48-12.75,32.611,32.611,0,0,0-2.33-12.15,28.671,28.671,0,0,0-7.35-10.5,36.384,36.384,0,0,0-13.12-7.42q-8.1-2.775-19.8-2.78Q1674.29,2630.46,1669.19,2627.61Zm69.15-11.7h37.95v79.95l28.8-26.55v-53.4h36.45v-25.05h-103.2v25.05Zm117.67,50.1a50.869,50.869,0,0,0,11.25,17.55,49.553,49.553,0,0,0,17.47,11.33,67.025,67.025,0,0,0,45.45,0,49.608,49.608,0,0,0,28.88-28.88,67.025,67.025,0,0,0,0-45.45,49.553,49.553,0,0,0-11.33-17.47,50.869,50.869,0,0,0-17.55-11.25,66.867,66.867,0,0,0-45.45,0,49.084,49.084,0,0,0-28.72,28.72A66.867,66.867,0,0,0,1856.01,2666.01Zm31.65-44.7q6.675-8.4,19.57-8.4a28.5,28.5,0,0,1,11.55,2.18,23.064,23.064,0,0,1,8.4,6.22,26.885,26.885,0,0,1,5.18,9.68,42.032,42.032,0,0,1,1.72,12.37,42.655,42.655,0,0,1-1.72,12.53,26.116,26.116,0,0,1-5.18,9.6,23.465,23.465,0,0,1-8.4,6.15,28.506,28.506,0,0,1-11.55,2.17q-12.9,0-19.57-8.32t-6.68-22.13Q1880.98,2629.71,1887.66,2621.31Zm117.67,74.55v-34.65h26.7l21.6,34.65h28.8l-23.7-37.8a34.808,34.808,0,0,0,9.15-5.62,31.25,31.25,0,0,0,6.45-7.65,37.742,37.742,0,0,0,3.9-9,35.081,35.081,0,0,0,1.35-9.68,36.978,36.978,0,0,0-2.32-12.9,32.385,32.385,0,0,0-7.05-11.25,35.851,35.851,0,0,0-11.78-8.02,41,41,0,0,0-16.5-3.08h-65.4l21,25.05h40.05q6.75,0,10.05,3.08a9.316,9.316,0,0,1,3.3,6.97,9.557,9.557,0,0,1-3.3,7.05q-3.3,3.15-10.05,3.15h-33.6l-27.45,25.2v34.5h28.8Zm123.45-50.1v50.1l28.8-26.55v-24.3l35.1-54.15h-34.5l-15.3,23.7-15.45-23.7h-34.5Z" transform="translate(-1635.13 -2587.88)"/>
</svg>
