<svg xmlns="http://www.w3.org/2000/svg" width="416.97" height="111" viewBox="0 0 416.97 111">
  <defs>
    <style>
      .cls-1 {
        fill: #fff;
        fill-rule: evenodd;
      }
    </style>
  </defs>
  <path id="spec" class="cls-1" d="M1672.19,4984.41q-5.1-2.85-5.1-6.3,0-3.15,4.43-5.77t12.52-2.63a28.668,28.668,0,0,1,11.85,2.18,22.377,22.377,0,0,1,7.8,5.62l20.1-18.3a46.005,46.005,0,0,0-6.82-5.25,59.71,59.71,0,0,0-8.93-4.65,60.713,60.713,0,0,0-10.8-3.37,56.9,56.9,0,0,0-12.15-1.28q-12.9,0-21.9,3.15a41.441,41.441,0,0,0-14.55,8.25,30.549,30.549,0,0,0-8.02,11.48,35.177,35.177,0,0,0-2.48,12.82,33.786,33.786,0,0,0,2.25,12.08,27.137,27.137,0,0,0,7.28,10.5,37.049,37.049,0,0,0,13.12,7.35q8.1,2.775,19.95,2.77,10.95,0,16.05,2.85t5.1,6.3q0,3.15-4.42,5.78t-12.53,2.62a28.675,28.675,0,0,1-11.85-2.17,22.4,22.4,0,0,1-7.8-5.63l-20.1,18.3a46.122,46.122,0,0,0,6.83,5.25,59.584,59.584,0,0,0,8.92,4.65,61.546,61.546,0,0,0,10.8,3.38,57.553,57.553,0,0,0,12.15,1.27q12.9,0,21.9-3.15a41.441,41.441,0,0,0,14.55-8.25,30.711,30.711,0,0,0,8.03-11.4,34.606,34.606,0,0,0,2.47-12.75,32.6,32.6,0,0,0-2.32-12.15,28.671,28.671,0,0,0-7.35-10.5,36.432,36.432,0,0,0-13.13-7.42q-8.1-2.775-19.8-2.78Q1677.29,4987.26,1672.19,4984.41Zm137.55,38.4a41.66,41.66,0,0,0,15.3-2.7,32.8,32.8,0,0,0,19.35-19.42,42.719,42.719,0,0,0,2.7-15.53,41.66,41.66,0,0,0-2.7-15.3,34.8,34.8,0,0,0-7.57-11.85,33.357,33.357,0,0,0-11.78-7.65,41.66,41.66,0,0,0-15.3-2.7h-65.4l21,25.05h40.05q5.85,0,9.38,3.15,3.51,3.15,3.52,9a12.112,12.112,0,0,1-12.9,12.9h-33.6l-27.45,25.2v29.7h28.8v-29.85h36.6Zm50.85-75.15v105h88.95v-25.05h-60v-16.5h33.15l26.85-25.05h-60.15v-13.35h60.15v-25.05h-88.95Zm194.55,11.55a50.121,50.121,0,0,0-17.4-10.8,67.206,67.206,0,0,0-44.92.23,48.929,48.929,0,0,0-28.8,28.72,66.867,66.867,0,0,0,0,45.45,50.58,50.58,0,0,0,11.25,17.55,49.464,49.464,0,0,0,17.47,11.33,62.113,62.113,0,0,0,22.65,3.97,63.913,63.913,0,0,0,21.45-3.45,50.167,50.167,0,0,0,16.95-9.9l-17.85-20.55a23.249,23.249,0,0,1-8.7,6.53,29.362,29.362,0,0,1-12,2.32q-12.9,0-19.95-8.32t-7.05-22.13a40.4,40.4,0,0,1,1.8-12.37,27.8,27.8,0,0,1,5.25-9.68,22.855,22.855,0,0,1,8.48-6.22,28.581,28.581,0,0,1,11.47-2.18,29.5,29.5,0,0,1,11.25,2.03,24.618,24.618,0,0,1,8.55,5.77Z" transform="translate(-1638.16 -4944.66)"/>
</svg>
