<?xml version="1.0" encoding="UTF-8"?><svg id="_レイヤー_2" xmlns="http://www.w3.org/2000/svg" xmlns:xlink="http://www.w3.org/1999/xlink" viewBox="0 0 430.4 50"><defs><style>.cls-1{fill:#000;}.cls-1,.cls-2,.cls-3{stroke-width:0px;}.cls-4{stroke:#fff;stroke-miterlimit:10;stroke-width:3px;}.cls-4,.cls-2{fill:none;}.cls-5{clip-path:url(#clippath);}.cls-3{fill:#fff;}</style><clipPath id="clippath"><rect class="cls-2" x="5" y="5" width="40" height="40" rx="4.07" ry="4.07"/></clipPath></defs><g id="_レイヤー_1-2"><rect class="cls-1" width="50" height="50"/><rect class="cls-4" x="5" y="5" width="40" height="40" rx="4.07" ry="4.07"/><g class="cls-5"><path class="cls-3" d="M18.11,4.58l5.57,5.21-10.91,7.85,4.85,4.53,9.01-9.63,5.57,5.21-18.88,20.19-5.54-5.18,5.37-5.74L1.6,16.22,18.11,4.58Z"/><path class="cls-3" d="M31.9,17.47l19.84,18.56-4.5,4.82-7.01-6.55-9.6,10.27-10.31-.07,14.38-15.37-7.3-6.82,4.5-4.82Z"/></g><path class="cls-1" d="M95.4,20.08h-25.28v16.32h-5.76v-15.12c0-3.84,3.12-6.96,6.96-6.96h24.08v5.76ZM95.4,28.24h-23.36v-5.76h23.36v5.76Z"/><path class="cls-1" d="M128.36,29.44c0,3.84-3.12,6.96-6.96,6.96h-17.12c-3.84,0-6.96-3.12-6.96-6.96v-8.16c0-3.84,3.12-6.96,6.96-6.96h17.12c3.84,0,6.96,3.12,6.96,6.96v8.16ZM122.6,30.64v-10.56h-19.52v10.56h19.52Z"/><path class="cls-1" d="M161.96,36.4h-5.76v-5.76h-17.6v-5.76h17.6v-4.8h-19.52v16.32h-5.76V14.32h24.08c3.84,0,6.96,3.12,6.96,6.96v2.4c0,1.68-.8,3.12-2,4.08,1.2.96,2,2.4,2,4.08v4.56Z"/><path class="cls-1" d="M194.6,20.08h-30.71v-5.76h30.71v5.76ZM182.12,36.4h-5.76v-14.4h5.76v14.4Z"/><path class="cls-1" d="M227.56,29.44c0,3.84-3.12,6.96-6.96,6.96h-17.12c-3.84,0-6.96-3.12-6.96-6.96v-8.16c0-3.84,3.12-6.96,6.96-6.96h17.12c3.84,0,6.96,3.12,6.96,6.96v8.16ZM221.8,30.64v-10.56h-19.52v10.56h19.52Z"/><path class="cls-1" d="M261.4,14.32v16.8c0,3.2-2.56,5.76-5.76,5.76-1.6,0-3.04-.64-4.08-1.68l-15.68-15.6v16.8h-5.76v-16.8c0-3.2,2.6-5.76,5.76-5.76,1.6,0,3,.68,4.08,1.72l15.68,15.56V14.32h5.76Z"/><path class="cls-1" d="M288.04,36.4h-24.08v-5.76h25.28v-2.4h-19.36c-3.88,0-6.96-3.12-6.96-6.96s3.08-6.96,6.96-6.96h24.08v5.76h-25.28v2.4h19.36c3.84,0,6.96,3.12,6.96,6.96s-3.12,6.96-6.96,6.96Z"/><path class="cls-1" d="M327.56,23.68c0,3.84-3.12,6.96-6.96,6.96h-16.4v-5.76h17.6v-4.8h-19.52v16.32h-5.76V14.32h24.08c3.84,0,6.96,3.12,6.96,6.96v2.4Z"/><path class="cls-1" d="M366.4,36.4h-7.32l-3.12-4.24h-16.2l4.2-5.76h7.8l-5.12-7.04-12.4,17.04h-7.32l14.72-19.72c1.2-1.56,2.92-2.84,5.04-2.84s3.84,1.28,5,2.84l14.72,19.72Z"/><path class="cls-1" d="M397.44,36.4h-24.08c-3.84,0-6.96-3.12-6.96-6.96v-8.16c0-3.84,3.12-6.96,6.96-6.96h24.08v5.76h-25.28v10.56h25.28v5.76Z"/><path class="cls-1" d="M430.4,36.4h-24.08c-3.84,0-6.96-3.12-6.96-6.96v-8.16c0-3.84,3.12-6.96,6.96-6.96h24.08v5.76h-25.28v10.56h25.28v5.76ZM430.4,28.24h-23.36v-5.76h23.36v5.76Z"/></g></svg>