<?xml version="1.0" encoding="UTF-8"?><svg id="_レイヤー_2" xmlns="http://www.w3.org/2000/svg" viewBox="0 0 225.69 36.91"><defs><style>.cls-1{fill:#000;stroke-width:0px;}</style></defs><g id="_レイヤー_1-2"><path class="cls-1" d="M8.23,35.74c-2.93-.69-5.67-1.69-8.23-3l3.55-7.78c2.18,1.02,4.42,1.81,6.74,2.35,2.32.54,4.62.82,6.89.82,1.7,0,3.08-.1,4.15-.31,1.07-.21,1.86-.51,2.38-.91.51-.4.77-.9.77-1.51,0-.8-.29-1.41-.86-1.82-.58-.42-1.34-.72-2.28-.91-.94-.19-2.33-.38-4.15-.58-3.26-.38-5.95-.83-8.06-1.34-2.11-.51-3.98-1.5-5.62-2.98-1.63-1.47-2.45-3.58-2.45-6.34,0-2.3.72-4.32,2.16-6.05s3.39-3.06,5.86-3.98c2.46-.93,5.17-1.39,8.11-1.39,2.69,0,5.38.26,8.06.77,2.69.51,5.18,1.25,7.49,2.21l-3.5,7.68c-4.1-1.63-8.11-2.45-12.05-2.45-1.66,0-2.99.07-3.98.22-.99.14-1.78.45-2.38.91-.59.46-.89,1.16-.89,2.09,0,.61.35,1.1,1.06,1.46.7.37,1.53.63,2.47.79.94.16,2.18.34,3.72.53,3.1.32,5.79.78,8.06,1.39,2.27.61,4.2,1.7,5.78,3.26,1.58,1.57,2.38,3.74,2.38,6.53,0,2.3-.74,4.32-2.21,6.05-1.47,1.73-3.44,3.05-5.9,3.96-2.46.91-5.17,1.37-8.11,1.37s-6.02-.34-8.95-1.03Z"/><path class="cls-1" d="M55.51,34.2c-2.8-1.65-5.02-3.87-6.67-6.67-1.65-2.8-2.47-5.86-2.47-9.19s.82-6.39,2.47-9.19c1.65-2.8,3.87-5.02,6.67-6.67,2.8-1.65,5.86-2.47,9.19-2.47s6.3.81,9.12,2.42c2.82,1.62,5.06,3.82,6.72,6.62,1.66,2.8,2.5,5.9,2.5,9.29s-.82,6.39-2.47,9.19c-1.65,2.8-3.87,5.02-6.67,6.67-2.8,1.65-5.86,2.47-9.19,2.47s-6.39-.82-9.19-2.47ZM69.55,26.71c1.47-.88,2.65-2.06,3.53-3.53.88-1.47,1.32-3.09,1.32-4.85s-.44-3.38-1.32-4.85c-.88-1.47-2.06-2.65-3.53-3.53-1.47-.88-3.09-1.32-4.85-1.32s-3.38.44-4.85,1.32c-1.47.88-2.65,2.06-3.53,3.53-.88,1.47-1.32,3.09-1.32,4.85s.44,3.38,1.32,4.85c.88,1.47,2.06,2.65,3.53,3.53,1.47.88,3.09,1.32,4.85,1.32s3.38-.44,4.85-1.32Z"/><path class="cls-1" d="M105.21,34.7c-2.53-1.47-4.54-3.47-6.02-6-1.49-2.53-2.23-5.28-2.23-8.26V.67h8.64v19.78c0,1.41.35,2.71,1.06,3.91.7,1.2,1.66,2.15,2.86,2.86,1.2.7,2.52,1.06,3.96,1.06s2.71-.35,3.91-1.06c1.2-.7,2.15-1.66,2.86-2.86.7-1.2,1.06-2.5,1.06-3.91V.67h8.64v19.78c0,2.98-.74,5.73-2.21,8.26-1.47,2.53-3.47,4.53-6,6-2.53,1.47-5.28,2.21-8.26,2.21s-5.73-.74-8.26-2.21Z"/><path class="cls-1" d="M171.33,36.31c-.56-.27-1.02-.62-1.37-1.03l-17.38-19.87,1.34-.48v21.26h-8.64V4.18c0-1.12.4-2.08,1.2-2.88.8-.8,1.76-1.2,2.88-1.2.61,0,1.19.13,1.75.38.56.26,1.02.61,1.37,1.06l17.38,20.35-1.34.48V.67h8.64v31.97c0,1.12-.4,2.08-1.2,2.88-.8.8-1.76,1.2-2.88,1.2-.61,0-1.19-.14-1.75-.41Z"/><path class="cls-1" d="M193.73,34.99c-.8-.8-1.2-1.76-1.2-2.88V4.75c0-1.12.38-2.08,1.15-2.88.77-.8,1.71-1.2,2.83-1.2h11.42c3.23,0,6.21.79,8.93,2.38,2.72,1.58,4.87,3.74,6.46,6.46,1.58,2.72,2.38,5.7,2.38,8.93s-.79,6.21-2.38,8.93c-1.58,2.72-3.74,4.87-6.46,6.46-2.72,1.58-5.7,2.38-8.93,2.38h-11.33c-1.12,0-2.08-.4-2.88-1.2ZM199.01,27.55h8.93c1.66,0,3.19-.41,4.58-1.22,1.39-.82,2.5-1.92,3.31-3.31.82-1.39,1.22-2.92,1.22-4.58s-.41-3.19-1.22-4.58c-.82-1.39-1.92-2.5-3.31-3.31-1.39-.82-2.92-1.22-4.58-1.22h-8.93l2.16-2.16v22.56l-2.16-2.16Z"/></g></svg>