<?xml version="1.0" encoding="UTF-8"?><svg id="_レイヤー_2" xmlns="http://www.w3.org/2000/svg" viewBox="0 0 221.47 36.77"><defs><style>.cls-1{fill:#000;stroke-width:0px;}</style></defs><g id="_レイヤー_1-2"><path class="cls-1" d="M9.14,34.2c-2.8-1.65-5.02-3.87-6.67-6.67-1.65-2.8-2.47-5.86-2.47-9.19s.82-6.39,2.47-9.19c1.65-2.8,3.87-5.02,6.67-6.67C11.94.82,15.01,0,18.34,0c2.53,0,4.93.49,7.2,1.46,2.27.98,4.26,2.34,5.95,4.1l-6.24,6c-.9-.93-1.94-1.65-3.12-2.16-1.18-.51-2.45-.77-3.79-.77-1.76,0-3.38.44-4.85,1.32-1.47.88-2.65,2.06-3.53,3.53-.88,1.47-1.32,3.09-1.32,4.85s.44,3.38,1.32,4.85c.88,1.47,2.06,2.65,3.53,3.53,1.47.88,3.09,1.32,4.85,1.32,1.38,0,2.68-.27,3.91-.82,1.23-.54,2.3-1.31,3.19-2.3l8.35,2.69.05.48c-1.63,2.59-3.82,4.67-6.58,6.24-2.75,1.57-5.73,2.35-8.93,2.35s-6.39-.82-9.19-2.47ZM25.44,18.48h8.64v8.78l-8.64,2.02v-10.8ZM32.64,27.26h1.44c0,.29-.08.56-.24.82l-1.2-.82Z"/><path class="cls-1" d="M61.37,1.01c.69-.45,1.46-.67,2.33-.67s1.57.22,2.21.67c.64.45,1.12,1.04,1.44,1.78l14.26,33.41h-9.6l-9.5-22.22h2.26l-9.5,22.22h-9.65L59.86,2.78c.32-.74.82-1.33,1.51-1.78Z"/><path class="cls-1" d="M95.28,1.44c.8-.8,1.76-1.2,2.88-1.2,1.22,0,2.26.48,3.12,1.44l12.34,14.35h-2.69l12.34-14.35c.86-.96,1.9-1.44,3.12-1.44,1.12,0,2.08.4,2.88,1.2.8.8,1.2,1.76,1.2,2.88v31.87h-8.64V14.4l1.34.48-10.9,12.72-10.9-12.72,1.34-.48v21.79h-8.64V4.32c0-1.12.4-2.08,1.2-2.88Z"/><path class="cls-1" d="M147.09,34.92c-.85-.85-1.27-1.86-1.27-3.05V4.99c0-1.18.42-2.2,1.27-3.05.85-.85,1.86-1.27,3.05-1.27h23.47v8.64h-21.31l2.16-2.16v22.56l-2.16-2.16h21.31v8.64h-23.47c-1.18,0-2.2-.42-3.05-1.27ZM152.97,14.11h19.2v8.64h-19.2v-8.64Z"/><path class="cls-1" d="M196.29,35.74c-2.93-.69-5.67-1.69-8.23-3l3.55-7.78c2.18,1.02,4.42,1.81,6.74,2.35,2.32.54,4.62.82,6.89.82,1.7,0,3.08-.1,4.15-.31,1.07-.21,1.86-.51,2.38-.91.51-.4.77-.9.77-1.51,0-.8-.29-1.41-.86-1.82-.58-.42-1.34-.72-2.28-.91-.94-.19-2.33-.38-4.15-.58-3.26-.38-5.95-.83-8.06-1.34-2.11-.51-3.98-1.5-5.62-2.98-1.63-1.47-2.45-3.58-2.45-6.34,0-2.3.72-4.32,2.16-6.05s3.39-3.06,5.86-3.98c2.46-.93,5.17-1.39,8.11-1.39,2.69,0,5.38.26,8.06.77,2.69.51,5.18,1.25,7.49,2.21l-3.5,7.68c-4.1-1.63-8.11-2.45-12.05-2.45-1.66,0-2.99.07-3.98.22-.99.14-1.78.45-2.38.91-.59.46-.89,1.16-.89,2.09,0,.61.35,1.1,1.06,1.46.7.37,1.53.63,2.47.79.94.16,2.18.34,3.72.53,3.1.32,5.79.78,8.06,1.39,2.27.61,4.2,1.7,5.78,3.26,1.58,1.57,2.38,3.74,2.38,6.53,0,2.3-.74,4.32-2.21,6.05-1.47,1.73-3.44,3.05-5.9,3.96-2.46.91-5.17,1.37-8.11,1.37s-6.02-.34-8.95-1.03Z"/></g></svg>