<?xml version="1.0" encoding="UTF-8"?><svg id="_レイヤー_2" xmlns="http://www.w3.org/2000/svg" viewBox="0 0 264.24 36.67"><defs><style>.cls-1{fill:#000;stroke-width:0px;}</style></defs><g id="_レイヤー_1-2"><path class="cls-1" d="M1.2,34.99c-.8-.8-1.2-1.76-1.2-2.88V4.75c0-1.12.38-2.08,1.15-2.88.77-.8,1.71-1.2,2.83-1.2h11.42c3.23,0,6.21.79,8.93,2.38,2.72,1.58,4.87,3.74,6.46,6.46,1.58,2.72,2.38,5.7,2.38,8.93s-.79,6.21-2.38,8.93c-1.58,2.72-3.74,4.87-6.46,6.46-2.72,1.58-5.7,2.38-8.93,2.38H4.08c-1.12,0-2.08-.4-2.88-1.2ZM6.48,27.55h8.93c1.66,0,3.19-.41,4.58-1.22,1.39-.82,2.5-1.92,3.31-3.31.82-1.39,1.22-2.92,1.22-4.58s-.41-3.19-1.22-4.58c-.82-1.39-1.92-2.5-3.31-3.31-1.39-.82-2.92-1.22-4.58-1.22H6.48l2.16-2.16v22.56l-2.16-2.16Z"/><path class="cls-1" d="M48.84,34.92c-.85-.85-1.27-1.86-1.27-3.05V4.99c0-1.18.42-2.2,1.27-3.05.85-.85,1.86-1.27,3.05-1.27h23.47v8.64h-21.31l2.16-2.16v22.56l-2.16-2.16h21.31v8.64h-23.47c-1.18,0-2.2-.42-3.05-1.27ZM54.72,14.11h19.2v8.64h-19.2v-8.64Z"/><path class="cls-1" d="M105.53,35.86c-.69-.45-1.19-1.04-1.51-1.78L89.76.67h9.36l9.5,22.22h-1.73L116.4.67h9.36l-14.26,33.41c-.32.74-.8,1.33-1.44,1.78-.64.45-1.38.67-2.21.67s-1.64-.22-2.33-.67Z"/><path class="cls-1" d="M141.43,34.92c-.85-.85-1.27-1.86-1.27-3.05V.67h8.64v29.04l-2.16-2.16h20.93v8.64h-23.09c-1.18,0-2.2-.42-3.05-1.27Z"/><path class="cls-1" d="M189.67,34.2c-2.8-1.65-5.02-3.87-6.67-6.67-1.65-2.8-2.47-5.86-2.47-9.19s.82-6.39,2.47-9.19c1.65-2.8,3.87-5.02,6.67-6.67,2.8-1.65,5.86-2.47,9.19-2.47s6.3.81,9.12,2.42c2.82,1.62,5.06,3.82,6.72,6.62,1.66,2.8,2.5,5.9,2.5,9.29s-.82,6.39-2.47,9.19c-1.65,2.8-3.87,5.02-6.67,6.67-2.8,1.65-5.86,2.47-9.19,2.47s-6.39-.82-9.19-2.47ZM203.71,26.71c1.47-.88,2.65-2.06,3.53-3.53.88-1.47,1.32-3.09,1.32-4.85s-.44-3.38-1.32-4.85c-.88-1.47-2.06-2.65-3.53-3.53-1.47-.88-3.09-1.32-4.85-1.32s-3.38.44-4.85,1.32c-1.47.88-2.65,2.06-3.53,3.53-.88,1.47-1.32,3.09-1.32,4.85s.44,3.38,1.32,4.85c.88,1.47,2.06,2.65,3.53,3.53,1.47.88,3.09,1.32,4.85,1.32s3.38-.44,4.85-1.32Z"/><path class="cls-1" d="M239.3,34.2c-2.8-1.65-5.02-3.87-6.67-6.67-1.65-2.8-2.47-5.86-2.47-9.19s.82-6.39,2.47-9.19c1.65-2.8,3.87-5.02,6.67-6.67,2.8-1.65,5.86-2.47,9.19-2.47,2.53,0,4.93.49,7.2,1.46,2.27.98,4.26,2.34,5.95,4.1l-6.24,6c-.9-.93-1.94-1.65-3.12-2.16-1.18-.51-2.45-.77-3.79-.77-1.76,0-3.38.44-4.85,1.32-1.47.88-2.65,2.06-3.53,3.53-.88,1.47-1.32,3.09-1.32,4.85s.44,3.38,1.32,4.85c.88,1.47,2.06,2.65,3.53,3.53,1.47.88,3.09,1.32,4.85,1.32,1.38,0,2.68-.27,3.91-.82,1.23-.54,2.3-1.31,3.19-2.3l8.35,2.69.05.48c-1.63,2.59-3.82,4.67-6.58,6.24-2.75,1.57-5.73,2.35-8.93,2.35s-6.39-.82-9.19-2.47ZM255.6,18.48h8.64v8.78l-8.64,2.02v-10.8ZM262.8,27.26h1.44c0,.29-.08.56-.24.82l-1.2-.82Z"/></g></svg>