<?xml version="1.0" encoding="UTF-8"?><svg id="_レイヤー_2" xmlns="http://www.w3.org/2000/svg" viewBox="0 0 167.38 36.72"><defs><style>.cls-1{fill:#000;stroke-width:0px;}</style></defs><g id="_レイヤー_1-2"><path class="cls-1" d="M0,.67h28.8v8.64H0V.67ZM0,27.55h28.8v8.64H0v-8.64ZM10.08,3.07h8.64v31.2h-8.64V3.07Z"/><path class="cls-1" d="M70.2,36.31c-.56-.27-1.02-.62-1.37-1.03l-17.38-19.87,1.34-.48v21.26h-8.64V4.18c0-1.12.4-2.08,1.2-2.88.8-.8,1.76-1.2,2.88-1.2.61,0,1.19.13,1.75.38.56.26,1.02.61,1.37,1.06l17.38,20.35-1.34.48V.67h8.64v31.97c0,1.12-.4,2.08-1.2,2.88-.8.8-1.76,1.2-2.88,1.2-.61,0-1.19-.14-1.75-.41Z"/><path class="cls-1" d="M92.66,1.94c.85-.85,1.86-1.27,3.05-1.27h22.51v8.64h-20.35l2.16-2.16v29.04h-8.64V4.99c0-1.18.42-2.2,1.27-3.05ZM98.54,14.11h18.24v8.64h-18.24v-8.64Z"/><path class="cls-1" d="M139.85,34.2c-2.8-1.65-5.02-3.87-6.67-6.67-1.65-2.8-2.47-5.86-2.47-9.19s.82-6.39,2.47-9.19c1.65-2.8,3.87-5.02,6.67-6.67,2.8-1.65,5.86-2.47,9.19-2.47s6.3.81,9.12,2.42c2.82,1.62,5.06,3.82,6.72,6.62,1.66,2.8,2.5,5.9,2.5,9.29s-.82,6.39-2.47,9.19c-1.65,2.8-3.87,5.02-6.67,6.67-2.8,1.65-5.86,2.47-9.19,2.47s-6.39-.82-9.19-2.47ZM153.89,26.71c1.47-.88,2.65-2.06,3.53-3.53.88-1.47,1.32-3.09,1.32-4.85s-.44-3.38-1.32-4.85c-.88-1.47-2.06-2.65-3.53-3.53-1.47-.88-3.09-1.32-4.85-1.32s-3.38.44-4.85,1.32c-1.47.88-2.65,2.06-3.53,3.53-.88,1.47-1.32,3.09-1.32,4.85s.44,3.38,1.32,4.85c.88,1.47,2.06,2.65,3.53,3.53,1.47.88,3.09,1.32,4.85,1.32s3.38-.44,4.85-1.32Z"/></g></svg>