<?xml version="1.0" encoding="UTF-8"?><svg id="_レイヤー_2" xmlns="http://www.w3.org/2000/svg" viewBox="0 0 583.32 45.9"><g id="_レイヤー_2-2"><path d="M11.37,42.75c-3.5-2.06-6.27-4.85-8.31-8.37-2.04-3.52-3.06-7.38-3.06-11.58s1.02-7.98,3.06-11.46c2.04-3.48,4.8-6.24,8.28-8.28S18.64,0,22.8,0s7.87,1.01,11.37,3.03c3.5,2.02,6.28,4.77,8.34,8.25,2.06,3.48,3.09,7.34,3.09,11.58s-1.02,8-3.06,11.52c-2.04,3.52-4.8,6.31-8.28,8.37-3.48,2.06-7.3,3.09-11.46,3.09s-7.93-1.03-11.43-3.09ZM30.24,35.88c2.24-1.36,4.03-3.18,5.37-5.46,1.34-2.28,2.01-4.8,2.01-7.56s-.66-5.21-1.98-7.47-3.11-4.06-5.37-5.4c-2.26-1.34-4.75-2.01-7.47-2.01s-5.2.67-7.44,2.01c-2.24,1.34-4.02,3.14-5.34,5.4-1.32,2.26-1.98,4.75-1.98,7.47s.66,5.28,1.98,7.56c1.32,2.28,3.11,4.1,5.37,5.46,2.26,1.36,4.73,2.04,7.41,2.04s5.2-.68,7.44-2.04Z"/><path d="M61.8.84h37.98v7.98h-37.98V.84ZM76.8,3.06h7.98v42.18h-7.98V3.06Z"/><path d="M117.78.84h7.98v44.4h-7.98V.84ZM124.74,19.02h24.36v8.04h-24.36v-8.04ZM148.5.84h8.04v44.4h-8.04V.84Z"/><path d="M176.97,44.01c-.82-.82-1.23-1.79-1.23-2.91V4.98c0-1.12.41-2.09,1.23-2.91s1.79-1.23,2.91-1.23h30.18v7.98h-28.44l2.1-2.1v32.64l-2.1-2.1h28.44v7.98h-30.18c-1.12,0-2.09-.41-2.91-1.23ZM182.28,19.02h25.98v8.04h-25.98v-8.04Z"/><path d="M230.49,2.07c.82-.82,1.79-1.23,2.91-1.23h18.06c2.72,0,5.24.68,7.56,2.04,2.32,1.36,4.15,3.21,5.49,5.55,1.34,2.34,2.01,4.87,2.01,7.59s-.67,5.18-2.01,7.38c-1.34,2.2-3.16,3.92-5.46,5.16-2.3,1.24-4.83,1.86-7.59,1.86h-15.48v-7.44h15.48c1.32,0,2.51-.31,3.57-.93,1.06-.62,1.91-1.46,2.55-2.52.64-1.06.96-2.23.96-3.51s-.32-2.47-.96-3.57c-.64-1.1-1.5-1.98-2.58-2.64s-2.26-.99-3.54-.99h-16.32l2.1-2.1v38.52h-7.98V4.98c0-1.12.41-2.09,1.23-2.91ZM246,28.56l6.3-3.9,14.52,20.58h-9.24l-11.58-16.68Z"/><path d="M322.89,42.75c-3.5-2.06-6.27-4.85-8.31-8.37-2.04-3.52-3.06-7.36-3.06-11.52s1.02-8.04,3.06-11.52c2.04-3.48,4.8-6.24,8.28-8.28s7.3-3.06,11.46-3.06c3.24,0,6.31.66,9.21,1.98,2.9,1.32,5.41,3.14,7.53,5.46l-5.76,5.52c-1.36-1.56-2.98-2.78-4.86-3.66-1.88-.88-3.92-1.32-6.12-1.32-2.68,0-5.15.67-7.41,2.01-2.26,1.34-4.05,3.14-5.37,5.4s-1.98,4.75-1.98,7.47.66,5.23,1.98,7.53,3.11,4.13,5.37,5.49c2.26,1.36,4.73,2.04,7.41,2.04,2.36,0,4.54-.47,6.54-1.41,2-.94,3.66-2.29,4.98-4.05l7.38,2.58.24.54c-2.04,3.16-4.74,5.66-8.1,7.5-3.36,1.84-7.02,2.76-10.98,2.76-4.16,0-7.99-1.03-11.49-3.09ZM345.78,23.88h7.98v10.68l-7.98,2.52v-13.2ZM351.96,34.56h1.8c0,.36-.1.7-.3,1.02l-1.5-1.02Z"/><path d="M387.81.9c.66-.44,1.41-.66,2.25-.66s1.51.22,2.13.66c.62.44,1.09,1.04,1.41,1.8l18.06,42.54h-8.88l-13.98-32.76h2.34l-14.04,32.76h-8.94l18.18-42.54c.32-.76.81-1.36,1.47-1.8Z"/><path d="M428.43,1.35c.78-.78,1.71-1.17,2.79-1.17,1.2,0,2.22.48,3.06,1.44l16.26,21.84h-2.52l16.26-21.84c.84-.96,1.86-1.44,3.06-1.44,1.08,0,2.01.39,2.79,1.17.78.78,1.17,1.71,1.17,2.79v41.1h-7.98V12.78l1.5.42-15.54,21.3-15.54-21.3,1.5-.42v32.46h-7.98V4.14c0-1.08.39-2.01,1.17-2.79Z"/><path d="M491.73,44.01c-.82-.82-1.23-1.79-1.23-2.91V4.98c0-1.12.41-2.09,1.23-2.91s1.79-1.23,2.91-1.23h30.18v7.98h-28.44l2.1-2.1v32.64l-2.1-2.1h28.44v7.98h-30.18c-1.12,0-2.09-.41-2.91-1.23ZM497.04,19.02h25.98v8.04h-25.98v-8.04Z"/><path d="M552.29,44.61c-3.4-.82-6.62-2.03-9.66-3.63l3.36-7.26c2.64,1.36,5.38,2.38,8.22,3.06,2.84.68,5.72,1.04,8.64,1.08,2.6.04,4.81-.15,6.63-.57,1.82-.42,3.19-1.05,4.11-1.89.92-.84,1.4-1.82,1.44-2.94.04-1.48-.43-2.63-1.41-3.45-.98-.82-2.25-1.42-3.81-1.8-1.56-.38-3.7-.73-6.42-1.05-4.16-.52-7.5-1.08-10.02-1.68-2.52-.6-4.72-1.77-6.6-3.51-1.88-1.74-2.82-4.25-2.82-7.53.04-2.72.94-5.1,2.7-7.14,1.76-2.04,4.15-3.6,7.17-4.68,3.02-1.08,6.39-1.6,10.11-1.56,3.16.04,6.32.38,9.48,1.02,3.16.64,6.1,1.56,8.82,2.76l-3.24,7.14c-4.92-2.08-9.94-3.16-15.06-3.24-2.52-.04-4.62.12-6.3.48-1.68.36-3,.97-3.96,1.83-.96.86-1.46,2.01-1.5,3.45,0,1.24.52,2.21,1.56,2.91,1.04.7,2.27,1.19,3.69,1.47,1.42.28,3.45.58,6.09.9,3.88.44,7.21,1.04,9.99,1.8,2.78.76,5.12,2.09,7.02,3.99,1.9,1.9,2.83,4.53,2.79,7.89-.04,2.72-.96,5.11-2.76,7.17-1.8,2.06-4.25,3.63-7.35,4.71s-6.55,1.6-10.35,1.56c-3.64-.04-7.16-.47-10.56-1.29Z"/></g></svg>