<?xml version="1.0" encoding="UTF-8"?><svg id="_レイヤー_2" xmlns="http://www.w3.org/2000/svg" viewBox="0 0 151.98 45.84"><g id="_レイヤー_2-2"><path d="M1.23,44.01c-.82-.82-1.23-1.79-1.23-2.91V4.98c0-1.12.41-2.09,1.23-2.91s1.79-1.23,2.91-1.23h17.94c2.36,0,4.55.59,6.57,1.77,2.02,1.18,3.62,2.77,4.8,4.77,1.18,2,1.77,4.18,1.77,6.54s-.58,4.41-1.74,6.15c-1.16,1.74-2.74,3.07-4.74,3.99-2,.92-4.22,1.38-6.66,1.38v-6.42c.92,0,1.77-.23,2.55-.69.78-.46,1.4-1.08,1.86-1.86.46-.78.69-1.63.69-2.55s-.23-1.77-.69-2.55c-.46-.78-1.08-1.4-1.86-1.86-.78-.46-1.63-.69-2.55-.69H5.88l2.1-2.1v32.64l-2.1-2.1h17.64c.92,0,1.77-.24,2.55-.72.78-.48,1.4-1.11,1.86-1.89.46-.78.69-1.63.69-2.55s-.23-1.77-.69-2.55c-.46-.78-1.08-1.39-1.86-1.83-.78-.44-1.63-.66-2.55-.66h-7.08v-6.42h7.08c2.44,0,4.65.46,6.63,1.38s3.55,2.24,4.71,3.96c1.16,1.72,1.74,3.76,1.74,6.12s-.58,4.55-1.74,6.57c-1.16,2.02-2.75,3.62-4.77,4.8-2.02,1.18-4.21,1.77-6.57,1.77H4.14c-1.12,0-2.09-.41-2.91-1.23ZM6.96,19.02h15.48v8.04H6.96v-8.04Z"/><path d="M54.6.84h34.38v7.98h-34.38V.84ZM54.6,37.26h34.38v7.98h-34.38v-7.98ZM67.8,3.24h7.98v40.02h-7.98V3.24Z"/><path d="M117.75,42.75c-3.5-2.06-6.27-4.85-8.31-8.37-2.04-3.52-3.06-7.38-3.06-11.58s1.02-7.98,3.06-11.46c2.04-3.48,4.8-6.24,8.28-8.28s7.3-3.06,11.46-3.06,7.87,1.01,11.37,3.03c3.5,2.02,6.28,4.77,8.34,8.25,2.06,3.48,3.09,7.34,3.09,11.58s-1.02,8-3.06,11.52c-2.04,3.52-4.8,6.31-8.28,8.37-3.48,2.06-7.3,3.09-11.46,3.09s-7.93-1.03-11.43-3.09ZM136.62,35.88c2.24-1.36,4.03-3.18,5.37-5.46,1.34-2.28,2.01-4.8,2.01-7.56s-.66-5.21-1.98-7.47-3.11-4.06-5.37-5.4c-2.26-1.34-4.75-2.01-7.47-2.01s-5.2.67-7.44,2.01c-2.24,1.34-4.02,3.14-5.34,5.4-1.32,2.26-1.98,4.75-1.98,7.47s.66,5.28,1.98,7.56c1.32,2.28,3.11,4.1,5.37,5.46,2.26,1.36,4.73,2.04,7.41,2.04s5.2-.68,7.44-2.04Z"/></g></svg>