<?xml version="1.0" encoding="UTF-8"?><svg id="_レイヤー_2" xmlns="http://www.w3.org/2000/svg" viewBox="0 0 381 45.9"><defs><style>.cls-1{fill:#212121;stroke-width:0px;}</style></defs><g id="_レイヤー_1-2"><path class="cls-1" d="M11.37,42.75c-3.5-2.06-6.27-4.85-8.31-8.37-2.04-3.52-3.06-7.36-3.06-11.52s1.02-8.04,3.06-11.52c2.04-3.48,4.81-6.24,8.31-8.28,3.5-2.04,7.31-3.06,11.43-3.06,3.4,0,6.61.72,9.63,2.16,3.02,1.44,5.59,3.42,7.71,5.94l-6.06,5.22c-1.36-1.64-3.02-2.94-4.98-3.9-1.96-.96-4.06-1.44-6.3-1.44-2.68,0-5.14.67-7.38,2.01-2.24,1.34-4.03,3.14-5.37,5.4-1.34,2.26-2.01,4.75-2.01,7.47s.67,5.22,2.01,7.5c1.34,2.28,3.13,4.1,5.37,5.46,2.24,1.36,4.7,2.04,7.38,2.04,2.48,0,4.77-.52,6.87-1.56,2.1-1.04,3.81-2.5,5.13-4.38l6.36,4.86c-2.08,2.84-4.72,5.06-7.92,6.66-3.2,1.6-6.68,2.4-10.44,2.4-4.12,0-7.93-1.03-11.43-3.09Z"/><path class="cls-1" d="M67.53,42.75c-3.5-2.06-6.27-4.85-8.31-8.37-2.04-3.52-3.06-7.38-3.06-11.58s1.02-7.98,3.06-11.46c2.04-3.48,4.8-6.24,8.28-8.28s7.3-3.06,11.46-3.06,7.87,1.01,11.37,3.03c3.5,2.02,6.28,4.77,8.34,8.25,2.06,3.48,3.09,7.34,3.09,11.58s-1.02,8-3.06,11.52c-2.04,3.52-4.8,6.31-8.28,8.37-3.48,2.06-7.3,3.09-11.46,3.09s-7.93-1.03-11.43-3.09ZM86.4,35.88c2.24-1.36,4.03-3.18,5.37-5.46,1.34-2.28,2.01-4.8,2.01-7.56s-.66-5.21-1.98-7.47-3.11-4.06-5.37-5.4c-2.26-1.34-4.75-2.01-7.47-2.01s-5.2.67-7.44,2.01c-2.24,1.34-4.02,3.14-5.34,5.4-1.32,2.26-1.98,4.75-1.98,7.47s.66,5.28,1.98,7.56c1.32,2.28,3.11,4.1,5.37,5.46,2.26,1.36,4.73,2.04,7.41,2.04s5.2-.68,7.44-2.04Z"/><path class="cls-1" d="M152.22,45.48c-.56-.28-1.02-.62-1.38-1.02l-25.08-30.72,1.38-.42v31.92h-7.98V4.08c0-1.12.39-2.07,1.17-2.85s1.73-1.17,2.85-1.17c.6,0,1.17.13,1.71.39.54.26.99.61,1.35,1.05l25.08,31.14-1.38.48V.84h8.04v41.04c0,1.12-.39,2.07-1.17,2.85-.78.78-1.73,1.17-2.85,1.17-.6,0-1.18-.14-1.74-.42Z"/><path class="cls-1" d="M175.98.84h37.98v7.98h-37.98V.84ZM190.98,3.06h7.98v42.18h-7.98V3.06Z"/><path class="cls-1" d="M248.01.9c.66-.44,1.41-.66,2.25-.66s1.51.22,2.13.66c.62.44,1.09,1.04,1.41,1.8l18.06,42.54h-8.88l-13.98-32.76h2.34l-14.04,32.76h-8.94L246.54,2.7c.32-.76.81-1.36,1.47-1.8Z"/><path class="cls-1" d="M297.63,42.75c-3.5-2.06-6.27-4.85-8.31-8.37-2.04-3.52-3.06-7.36-3.06-11.52s1.02-8.04,3.06-11.52c2.04-3.48,4.81-6.24,8.31-8.28s7.31-3.06,11.43-3.06c3.4,0,6.61.72,9.63,2.16,3.02,1.44,5.59,3.42,7.71,5.94l-6.06,5.22c-1.36-1.64-3.02-2.94-4.98-3.9-1.96-.96-4.06-1.44-6.3-1.44-2.68,0-5.14.67-7.38,2.01-2.24,1.34-4.03,3.14-5.37,5.4-1.34,2.26-2.01,4.75-2.01,7.47s.67,5.22,2.01,7.5c1.34,2.28,3.13,4.1,5.37,5.46,2.24,1.36,4.7,2.04,7.38,2.04,2.48,0,4.77-.52,6.87-1.56,2.1-1.04,3.81-2.5,5.13-4.38l6.36,4.86c-2.08,2.84-4.72,5.06-7.92,6.66-3.2,1.6-6.68,2.4-10.44,2.4-4.12,0-7.93-1.03-11.43-3.09Z"/><path class="cls-1" d="M343.02.84h37.98v7.98h-37.98V.84ZM358.02,3.06h7.98v42.18h-7.98V3.06Z"/></g></svg>