<?xml version="1.0" encoding="UTF-8"?><svg id="_レイヤー_2" xmlns="http://www.w3.org/2000/svg" viewBox="0 0 361.14 45.84"><g id="_レイヤー_2-2"><path d="M1.23,2.01c.82-.82,1.79-1.23,2.91-1.23h18.06c2.72,0,5.24.68,7.56,2.04,2.32,1.36,4.15,3.21,5.49,5.55,1.34,2.34,2.01,4.87,2.01,7.59s-.67,5.18-2.01,7.38c-1.34,2.2-3.16,3.92-5.46,5.16-2.3,1.24-4.83,1.86-7.59,1.86H6.72v-7.44h15.48c1.32,0,2.51-.31,3.57-.93,1.06-.62,1.91-1.46,2.55-2.52.64-1.06.96-2.23.96-3.51s-.32-2.47-.96-3.57c-.64-1.1-1.5-1.98-2.58-2.64s-2.26-.99-3.54-.99H5.88l2.1-2.1v38.52H0V4.92c0-1.12.41-2.09,1.23-2.91ZM16.74,28.5l6.3-3.9,14.52,20.58h-9.24l-11.58-16.68Z"/><path d="M56.49,43.95c-.82-.82-1.23-1.79-1.23-2.91V4.92c0-1.12.41-2.09,1.23-2.91s1.79-1.23,2.91-1.23h30.18v7.98h-28.44l2.1-2.1v32.64l-2.1-2.1h28.44v7.98h-30.18c-1.12,0-2.09-.41-2.91-1.23ZM61.8,18.96h25.98v8.04h-25.98v-8.04Z"/><path d="M110.01,43.95c-.82-.82-1.23-1.79-1.23-2.91V.78h7.98v38.52l-2.1-2.1h27.72v7.98h-29.46c-1.12,0-2.09-.41-2.91-1.23Z"/><path d="M161.61,43.95c-.82-.82-1.23-1.79-1.23-2.91V4.92c0-1.12.41-2.09,1.23-2.91s1.79-1.23,2.91-1.23h30.18v7.98h-28.44l2.1-2.1v32.64l-2.1-2.1h28.44v7.98h-30.18c-1.12,0-2.09-.41-2.91-1.23ZM166.92,18.96h25.98v8.04h-25.98v-8.04Z"/><path d="M229.95.84c.66-.44,1.41-.66,2.25-.66s1.51.22,2.13.66c.62.44,1.09,1.04,1.41,1.8l18.06,42.54h-8.88l-13.98-32.76h2.34l-14.04,32.76h-8.94L228.48,2.64c.32-.76.81-1.36,1.47-1.8Z"/><path d="M277.68,44.55c-3.4-.82-6.62-2.03-9.66-3.63l3.36-7.26c2.64,1.36,5.38,2.38,8.22,3.06,2.84.68,5.72,1.04,8.64,1.08,2.6.04,4.81-.15,6.63-.57,1.82-.42,3.19-1.05,4.11-1.89s1.4-1.82,1.44-2.94c.04-1.48-.43-2.63-1.41-3.45-.98-.82-2.25-1.42-3.81-1.8-1.56-.38-3.7-.73-6.42-1.05-4.16-.52-7.5-1.08-10.02-1.68-2.52-.6-4.72-1.77-6.6-3.51-1.88-1.74-2.82-4.25-2.82-7.53.04-2.72.94-5.1,2.7-7.14,1.76-2.04,4.15-3.6,7.17-4.68,3.02-1.08,6.39-1.6,10.11-1.56,3.16.04,6.32.38,9.48,1.02,3.16.64,6.1,1.56,8.82,2.76l-3.24,7.14c-4.92-2.08-9.94-3.16-15.06-3.24-2.52-.04-4.62.12-6.3.48-1.68.36-3,.97-3.96,1.83-.96.86-1.46,2.01-1.5,3.45,0,1.24.52,2.21,1.56,2.91,1.04.7,2.27,1.19,3.69,1.47,1.42.28,3.45.58,6.09.9,3.88.44,7.21,1.04,9.99,1.8,2.78.76,5.12,2.09,7.02,3.99,1.9,1.9,2.83,4.53,2.79,7.89-.04,2.72-.96,5.11-2.76,7.17-1.8,2.06-4.25,3.63-7.35,4.71-3.1,1.08-6.55,1.6-10.35,1.56-3.64-.04-7.16-.47-10.56-1.29Z"/><path d="M328.05,43.95c-.82-.82-1.23-1.79-1.23-2.91V4.92c0-1.12.41-2.09,1.23-2.91s1.79-1.23,2.91-1.23h30.18v7.98h-28.44l2.1-2.1v32.64l-2.1-2.1h28.44v7.98h-30.18c-1.12,0-2.09-.41-2.91-1.23ZM333.36,18.96h25.98v8.04h-25.98v-8.04Z"/></g></svg>