<?xml version="1.0" encoding="UTF-8"?><svg id="_レイヤー_2" xmlns="http://www.w3.org/2000/svg" viewBox="0 0 328.14 45.9"><g id="_レイヤー_2-2"><path d="M9.66,44.61c-3.4-.82-6.62-2.03-9.66-3.63l3.36-7.26c2.64,1.36,5.38,2.38,8.22,3.06,2.84.68,5.72,1.04,8.64,1.08,2.6.04,4.81-.15,6.63-.57,1.82-.42,3.19-1.05,4.11-1.89.92-.84,1.4-1.82,1.44-2.94.04-1.48-.43-2.63-1.41-3.45-.98-.82-2.25-1.42-3.81-1.8-1.56-.38-3.7-.73-6.42-1.05-4.16-.52-7.5-1.08-10.02-1.68-2.52-.6-4.72-1.77-6.6-3.51-1.88-1.74-2.82-4.25-2.82-7.53.04-2.72.94-5.1,2.7-7.14,1.76-2.04,4.15-3.6,7.17-4.68C14.21.54,17.58.02,21.3.06c3.16.04,6.32.38,9.48,1.02,3.16.64,6.1,1.56,8.82,2.76l-3.24,7.14c-4.92-2.08-9.94-3.16-15.06-3.24-2.52-.04-4.62.12-6.3.48-1.68.36-3,.97-3.96,1.83-.96.86-1.46,2.01-1.5,3.45,0,1.24.52,2.21,1.56,2.91,1.04.7,2.27,1.19,3.69,1.47,1.42.28,3.45.58,6.09.9,3.88.44,7.21,1.04,9.99,1.8,2.78.76,5.12,2.09,7.02,3.99,1.9,1.9,2.83,4.53,2.79,7.89-.04,2.72-.96,5.11-2.76,7.17-1.8,2.06-4.25,3.63-7.35,4.71-3.1,1.08-6.55,1.6-10.35,1.56-3.64-.04-7.16-.47-10.56-1.29Z"/><path d="M57.6.84h37.98v7.98h-37.98V.84ZM72.6,3.06h7.98v42.18h-7.98V3.06Z"/><path d="M123.48,43.14c-3.04-1.76-5.45-4.16-7.23-7.2-1.78-3.04-2.67-6.34-2.67-9.9V.84h7.98v25.2c0,2.12.53,4.08,1.59,5.88,1.06,1.8,2.5,3.23,4.32,4.29,1.82,1.06,3.79,1.59,5.91,1.59s4.15-.53,5.97-1.59c1.82-1.06,3.26-2.49,4.32-4.29,1.06-1.8,1.59-3.76,1.59-5.88V.84h7.98v25.2c0,3.56-.89,6.86-2.67,9.9-1.78,3.04-4.18,5.44-7.2,7.2-3.02,1.76-6.33,2.64-9.93,2.64s-6.92-.88-9.96-2.64Z"/><path d="M173.61,44.07c-.78-.78-1.17-1.71-1.17-2.79V4.8c0-1.08.37-2.01,1.11-2.79.74-.78,1.67-1.17,2.79-1.17h14.1c4.04,0,7.77.99,11.19,2.97,3.42,1.98,6.13,4.67,8.13,8.07,2,3.4,3,7.12,3,11.16s-1,7.76-3,11.16c-2,3.4-4.71,6.09-8.13,8.07-3.42,1.98-7.15,2.97-11.19,2.97h-14.04c-1.08,0-2.01-.39-2.79-1.17ZM178.32,37.26h12.12c2.6,0,4.99-.63,7.17-1.89,2.18-1.26,3.91-2.98,5.19-5.16,1.28-2.18,1.92-4.57,1.92-7.17s-.64-4.98-1.92-7.14c-1.28-2.16-3.01-3.88-5.19-5.16-2.18-1.28-4.57-1.92-7.17-1.92h-12.12l2.1-2.1v32.64l-2.1-2.1Z"/><path d="M230.76.84h34.38v7.98h-34.38V.84ZM230.76,37.26h34.38v7.98h-34.38v-7.98ZM243.96,3.24h7.98v40.02h-7.98V3.24Z"/><path d="M293.91,42.75c-3.5-2.06-6.27-4.85-8.31-8.37-2.04-3.52-3.06-7.38-3.06-11.58s1.02-7.98,3.06-11.46c2.04-3.48,4.8-6.24,8.28-8.28s7.3-3.06,11.46-3.06,7.87,1.01,11.37,3.03c3.5,2.02,6.28,4.77,8.34,8.25,2.06,3.48,3.09,7.34,3.09,11.58s-1.02,8-3.06,11.52c-2.04,3.52-4.8,6.31-8.28,8.37-3.48,2.06-7.3,3.09-11.46,3.09s-7.93-1.03-11.43-3.09ZM312.78,35.88c2.24-1.36,4.03-3.18,5.37-5.46,1.34-2.28,2.01-4.8,2.01-7.56s-.66-5.21-1.98-7.47-3.11-4.06-5.37-5.4c-2.26-1.34-4.75-2.01-7.47-2.01s-5.2.67-7.44,2.01c-2.24,1.34-4.02,3.14-5.34,5.4s-1.98,4.75-1.98,7.47.66,5.28,1.98,7.56c1.32,2.28,3.11,4.1,5.37,5.46,2.26,1.36,4.73,2.04,7.41,2.04s5.2-.68,7.44-2.04Z"/></g></svg>