<?xml version="1.0" encoding="UTF-8"?><svg id="_レイヤー_2" xmlns="http://www.w3.org/2000/svg" viewBox="0 0 319.32 45.84"><style>.cls-1{fill:#fff;stroke-width:0px;}</style><g id="_レイヤー_2-2"><path class="cls-1" d="M8.76,44.46c-3-.76-5.92-1.9-8.76-3.42l1.74-3.48c2.56,1.4,5.21,2.46,7.95,3.18,2.74.72,5.63,1.1,8.67,1.14,3.32.12,6.24-.16,8.76-.84,2.52-.68,4.46-1.68,5.82-3,1.36-1.32,2.08-2.84,2.16-4.56.08-2.2-.57-3.92-1.95-5.16-1.38-1.24-3.13-2.15-5.25-2.73-2.12-.58-4.88-1.11-8.28-1.59-4.2-.56-7.47-1.12-9.81-1.68-2.34-.56-4.35-1.64-6.03-3.24-1.68-1.6-2.48-3.9-2.4-6.9.08-2.52.96-4.71,2.64-6.57,1.68-1.86,3.99-3.25,6.93-4.17C13.89.52,17.26.1,21.06.18c2.88.08,5.74.45,8.58,1.11,2.84.66,5.48,1.57,7.92,2.73l-1.5,3.42c-4.64-2.16-9.66-3.32-15.06-3.48-3.16-.08-5.9.18-8.22.78-2.32.6-4.13,1.54-5.43,2.82-1.3,1.28-1.99,2.86-2.07,4.74-.08,2,.54,3.53,1.86,4.59s2.86,1.78,4.62,2.16c1.76.38,4.48.81,8.16,1.29,3.96.52,7.27,1.15,9.93,1.89,2.66.74,4.88,2.01,6.66,3.81,1.78,1.8,2.61,4.3,2.49,7.5-.04,2.52-.94,4.72-2.7,6.6-1.76,1.88-4.2,3.31-7.32,4.29-3.12.98-6.66,1.43-10.62,1.35-3.4-.12-6.6-.56-9.6-1.32Z"/><path class="cls-1" d="M56.1.84h37.38v3.78h-37.38V.84ZM72.9,1.92h3.78v43.32h-3.78V1.92Z"/><path class="cls-1" d="M120.81,42.81c-2.86-1.66-5.13-3.91-6.81-6.75-1.68-2.84-2.52-5.96-2.52-9.36V.84h3.78v25.86c0,2.64.67,5.1,2.01,7.38,1.34,2.28,3.15,4.08,5.43,5.4,2.28,1.32,4.76,1.98,7.44,1.98s5.22-.66,7.5-1.98c2.28-1.32,4.08-3.12,5.4-5.4,1.32-2.28,1.98-4.74,1.98-7.38V.84h3.84v25.86c0,3.4-.84,6.52-2.52,9.36s-3.94,5.09-6.78,6.75c-2.84,1.66-5.96,2.49-9.36,2.49s-6.53-.83-9.39-2.49Z"/><path class="cls-1" d="M168.72,44.58c-.44-.44-.66-.96-.66-1.56V3.06c0-.6.21-1.12.63-1.56.42-.44.95-.66,1.59-.66h13.86c4.08,0,7.84.99,11.28,2.97,3.44,1.98,6.17,4.67,8.19,8.07,2.02,3.4,3.03,7.12,3.03,11.16s-1.01,7.82-3.03,11.22c-2.02,3.4-4.75,6.08-8.19,8.04-3.44,1.96-7.2,2.94-11.28,2.94h-13.8c-.64,0-1.18-.22-1.62-.66ZM170.64,41.46h13.5c3.44,0,6.58-.81,9.42-2.43,2.84-1.62,5.08-3.84,6.72-6.66,1.64-2.82,2.46-5.93,2.46-9.33s-.82-6.45-2.46-9.27c-1.64-2.82-3.89-5.05-6.75-6.69-2.86-1.64-5.99-2.46-9.39-2.46h-13.5l1.2-1.2v39.24l-1.2-1.2Z"/><path class="cls-1" d="M224.64.84h31.98v3.78h-31.98V.84ZM224.64,41.46h31.98v3.78h-31.98v-3.78ZM238.74,2.34h3.78v41.52h-3.78V2.34Z"/><path class="cls-1" d="M285.33,42.72c-3.5-2.08-6.26-4.89-8.28-8.43-2.02-3.54-3.03-7.39-3.03-11.55s1.01-8.03,3.03-11.49c2.02-3.46,4.77-6.2,8.25-8.22,3.48-2.02,7.28-3.03,11.4-3.03s7.85,1,11.31,3c3.46,2,6.21,4.74,8.25,8.22,2.04,3.48,3.06,7.32,3.06,11.52s-1.01,8.07-3.03,11.61c-2.02,3.54-4.75,6.34-8.19,8.4-3.44,2.06-7.24,3.09-11.4,3.09s-7.87-1.04-11.37-3.12ZM306.12,39.57c2.84-1.74,5.11-4.09,6.81-7.05,1.7-2.96,2.55-6.22,2.55-9.78s-.83-6.72-2.49-9.6c-1.66-2.88-3.92-5.17-6.78-6.87-2.86-1.7-6.03-2.55-9.51-2.55s-6.65.85-9.51,2.55c-2.86,1.7-5.13,3.99-6.81,6.87-1.68,2.88-2.52,6.08-2.52,9.6s.84,6.82,2.52,9.78c1.68,2.96,3.96,5.31,6.84,7.05s6.04,2.61,9.48,2.61,6.58-.87,9.42-2.61Z"/></g></svg>