<?xml version="1.0" encoding="UTF-8"?><svg id="_レイヤー_2" xmlns="http://www.w3.org/2000/svg" viewBox="0 0 264.25 45.9"><defs><style>.cls-1{fill:#fff;stroke-width:0px;}</style></defs><g id="_レイヤー_1-2"><path class="cls-1" d="M11.31,42.78c-3.5-2.08-6.26-4.89-8.28-8.43-2.02-3.54-3.03-7.41-3.03-11.61s1.01-8.03,3.03-11.49c2.02-3.46,4.77-6.19,8.25-8.19C14.76,1.06,18.56.06,22.68.06c3.36,0,6.53.72,9.51,2.16,2.98,1.44,5.53,3.44,7.65,6l-2.76,2.52c-1.72-2.16-3.83-3.86-6.33-5.1-2.5-1.24-5.19-1.86-8.07-1.86-3.44,0-6.6.84-9.48,2.52-2.88,1.68-5.16,3.96-6.84,6.84-1.68,2.88-2.52,6.08-2.52,9.6s.84,6.77,2.52,9.75c1.68,2.98,3.96,5.34,6.84,7.08s6.04,2.61,9.48,2.61c3.24,0,6.21-.66,8.91-1.98,2.7-1.32,4.89-3.22,6.57-5.7l2.76,1.32.48.54c-2,3.04-4.64,5.39-7.92,7.05-3.28,1.66-6.88,2.49-10.8,2.49s-7.87-1.04-11.37-3.12ZM37.92,25.08h3.78v10.26l-3.78,2.52v-12.78ZM39.9,35.34h1.8c0,.36-.1.7-.3,1.02l-1.5-1.02Z"/><path class="cls-1" d="M75.63.39c.38-.26.79-.39,1.23-.39s.85.13,1.23.39c.38.26.67.63.87,1.11l18.42,43.74h-4.26L76.08,4.98h1.56l-17.28,40.26h-4.26L74.76,1.5c.2-.48.49-.85.87-1.11Z"/><path class="cls-1" d="M113.64.66c.44-.44.98-.66,1.62-.66.72,0,1.32.32,1.8.96l17.46,27.66h-1.2L150.78.96c.48-.64,1.1-.96,1.86-.96.6,0,1.12.22,1.56.66.44.44.66.96.66,1.56v43.02h-3.78V4.98l1.32.12-18.48,29.4-18.48-29.4,1.32-.12v40.26h-3.78V2.22c0-.6.22-1.12.66-1.56Z"/><path class="cls-1" d="M174.72,44.58c-.44-.44-.66-.98-.66-1.62V3.12c0-.64.22-1.18.66-1.62.44-.44.98-.66,1.62-.66h31.44v3.78h-31.14l1.2-1.2v39.24l-1.2-1.2h31.14v3.78h-31.44c-.64,0-1.18-.22-1.62-.66ZM177,21.12h28.98v3.84h-28.98v-3.84Z"/><path class="cls-1" d="M234,44.46c-3-.76-5.92-1.9-8.76-3.42l1.74-3.48c2.56,1.4,5.21,2.46,7.95,3.18,2.74.72,5.63,1.1,8.67,1.14,3.32.12,6.24-.16,8.76-.84,2.52-.68,4.46-1.68,5.82-3,1.36-1.32,2.08-2.84,2.16-4.56.08-2.2-.57-3.92-1.95-5.16-1.38-1.24-3.13-2.15-5.25-2.73-2.12-.58-4.88-1.11-8.28-1.59-4.2-.56-7.47-1.12-9.81-1.68-2.34-.56-4.35-1.64-6.03-3.24-1.68-1.6-2.48-3.9-2.4-6.9.08-2.52.96-4.71,2.64-6.57,1.68-1.86,3.99-3.25,6.93-4.17s6.31-1.34,10.11-1.26c2.88.08,5.74.45,8.58,1.11,2.84.66,5.48,1.57,7.92,2.73l-1.5,3.42c-4.64-2.16-9.66-3.32-15.06-3.48-3.16-.08-5.9.18-8.22.78-2.32.6-4.13,1.54-5.43,2.82-1.3,1.28-1.99,2.86-2.07,4.74-.08,2,.54,3.53,1.86,4.59s2.86,1.78,4.62,2.16c1.76.38,4.48.81,8.16,1.29,3.96.52,7.27,1.15,9.93,1.89,2.66.74,4.88,2.01,6.66,3.81,1.78,1.8,2.61,4.3,2.49,7.5-.04,2.52-.94,4.72-2.7,6.6-1.76,1.88-4.2,3.31-7.32,4.29-3.12.98-6.66,1.43-10.62,1.35-3.4-.12-6.6-.56-9.6-1.32Z"/></g></svg>