<?xml version="1.0" encoding="UTF-8"?><svg id="_レイヤー_2" xmlns="http://www.w3.org/2000/svg" viewBox="0 0 588.66 45.9"><g id="_レイヤー_1-2"><style>.cls-1{fill:#fff;stroke-width:0px;}</style><path class="cls-1" d="M0,.84h31.98v3.78H0V.84ZM0,41.46h31.98v3.78H0v-3.78ZM14.1,2.34h3.78v41.52h-3.78V2.34Z"/><path class="cls-1" d="M85.02,45.63c-.32-.18-.6-.41-.84-.69L54.06,5.52l.9-.24v39.96h-3.78V2.34c0-.68.23-1.24.69-1.68.46-.44,1.01-.66,1.65-.66.4,0,.76.07,1.08.21.32.14.6.37.84.69l30.06,39.66-.9.24V.84h3.84v42.72c0,.64-.23,1.19-.69,1.65-.46.46-1.03.69-1.71.69-.36,0-.7-.09-1.02-.27Z"/><path class="cls-1" d="M108.3,1.53c.44-.46.98-.69,1.62-.69h30.24v3.78h-29.94l1.2-1.2v41.82h-3.78V3.12c0-.6.22-1.13.66-1.59ZM110.58,21.12h27.78v3.84h-27.78v-3.84Z"/><path class="cls-1" d="M167.07,42.72c-3.5-2.08-6.26-4.89-8.28-8.43-2.02-3.54-3.03-7.39-3.03-11.55s1.01-8.03,3.03-11.49c2.02-3.46,4.77-6.2,8.25-8.22,3.48-2.02,7.28-3.03,11.4-3.03s7.85,1,11.31,3c3.46,2,6.21,4.74,8.25,8.22,2.04,3.48,3.06,7.32,3.06,11.52s-1.01,8.07-3.03,11.61c-2.02,3.54-4.75,6.34-8.19,8.4-3.44,2.06-7.24,3.09-11.4,3.09s-7.87-1.04-11.37-3.12ZM187.86,39.57c2.84-1.74,5.11-4.09,6.81-7.05,1.7-2.96,2.55-6.22,2.55-9.78s-.83-6.72-2.49-9.6c-1.66-2.88-3.92-5.17-6.78-6.87-2.86-1.7-6.03-2.55-9.51-2.55s-6.65.85-9.51,2.55c-2.86,1.7-5.13,3.99-6.81,6.87-1.68,2.88-2.52,6.08-2.52,9.6s.84,6.82,2.52,9.78c1.68,2.96,3.96,5.31,6.84,7.05s6.04,2.61,9.48,2.61,6.58-.87,9.42-2.61Z"/><path class="cls-1" d="M219.12,1.5c.44-.44.98-.66,1.62-.66h18.24c2.48,0,4.79.64,6.93,1.92,2.14,1.28,3.82,3.01,5.04,5.19,1.22,2.18,1.83,4.53,1.83,7.05s-.61,4.74-1.83,6.78c-1.22,2.04-2.89,3.64-5.01,4.8-2.12,1.16-4.44,1.74-6.96,1.74h-17.82v-3.66h17.82c1.88,0,3.57-.43,5.07-1.29,1.5-.86,2.69-2.03,3.57-3.51.88-1.48,1.32-3.1,1.32-4.86s-.45-3.55-1.35-5.13c-.9-1.58-2.11-2.85-3.63-3.81-1.52-.96-3.18-1.44-4.98-1.44h-17.94l1.2-1.2v41.82h-3.78V3.12c0-.64.22-1.18.66-1.62ZM235.98,27.12l3.72-.96,13.32,19.08h-4.5l-12.54-18.12Z"/><path class="cls-1" d="M271.44.66c.44-.44.98-.66,1.62-.66.72,0,1.32.32,1.8.96l17.46,27.66h-1.2L308.58.96c.48-.64,1.1-.96,1.86-.96.6,0,1.12.22,1.56.66.44.44.66.96.66,1.56v43.02h-3.78V4.98l1.32.12-18.48,29.4-18.48-29.4,1.32-.12v40.26h-3.78V2.22c0-.6.22-1.12.66-1.56Z"/><path class="cls-1" d="M347.79.39c.38-.26.79-.39,1.23-.39s.85.13,1.23.39c.38.26.67.63.87,1.11l18.42,43.74h-4.26l-17.04-40.26h1.56l-17.28,40.26h-4.26L346.92,1.5c.2-.48.49-.85.87-1.11Z"/><path class="cls-1" d="M383.94.84h37.38v3.78h-37.38V.84ZM400.74,1.92h3.78v43.32h-3.78V1.92Z"/><path class="cls-1" d="M439.32.84h31.98v3.78h-31.98V.84ZM439.32,41.46h31.98v3.78h-31.98v-3.78ZM453.42,2.34h3.78v41.52h-3.78V2.34Z"/><path class="cls-1" d="M500.01,42.72c-3.5-2.08-6.26-4.89-8.28-8.43-2.02-3.54-3.03-7.39-3.03-11.55s1.01-8.03,3.03-11.49c2.02-3.46,4.77-6.2,8.25-8.22,3.48-2.02,7.28-3.03,11.4-3.03s7.85,1,11.31,3c3.46,2,6.21,4.74,8.25,8.22,2.04,3.48,3.06,7.32,3.06,11.52s-1.01,8.07-3.03,11.61c-2.02,3.54-4.75,6.34-8.19,8.4-3.44,2.06-7.24,3.09-11.4,3.09s-7.87-1.04-11.37-3.12ZM520.8,39.57c2.84-1.74,5.11-4.09,6.81-7.05,1.7-2.96,2.55-6.22,2.55-9.78s-.83-6.72-2.49-9.6c-1.66-2.88-3.92-5.17-6.78-6.87-2.86-1.7-6.03-2.55-9.51-2.55s-6.65.85-9.51,2.55c-2.86,1.7-5.13,3.99-6.81,6.87-1.68,2.88-2.52,6.08-2.52,9.6s.84,6.82,2.52,9.78c1.68,2.96,3.96,5.31,6.84,7.05s6.04,2.61,9.48,2.61,6.58-.87,9.42-2.61Z"/><path class="cls-1" d="M585.24,45.63c-.32-.18-.6-.41-.84-.69l-30.12-39.42.9-.24v39.96h-3.78V2.34c0-.68.23-1.24.69-1.68.46-.44,1.01-.66,1.65-.66.4,0,.76.07,1.08.21.32.14.6.37.84.69l30.06,39.66-.9.24V.84h3.84v42.72c0,.64-.23,1.19-.69,1.65-.46.46-1.03.69-1.71.69-.36,0-.7-.09-1.02-.27Z"/></g></svg>