<?xml version="1.0" encoding="UTF-8"?><svg id="_レイヤー_2" xmlns="http://www.w3.org/2000/svg" viewBox="0 0 375.84 45.9"><defs><style>.cls-1{fill:#fff;stroke-width:0px;}</style></defs><g id="_レイヤー_1-2"><path class="cls-1" d="M11.31,42.78c-3.5-2.08-6.26-4.89-8.28-8.43-2.02-3.54-3.03-7.41-3.03-11.61s1.01-8.03,3.03-11.49c2.02-3.46,4.77-6.19,8.25-8.19S18.56.06,22.68.06c3.4,0,6.61.74,9.63,2.22,3.02,1.48,5.59,3.5,7.71,6.06l-2.88,2.46c-1.68-2.16-3.8-3.87-6.36-5.13-2.56-1.26-5.26-1.89-8.1-1.89-3.44,0-6.59.84-9.45,2.52-2.86,1.68-5.13,3.96-6.81,6.84-1.68,2.88-2.52,6.08-2.52,9.6s.84,6.76,2.52,9.72c1.68,2.96,3.95,5.31,6.81,7.05,2.86,1.74,6.01,2.61,9.45,2.61s6.28-.67,9-2.01c2.72-1.34,4.9-3.27,6.54-5.79l3,2.34c-2.04,2.96-4.67,5.24-7.89,6.84-3.22,1.6-6.77,2.4-10.65,2.4-4.08,0-7.87-1.04-11.37-3.12Z"/><path class="cls-1" d="M67.53,42.72c-3.5-2.08-6.26-4.89-8.28-8.43-2.02-3.54-3.03-7.39-3.03-11.55s1.01-8.03,3.03-11.49c2.02-3.46,4.77-6.2,8.25-8.22,3.48-2.02,7.28-3.03,11.4-3.03s7.85,1,11.31,3c3.46,2,6.21,4.74,8.25,8.22,2.04,3.48,3.06,7.32,3.06,11.52s-1.01,8.07-3.03,11.61c-2.02,3.54-4.75,6.34-8.19,8.4-3.44,2.06-7.24,3.09-11.4,3.09s-7.87-1.04-11.37-3.12ZM88.32,39.57c2.84-1.74,5.11-4.09,6.81-7.05,1.7-2.96,2.55-6.22,2.55-9.78s-.83-6.72-2.49-9.6c-1.66-2.88-3.92-5.17-6.78-6.87-2.86-1.7-6.03-2.55-9.51-2.55s-6.65.85-9.51,2.55c-2.86,1.7-5.13,3.99-6.81,6.87-1.68,2.88-2.52,6.08-2.52,9.6s.84,6.82,2.52,9.78c1.68,2.96,3.96,5.31,6.84,7.05s6.04,2.61,9.48,2.61,6.58-.87,9.42-2.61Z"/><path class="cls-1" d="M152.76,45.63c-.32-.18-.6-.41-.84-.69L121.8,5.52l.9-.24v39.96h-3.78V2.34c0-.68.23-1.24.69-1.68.46-.44,1.01-.66,1.65-.66.4,0,.76.07,1.08.21.32.14.6.37.84.69l30.06,39.66-.9.24V.84h3.84v42.72c0,.64-.23,1.19-.69,1.65-.46.46-1.03.69-1.71.69-.36,0-.7-.09-1.02-.27Z"/><path class="cls-1" d="M174.18.84h37.38v3.78h-37.38V.84ZM190.98,1.92h3.78v43.32h-3.78V1.92Z"/><path class="cls-1" d="M245.49.39c.38-.26.79-.39,1.23-.39s.85.13,1.23.39c.38.26.67.63.87,1.11l18.42,43.74h-4.26l-17.04-40.26h1.56l-17.28,40.26h-4.26L244.62,1.5c.2-.48.49-.85.87-1.11Z"/><path class="cls-1" d="M292.95,42.78c-3.5-2.08-6.26-4.89-8.28-8.43-2.02-3.54-3.03-7.41-3.03-11.61s1.01-8.03,3.03-11.49c2.02-3.46,4.77-6.19,8.25-8.19S300.2.06,304.32.06c3.4,0,6.61.74,9.63,2.22,3.02,1.48,5.59,3.5,7.71,6.06l-2.88,2.46c-1.68-2.16-3.8-3.87-6.36-5.13-2.56-1.26-5.26-1.89-8.1-1.89-3.44,0-6.59.84-9.45,2.52-2.86,1.68-5.13,3.96-6.81,6.84-1.68,2.88-2.52,6.08-2.52,9.6s.84,6.76,2.52,9.72c1.68,2.96,3.95,5.31,6.81,7.05,2.86,1.74,6.01,2.61,9.45,2.61s6.28-.67,9-2.01c2.72-1.34,4.9-3.27,6.54-5.79l3,2.34c-2.04,2.96-4.67,5.24-7.89,6.84-3.22,1.6-6.77,2.4-10.65,2.4-4.08,0-7.87-1.04-11.37-3.12Z"/><path class="cls-1" d="M338.46.84h37.38v3.78h-37.38V.84ZM355.26,1.92h3.78v43.32h-3.78V1.92Z"/></g></svg>