<?xml version="1.0" encoding="UTF-8"?><svg id="_レイヤー_2" xmlns="http://www.w3.org/2000/svg" viewBox="0 0 503.82 45.9"><defs><style>.cls-1{fill:#fff;stroke-width:0px;}</style></defs><g id="_レイヤー_1-2"><path class="cls-1" d="M8.76,44.46c-3-.76-5.92-1.9-8.76-3.42l1.74-3.48c2.56,1.4,5.21,2.46,7.95,3.18,2.74.72,5.63,1.1,8.67,1.14,3.32.12,6.24-.16,8.76-.84,2.52-.68,4.46-1.68,5.82-3,1.36-1.32,2.08-2.84,2.16-4.56.08-2.2-.57-3.92-1.95-5.16-1.38-1.24-3.13-2.15-5.25-2.73-2.12-.58-4.88-1.11-8.28-1.59-4.2-.56-7.47-1.12-9.81-1.68-2.34-.56-4.35-1.64-6.03-3.24-1.68-1.6-2.48-3.9-2.4-6.9.08-2.52.96-4.71,2.64-6.57,1.68-1.86,3.99-3.25,6.93-4.17S17.26.1,21.06.18c2.88.08,5.74.45,8.58,1.11,2.84.66,5.48,1.57,7.92,2.73l-1.5,3.42c-4.64-2.16-9.66-3.32-15.06-3.48-3.16-.08-5.9.18-8.22.78-2.32.6-4.13,1.54-5.43,2.82-1.3,1.28-1.99,2.86-2.07,4.74-.08,2,.54,3.53,1.86,4.59s2.86,1.78,4.62,2.16c1.76.38,4.48.81,8.16,1.29,3.96.52,7.27,1.15,9.93,1.89,2.66.74,4.88,2.01,6.66,3.81,1.78,1.8,2.61,4.3,2.49,7.5-.04,2.52-.94,4.72-2.7,6.6-1.76,1.88-4.2,3.31-7.32,4.29-3.12.98-6.66,1.43-10.62,1.35-3.4-.12-6.6-.56-9.6-1.32Z"/><path class="cls-1" d="M66.81,42.72c-3.5-2.08-6.26-4.89-8.28-8.43-2.02-3.54-3.03-7.39-3.03-11.55s1.01-8.03,3.03-11.49c2.02-3.46,4.77-6.2,8.25-8.22,3.48-2.02,7.28-3.03,11.4-3.03s7.85,1,11.31,3c3.46,2,6.21,4.74,8.25,8.22,2.04,3.48,3.06,7.32,3.06,11.52s-1.01,8.07-3.03,11.61c-2.02,3.54-4.75,6.34-8.19,8.4-3.44,2.06-7.24,3.09-11.4,3.09s-7.87-1.04-11.37-3.12ZM87.6,39.57c2.84-1.74,5.11-4.09,6.81-7.05,1.7-2.96,2.55-6.22,2.55-9.78s-.83-6.72-2.49-9.6c-1.66-2.88-3.92-5.17-6.78-6.87-2.86-1.7-6.03-2.55-9.51-2.55s-6.65.85-9.51,2.55c-2.86,1.7-5.13,3.99-6.81,6.87-1.68,2.88-2.52,6.08-2.52,9.6s.84,6.82,2.52,9.78c1.68,2.96,3.96,5.31,6.84,7.05s6.04,2.61,9.48,2.61,6.58-.87,9.42-2.61Z"/><path class="cls-1" d="M127.53,42.81c-2.86-1.66-5.13-3.91-6.81-6.75-1.68-2.84-2.52-5.96-2.52-9.36V.84h3.78v25.86c0,2.64.67,5.1,2.01,7.38,1.34,2.28,3.15,4.08,5.43,5.4,2.28,1.32,4.76,1.98,7.44,1.98s5.22-.66,7.5-1.98c2.28-1.32,4.08-3.12,5.4-5.4,1.32-2.28,1.98-4.74,1.98-7.38V.84h3.84v25.86c0,3.4-.84,6.52-2.52,9.36s-3.94,5.09-6.78,6.75c-2.84,1.66-5.96,2.49-9.36,2.49s-6.53-.83-9.39-2.49Z"/><path class="cls-1" d="M208.62,45.63c-.32-.18-.6-.41-.84-.69l-30.12-39.42.9-.24v39.96h-3.78V2.34c0-.68.23-1.24.69-1.68.46-.44,1.01-.66,1.65-.66.4,0,.76.07,1.08.21.32.14.6.37.84.69l30.06,39.66-.9.24V.84h3.84v42.72c0,.64-.23,1.19-.69,1.65-.46.46-1.03.69-1.71.69-.36,0-.7-.09-1.02-.27Z"/><path class="cls-1" d="M231.9,44.58c-.44-.44-.66-.96-.66-1.56V3.06c0-.6.21-1.12.63-1.56.42-.44.95-.66,1.59-.66h13.86c4.08,0,7.84.99,11.28,2.97,3.44,1.98,6.17,4.67,8.19,8.07,2.02,3.4,3.03,7.12,3.03,11.16s-1.01,7.82-3.03,11.22c-2.02,3.4-4.75,6.08-8.19,8.04-3.44,1.96-7.2,2.94-11.28,2.94h-13.8c-.64,0-1.18-.22-1.62-.66ZM233.82,41.46h13.5c3.44,0,6.58-.81,9.42-2.43,2.84-1.62,5.08-3.84,6.72-6.66,1.64-2.82,2.46-5.93,2.46-9.33s-.82-6.45-2.46-9.27c-1.64-2.82-3.89-5.05-6.75-6.69-2.86-1.64-5.99-2.46-9.39-2.46h-13.5l1.2-1.2v39.24l-1.2-1.2Z"/><path class="cls-1" d="M288.48,1.5c.44-.44.98-.66,1.62-.66h18.24c2.48,0,4.79.64,6.93,1.92,2.14,1.28,3.82,3.01,5.04,5.19,1.22,2.18,1.83,4.53,1.83,7.05s-.61,4.74-1.83,6.78c-1.22,2.04-2.89,3.64-5.01,4.8-2.12,1.16-4.44,1.74-6.96,1.74h-17.82v-3.66h17.82c1.88,0,3.57-.43,5.07-1.29,1.5-.86,2.69-2.03,3.57-3.51.88-1.48,1.32-3.1,1.32-4.86s-.45-3.55-1.35-5.13c-.9-1.58-2.11-2.85-3.63-3.81-1.52-.96-3.18-1.44-4.98-1.44h-17.94l1.2-1.2v41.82h-3.78V3.12c0-.64.22-1.18.66-1.62ZM305.34,27.12l3.72-.96,13.32,19.08h-4.5l-12.54-18.12Z"/><path class="cls-1" d="M349.65,42.72c-3.5-2.08-6.26-4.89-8.28-8.43-2.02-3.54-3.03-7.39-3.03-11.55s1.01-8.03,3.03-11.49c2.02-3.46,4.77-6.2,8.25-8.22,3.48-2.02,7.28-3.03,11.4-3.03s7.85,1,11.31,3c3.46,2,6.21,4.74,8.25,8.22,2.04,3.48,3.06,7.32,3.06,11.52s-1.01,8.07-3.03,11.61c-2.02,3.54-4.75,6.34-8.19,8.4-3.44,2.06-7.24,3.09-11.4,3.09s-7.87-1.04-11.37-3.12ZM370.44,39.57c2.84-1.74,5.11-4.09,6.81-7.05,1.7-2.96,2.55-6.22,2.55-9.78s-.83-6.72-2.49-9.6c-1.66-2.88-3.92-5.17-6.78-6.87-2.86-1.7-6.03-2.55-9.51-2.55s-6.65.85-9.51,2.55c-2.86,1.7-5.13,3.99-6.81,6.87-1.68,2.88-2.52,6.08-2.52,9.6s.84,6.82,2.52,9.78c1.68,2.96,3.96,5.31,6.84,7.05s6.04,2.61,9.48,2.61,6.58-.87,9.42-2.61Z"/><path class="cls-1" d="M410.55,42.72c-3.5-2.08-6.26-4.89-8.28-8.43-2.02-3.54-3.03-7.39-3.03-11.55s1.01-8.03,3.03-11.49c2.02-3.46,4.77-6.2,8.25-8.22,3.48-2.02,7.28-3.03,11.4-3.03s7.85,1,11.31,3c3.46,2,6.21,4.74,8.25,8.22,2.04,3.48,3.06,7.32,3.06,11.52s-1.01,8.07-3.03,11.61c-2.02,3.54-4.75,6.34-8.19,8.4-3.44,2.06-7.24,3.09-11.4,3.09s-7.87-1.04-11.37-3.12ZM431.34,39.57c2.84-1.74,5.11-4.09,6.81-7.05,1.7-2.96,2.55-6.22,2.55-9.78s-.83-6.72-2.49-9.6c-1.66-2.88-3.92-5.17-6.78-6.87-2.86-1.7-6.03-2.55-9.51-2.55s-6.65.85-9.51,2.55c-2.86,1.7-5.13,3.99-6.81,6.87-1.68,2.88-2.52,6.08-2.52,9.6s.84,6.82,2.52,9.78c1.68,2.96,3.96,5.31,6.84,7.05s6.04,2.61,9.48,2.61,6.58-.87,9.42-2.61Z"/><path class="cls-1" d="M462.6.66c.44-.44.98-.66,1.62-.66.72,0,1.32.32,1.8.96l17.46,27.66h-1.2L499.74.96c.48-.64,1.1-.96,1.86-.96.6,0,1.12.22,1.56.66.44.44.66.96.66,1.56v43.02h-3.78V4.98l1.32.12-18.48,29.4-18.48-29.4,1.32-.12v40.26h-3.78V2.22c0-.6.22-1.12.66-1.56Z"/></g></svg>