<?xml version="1.0" encoding="UTF-8"?><svg id="_レイヤー_2" xmlns="http://www.w3.org/2000/svg" viewBox="0 0 700.61 54.9"><defs><style>.cls-1{fill:#212121;stroke-width:0px;}</style></defs><g id="_レイヤー_1-2"><path class="cls-1" d="M1.17,45.63c-.78-.78-1.17-1.71-1.17-2.79V6.36c0-1.08.37-2.01,1.11-2.79.74-.78,1.67-1.17,2.79-1.17h14.1c4.04,0,7.77.99,11.19,2.97s6.13,4.67,8.13,8.07c2,3.4,3,7.12,3,11.16s-1,7.76-3,11.16c-2,3.4-4.71,6.09-8.13,8.07s-7.15,2.97-11.19,2.97H3.96c-1.08,0-2.01-.39-2.79-1.17ZM5.88,38.82h12.12c2.6,0,4.99-.63,7.17-1.89,2.18-1.26,3.91-2.98,5.19-5.16,1.28-2.18,1.92-4.57,1.92-7.17s-.64-4.98-1.92-7.14c-1.28-2.16-3.01-3.88-5.19-5.16-2.18-1.28-4.57-1.92-7.17-1.92H5.88l2.1-2.1v32.64l-2.1-2.1Z"/><path class="cls-1" d="M59.55,45.57c-.82-.82-1.23-1.79-1.23-2.91V6.54c0-1.12.41-2.09,1.23-2.91s1.79-1.23,2.91-1.23h30.18v7.98h-28.44l2.1-2.1v32.64l-2.1-2.1h28.44v7.98h-30.18c-1.12,0-2.09-.41-2.91-1.23ZM64.86,20.58h25.98v8.04h-25.98v-8.04Z"/><path class="cls-1" d="M130.29,46.62c-.66-.44-1.15-1.02-1.47-1.74L110.64,2.4h8.7l14.04,32.7h-1.86l13.92-32.7h8.7l-18.06,42.48c-.32.72-.79,1.3-1.41,1.74-.62.44-1.33.66-2.13.66-.84,0-1.59-.22-2.25-.66Z"/><path class="cls-1" d="M173.37,45.57c-.82-.82-1.23-1.79-1.23-2.91V6.54c0-1.12.41-2.09,1.23-2.91s1.79-1.23,2.91-1.23h30.18v7.98h-28.44l2.1-2.1v32.64l-2.1-2.1h28.44v7.98h-30.18c-1.12,0-2.09-.41-2.91-1.23ZM178.68,20.58h25.98v8.04h-25.98v-8.04Z"/><path class="cls-1" d="M226.89,45.57c-.82-.82-1.23-1.79-1.23-2.91V2.4h7.98v38.52l-2.1-2.1h27.72v7.98h-29.46c-1.12,0-2.09-.41-2.91-1.23Z"/><path class="cls-1" d="M286.83,44.31c-3.5-2.06-6.27-4.85-8.31-8.37-2.04-3.52-3.06-7.38-3.06-11.58s1.02-7.98,3.06-11.46,4.8-6.24,8.28-8.28c3.48-2.04,7.3-3.06,11.46-3.06s7.87,1.01,11.37,3.03c3.5,2.02,6.28,4.77,8.34,8.25s3.09,7.34,3.09,11.58-1.02,8-3.06,11.52c-2.04,3.52-4.8,6.31-8.28,8.37-3.48,2.06-7.3,3.09-11.46,3.09s-7.93-1.03-11.43-3.09ZM305.7,37.44c2.24-1.36,4.03-3.18,5.37-5.46,1.34-2.28,2.01-4.8,2.01-7.56s-.66-5.21-1.98-7.47c-1.32-2.26-3.11-4.06-5.37-5.4-2.26-1.34-4.75-2.01-7.47-2.01s-5.2.67-7.44,2.01c-2.24,1.34-4.02,3.14-5.34,5.4-1.32,2.26-1.98,4.75-1.98,7.47s.66,5.28,1.98,7.56c1.32,2.28,3.11,4.1,5.37,5.46,2.26,1.36,4.73,2.04,7.41,2.04s5.2-.68,7.44-2.04Z"/><path class="cls-1" d="M339.69,3.63c.82-.82,1.79-1.23,2.91-1.23h15.72c2.88,0,5.55.72,8.01,2.16,2.46,1.44,4.41,3.4,5.85,5.88,1.44,2.48,2.16,5.16,2.16,8.04s-.71,5.59-2.13,8.01c-1.42,2.42-3.36,4.33-5.82,5.73-2.46,1.4-5.15,2.1-8.07,2.1h-13.44v-7.98h13.44c1.48,0,2.83-.35,4.05-1.05,1.22-.7,2.18-1.65,2.88-2.85.7-1.2,1.05-2.52,1.05-3.96s-.36-2.78-1.08-4.02c-.72-1.24-1.69-2.23-2.91-2.97-1.22-.74-2.55-1.11-3.99-1.11h-13.98l2.1-2.1v38.52h-7.98V6.54c0-1.12.41-2.09,1.23-2.91Z"/><path class="cls-1" d="M405.96,0h7.5l-22.62,54.9h-7.56L405.96,0Z"/><path class="cls-1" d="M433.07,46.17c-3.4-.82-6.62-2.03-9.66-3.63l3.36-7.26c2.64,1.36,5.38,2.38,8.22,3.06,2.84.68,5.72,1.04,8.64,1.08,2.6.04,4.81-.15,6.63-.57,1.82-.42,3.19-1.05,4.11-1.89.92-.84,1.4-1.82,1.44-2.94.04-1.48-.43-2.63-1.41-3.45-.98-.82-2.25-1.42-3.81-1.8-1.56-.38-3.7-.73-6.42-1.05-4.16-.52-7.5-1.08-10.02-1.68-2.52-.6-4.72-1.77-6.6-3.51-1.88-1.74-2.82-4.25-2.82-7.53.04-2.72.94-5.1,2.7-7.14,1.76-2.04,4.15-3.6,7.17-4.68,3.02-1.08,6.39-1.6,10.11-1.56,3.16.04,6.32.38,9.48,1.02,3.16.64,6.1,1.56,8.82,2.76l-3.24,7.14c-4.92-2.08-9.94-3.16-15.06-3.24-2.52-.04-4.62.12-6.3.48-1.68.36-3,.97-3.96,1.83-.96.86-1.46,2.01-1.5,3.45,0,1.24.52,2.21,1.56,2.91,1.04.7,2.27,1.19,3.69,1.47,1.42.28,3.45.58,6.09.9,3.88.44,7.21,1.04,9.99,1.8,2.78.76,5.12,2.09,7.02,3.99,1.9,1.9,2.83,4.53,2.79,7.89-.04,2.72-.96,5.11-2.76,7.17-1.8,2.06-4.25,3.63-7.35,4.71-3.1,1.08-6.55,1.6-10.35,1.56-3.64-.04-7.16-.47-10.56-1.29Z"/><path class="cls-1" d="M491.78,44.31c-3.5-2.06-6.27-4.85-8.31-8.37-2.04-3.52-3.06-7.38-3.06-11.58s1.02-7.98,3.06-11.46,4.8-6.24,8.28-8.28c3.48-2.04,7.3-3.06,11.46-3.06s7.87,1.01,11.37,3.03c3.5,2.02,6.28,4.77,8.34,8.25s3.09,7.34,3.09,11.58-1.02,8-3.06,11.52c-2.04,3.52-4.8,6.31-8.28,8.37-3.48,2.06-7.3,3.09-11.46,3.09s-7.93-1.03-11.43-3.09ZM510.65,37.44c2.24-1.36,4.03-3.18,5.37-5.46,1.34-2.28,2.01-4.8,2.01-7.56s-.66-5.21-1.98-7.47c-1.32-2.26-3.11-4.06-5.37-5.4-2.26-1.34-4.75-2.01-7.47-2.01s-5.2.67-7.44,2.01c-2.24,1.34-4.02,3.14-5.34,5.4-1.32,2.26-1.98,4.75-1.98,7.47s.66,5.28,1.98,7.56c1.32,2.28,3.11,4.1,5.37,5.46,2.26,1.36,4.73,2.04,7.41,2.04s5.2-.68,7.44-2.04Z"/><path class="cls-1" d="M553.31,44.7c-3.04-1.76-5.45-4.16-7.23-7.2-1.78-3.04-2.67-6.34-2.67-9.9V2.4h7.98v25.2c0,2.12.53,4.08,1.59,5.88,1.06,1.8,2.5,3.23,4.32,4.29,1.82,1.06,3.79,1.59,5.91,1.59s4.15-.53,5.97-1.59c1.82-1.06,3.26-2.49,4.32-4.29,1.06-1.8,1.59-3.76,1.59-5.88V2.4h7.98v25.2c0,3.56-.89,6.86-2.67,9.9-1.78,3.04-4.18,5.44-7.2,7.2-3.02,1.76-6.33,2.64-9.93,2.64s-6.92-.88-9.96-2.64Z"/><path class="cls-1" d="M635.33,47.04c-.56-.28-1.02-.62-1.38-1.02l-25.08-30.72,1.38-.42v31.92h-7.98V5.64c0-1.12.39-2.07,1.17-2.85.78-.78,1.73-1.17,2.85-1.17.6,0,1.17.13,1.71.39.54.26.99.61,1.35,1.05l25.08,31.14-1.38.48V2.4h8.04v41.04c0,1.12-.39,2.07-1.17,2.85-.78.78-1.73,1.17-2.85,1.17-.6,0-1.18-.14-1.74-.42Z"/><path class="cls-1" d="M661.46,45.63c-.78-.78-1.17-1.71-1.17-2.79V6.36c0-1.08.37-2.01,1.11-2.79.74-.78,1.67-1.17,2.79-1.17h14.1c4.04,0,7.77.99,11.19,2.97s6.13,4.67,8.13,8.07c2,3.4,3,7.12,3,11.16s-1,7.76-3,11.16c-2,3.4-4.71,6.09-8.13,8.07s-7.15,2.97-11.19,2.97h-14.04c-1.08,0-2.01-.39-2.79-1.17ZM666.17,38.82h12.12c2.6,0,4.99-.63,7.17-1.89,2.18-1.26,3.91-2.98,5.19-5.16,1.28-2.18,1.92-4.57,1.92-7.17s-.64-4.98-1.92-7.14c-1.28-2.16-3.01-3.88-5.19-5.16-2.18-1.28-4.57-1.92-7.17-1.92h-12.12l2.1-2.1v32.64l-2.1-2.1Z"/></g></svg>