<?xml version="1.0" encoding="UTF-8"?><svg id="_レイヤー_2" xmlns="http://www.w3.org/2000/svg" viewBox="0 0 605.69 45.9"><g id="_レイヤー_1-2"><path d="M0,.84h34.38v7.98H0V.84ZM0,37.26h34.38v7.98H0v-7.98ZM13.2,3.24h7.98v40.02h-7.98V3.24Z"/><path d="M86.64,45.48c-.56-.28-1.02-.62-1.38-1.02l-25.08-30.72,1.38-.42v31.92h-7.98V4.08c0-1.12.39-2.07,1.17-2.85.78-.78,1.73-1.17,2.85-1.17.6,0,1.17.13,1.71.39.54.26.99.61,1.35,1.05l25.08,31.14-1.38.48V.84h8.04v41.04c0,1.12-.39,2.07-1.17,2.85-.78.78-1.73,1.17-2.85,1.17-.6,0-1.18-.14-1.74-.42Z"/><path d="M112.83,2.07c.82-.82,1.79-1.23,2.91-1.23h28.98v7.98h-27.24l2.1-2.1v38.52h-7.98V4.98c0-1.12.41-2.09,1.23-2.91ZM118.14,19.02h24.78v8.04h-24.78v-8.04Z"/><path d="M171.69,42.75c-3.5-2.06-6.27-4.85-8.31-8.37-2.04-3.52-3.06-7.38-3.06-11.58s1.02-7.98,3.06-11.46c2.04-3.48,4.8-6.24,8.28-8.28,3.48-2.04,7.3-3.06,11.46-3.06s7.87,1.01,11.37,3.03c3.5,2.02,6.28,4.77,8.34,8.25,2.06,3.48,3.09,7.34,3.09,11.58s-1.02,8-3.06,11.52c-2.04,3.52-4.8,6.31-8.28,8.37-3.48,2.06-7.3,3.09-11.46,3.09s-7.93-1.03-11.43-3.09ZM190.56,35.88c2.24-1.36,4.03-3.18,5.37-5.46,1.34-2.28,2.01-4.8,2.01-7.56s-.66-5.21-1.98-7.47c-1.32-2.26-3.11-4.06-5.37-5.4-2.26-1.34-4.75-2.01-7.47-2.01s-5.2.67-7.44,2.01c-2.24,1.34-4.02,3.14-5.34,5.4s-1.98,4.75-1.98,7.47.66,5.28,1.98,7.56c1.32,2.28,3.11,4.1,5.37,5.46,2.26,1.36,4.73,2.04,7.41,2.04s5.2-.68,7.44-2.04Z"/><path d="M224.55,2.07c.82-.82,1.79-1.23,2.91-1.23h18.06c2.72,0,5.24.68,7.56,2.04,2.32,1.36,4.15,3.21,5.49,5.55,1.34,2.34,2.01,4.87,2.01,7.59s-.67,5.18-2.01,7.38c-1.34,2.2-3.16,3.92-5.46,5.16-2.3,1.24-4.83,1.86-7.59,1.86h-15.48v-7.44h15.48c1.32,0,2.51-.31,3.57-.93,1.06-.62,1.91-1.46,2.55-2.52.64-1.06.96-2.23.96-3.51s-.32-2.47-.96-3.57c-.64-1.1-1.5-1.98-2.58-2.64s-2.26-.99-3.54-.99h-16.32l2.1-2.1v38.52h-7.98V4.98c0-1.12.41-2.09,1.23-2.91ZM240.06,28.56l6.3-3.9,14.52,20.58h-9.24l-11.58-16.68Z"/><path d="M279.75,1.35c.78-.78,1.71-1.17,2.79-1.17,1.2,0,2.22.48,3.06,1.44l16.26,21.84h-2.52l16.26-21.84c.84-.96,1.86-1.44,3.06-1.44,1.08,0,2.01.39,2.79,1.17.78.78,1.17,1.71,1.17,2.79v41.1h-7.98V12.78l1.5.42-15.54,21.3-15.54-21.3,1.5-.42v32.46h-7.98V4.14c0-1.08.39-2.01,1.17-2.79Z"/><path d="M357.87.9c.66-.44,1.41-.66,2.25-.66s1.51.22,2.13.66c.62.44,1.09,1.04,1.41,1.8l18.06,42.54h-8.88l-13.98-32.76h2.34l-14.04,32.76h-8.94l18.18-42.54c.32-.76.81-1.36,1.47-1.8Z"/><path d="M396.12.84h37.98v7.98h-37.98V.84ZM411.12,3.06h7.98v42.18h-7.98V3.06Z"/><path d="M452.1.84h34.38v7.98h-34.38V.84ZM452.1,37.26h34.38v7.98h-34.38v-7.98ZM465.3,3.24h7.98v40.02h-7.98V3.24Z"/><path d="M515.25,42.75c-3.5-2.06-6.27-4.85-8.31-8.37-2.04-3.52-3.06-7.38-3.06-11.58s1.02-7.98,3.06-11.46c2.04-3.48,4.8-6.24,8.28-8.28,3.48-2.04,7.3-3.06,11.46-3.06s7.87,1.01,11.37,3.03c3.5,2.02,6.28,4.77,8.34,8.25,2.06,3.48,3.09,7.34,3.09,11.58s-1.02,8-3.06,11.52c-2.04,3.52-4.8,6.31-8.28,8.37-3.48,2.06-7.3,3.09-11.46,3.09s-7.93-1.03-11.43-3.09ZM534.12,35.88c2.24-1.36,4.03-3.18,5.37-5.46,1.34-2.28,2.01-4.8,2.01-7.56s-.66-5.21-1.98-7.47c-1.32-2.26-3.11-4.06-5.37-5.4-2.26-1.34-4.75-2.01-7.47-2.01s-5.2.67-7.44,2.01c-2.24,1.34-4.02,3.14-5.34,5.4s-1.98,4.75-1.98,7.47.66,5.28,1.98,7.56c1.32,2.28,3.11,4.1,5.37,5.46,2.26,1.36,4.73,2.04,7.41,2.04s5.2-.68,7.44-2.04Z"/><path d="M599.93,45.48c-.56-.28-1.02-.62-1.38-1.02l-25.08-30.72,1.38-.42v31.92h-7.98V4.08c0-1.12.39-2.07,1.17-2.85s1.73-1.17,2.85-1.17c.6,0,1.17.13,1.71.39.54.26.99.61,1.35,1.05l25.08,31.14-1.38.48V.84h8.04v41.04c0,1.12-.39,2.07-1.17,2.85-.78.78-1.73,1.17-2.85,1.17-.6,0-1.18-.14-1.74-.42Z"/></g></svg>