<?xml version="1.0" encoding="UTF-8"?><svg id="_レイヤー_2" xmlns="http://www.w3.org/2000/svg" viewBox="0 0 111.24 18.58"><defs><style>.cls-1{fill:#fff;stroke-width:0px;}</style></defs><g id="_レイヤー_1-2"><path class="cls-1" d="M17.07,6.1l-8.54,7.08,4.37,3.19c.19.14.26.36.26.55,0,.36-.24.7-.7.7-.14,0-.29-.05-.41-.14L3.75,11.4c-.19-.14-.29-.36-.29-.58,0-.41.34-.7.7-.7.14,0,.29.05.41.14l2.78,2.04,7.34-6.07H.7c-.38,0-.7-.31-.7-.7,0-.36.31-.7.7-.7h15.91c.36,0,.7.29.7.7,0,.22-.07.41-.24.55Z"/><path class="cls-1" d="M38.91,13.42c-1.2,0-3.22-1.25-7.18-3.6l-1.49-.89v8.54c0,.38-.34.7-.7.7-.38,0-.7-.31-.7-.7V2.64c0-.38.31-.7.7-.7.36,0,.7.31.7.7v4.63l2.23,1.34c3.02,1.82,5.59,3.41,6.43,3.41.38,0,.7.34.7.7,0,.38-.31.7-.7.7ZM37.13,4.37c-.17,0-.34-.07-.48-.22l-2.11-2.38c-.12-.12-.17-.29-.17-.46,0-.41.34-.65.67-.65.19,0,.36.07.5.22l2.11,2.38c.1.12.14.29.14.43,0,.43-.34.67-.67.67ZM40.27,3.31c-.14,0-.31-.05-.43-.17l-2.38-1.99c-.14-.12-.24-.31-.24-.5,0-.38.31-.65.67-.65.14,0,.29.05.43.17l2.38,1.97c.14.12.22.31.22.5,0,.41-.31.67-.65.67Z"/><path class="cls-1" d="M59.88,12.12c-1.99,2.09-5.23,4.78-9.58,5.86-.1.02-.17.05-.26.05-.36,0-.67-.36-.67-.72,0-.31.22-.6.55-.67,3.98-.96,7.06-3.48,8.93-5.42,2.26-2.35,3.36-4.51,3.36-5.09v-.96h-11.09c-.36,0-.67-.31-.67-.7s.31-.7.67-.7h11.81c.36,0,.67.31.67.7v1.66c0,1.13-1.46,3.65-3.72,6Z"/><path class="cls-1" d="M88.71,16.9c-.17,0-.36-.07-.53-.26l-.67-.74h-13.8c-.38,0-.7-.31-.7-.67,0-.12.02-.24.1-.36l6.79-11.98c.17-.24.38-.36.62-.36.36,0,.7.26.7.7,0,.12-.02.24-.1.36l-6.22,10.92h11.38l-3.38-3.79c-.12-.12-.17-.29-.17-.43,0-.41.34-.72.72-.72.17,0,.36.07.5.24l5.28,5.93c.12.14.17.29.17.48,0,.38-.34.7-.7.7Z"/><path class="cls-1" d="M106.78,7.78c-.1.05-.19.1-.31.17v9.94c0,.38-.31.7-.7.7s-.72-.31-.72-.7v-9.26c-2.02.86-5.02,1.92-8.64,2.38h-.07c-.36,0-.7-.29-.7-.67,0-.36.26-.67.6-.72,3.6-.43,6.96-1.56,9.58-2.9,2.66-1.37,3.98-2.66,4.03-3.17v-.82c0-.41.34-.72.7-.72.38,0,.7.31.7.72v.84c0,1.51-2.74,3.31-4.46,4.22Z"/></g></svg>