<?xml version="1.0" encoding="UTF-8"?><svg id="_レイヤー_2" xmlns="http://www.w3.org/2000/svg" viewBox="0 0 112.11 18.7"><defs><style>.cls-1{fill:#fff;stroke-width:0px;}</style></defs><g id="_レイヤー_1-2"><path class="cls-1" d="M13.85,18.15L.58,15.58c-.34-.07-.58-.34-.58-.67,0-.41.34-.67.72-.67h.12l13.13,2.54c.34.07.55.34.55.67,0,.38-.29.7-.67.7ZM12.07,6.31L3.1,4.3c-.34-.07-.55-.36-.55-.7,0-.46.38-.7.74-.7l8.95,2.02c.34.07.55.38.55.7,0,.41-.36.7-.72.7ZM10.61,11.47s-.12,0-.17-.02l-7.18-1.75c-.34-.07-.55-.38-.55-.67,0-.43.36-.72.72-.72l7.32,1.78c.34.07.53.38.53.7,0,.34-.29.7-.67.7Z"/><path class="cls-1" d="M40.39,14.79h-17.67c-.36,0-.7-.34-.7-.7,0-.38.34-.7.7-.7h17.67c.36,0,.7.31.7.7,0,.36-.34.7-.7.7ZM36.7,6.86h-10.13c-.38,0-.7-.31-.7-.7,0-.36.31-.67.7-.67h10.13c.38,0,.7.31.7.67,0,.38-.31.7-.7.7Z"/><path class="cls-1" d="M63.6,6.89h-5.59v1.7c0,4.54-3.07,8.5-7.83,10.08-.07.02-.14.02-.22.02-.36,0-.7-.26-.7-.7,0-.29.19-.55.48-.65,4.18-1.39,6.86-4.82,6.86-8.76v-1.7h-4.75c-.96,1.22-2.52,2.64-4.46,3.72-.1.07-.22.1-.34.1-.34,0-.67-.31-.67-.7,0-.29.17-.5.36-.6,3.12-1.75,4.73-4.2,4.85-4.68v-1.99c0-.38.31-.7.7-.7.36,0,.7.31.7.7v2.04c0,.19-.07.46-.22.74h10.82c.38,0,.7.31.7.67,0,.38-.31.7-.7.7ZM63.29,4.34c-.17,0-.34-.07-.48-.24l-2.06-2.45c-.1-.12-.14-.26-.14-.41,0-.38.31-.62.62-.62.17,0,.34.07.48.24l2.09,2.45c.1.1.14.24.14.38,0,.38-.31.65-.65.65ZM66.31,3.12c-.12,0-.24-.05-.36-.12l-2.42-1.87c-.17-.12-.24-.31-.24-.5,0-.41.31-.62.62-.62.12,0,.26.05.36.12l2.42,1.87c.17.14.26.31.26.5,0,.38-.31.62-.65.62Z"/><path class="cls-1" d="M87.55,11.54h-13.71c-.41,0-1.44-.26-2.35-.65-.26-.1-.41-.36-.41-.6,0-.41.34-.67.7-.67.1,0,.19,0,.29.05.43.19,1.32.5,1.82.5h13.66c.41,0,.7.31.7.7,0,.36-.29.67-.7.67Z"/><path class="cls-1" d="M111.41,17.16c-.17,0-.36-.07-.53-.26l-.67-.74h-13.8c-.38,0-.7-.31-.7-.67,0-.12.02-.24.1-.36l6.79-11.98c.17-.24.38-.36.62-.36.36,0,.7.26.7.7,0,.12-.02.24-.1.36l-6.22,10.92h11.38l-3.38-3.79c-.12-.12-.17-.29-.17-.43,0-.41.34-.72.72-.72.17,0,.36.07.5.24l5.28,5.93c.12.14.17.29.17.48,0,.38-.34.7-.7.7Z"/></g></svg>