<?xml version="1.0" encoding="UTF-8"?><svg id="_レイヤー_2" xmlns="http://www.w3.org/2000/svg" viewBox="0 0 421.8 105.9"><defs><style>.cls-1{fill:#39ff14;stroke-width:0px;}</style></defs><g id="_レイヤー_1-2"><path class="cls-1" d="M51.69.84h34.38v7.98h-34.38V.84ZM51.69,37.26h34.38v7.98h-34.38v-7.98ZM64.89,3.24h7.98v40.02h-7.98V3.24Z"/><path class="cls-1" d="M104.07.84h37.98v7.98h-37.98V.84ZM119.07,3.06h7.98v42.18h-7.98V3.06Z"/><path class="cls-1" d="M176.1.9c.66-.44,1.41-.66,2.25-.66s1.51.22,2.13.66c.62.44,1.09,1.04,1.41,1.8l18.06,42.54h-8.88l-13.98-32.76h2.34l-14.04,32.76h-8.94L174.63,2.7c.32-.76.81-1.36,1.47-1.8Z"/><path class="cls-1" d="M225.72,42.75c-3.5-2.06-6.27-4.85-8.31-8.37-2.04-3.52-3.06-7.36-3.06-11.52s1.02-8.04,3.06-11.52c2.04-3.48,4.8-6.24,8.28-8.28s7.3-3.06,11.46-3.06c3.24,0,6.31.66,9.21,1.98,2.9,1.32,5.41,3.14,7.53,5.46l-5.76,5.52c-1.36-1.56-2.98-2.78-4.86-3.66-1.88-.88-3.92-1.32-6.12-1.32-2.68,0-5.15.67-7.41,2.01-2.26,1.34-4.05,3.14-5.37,5.4s-1.98,4.75-1.98,7.47.66,5.23,1.98,7.53,3.11,4.13,5.37,5.49c2.26,1.36,4.73,2.04,7.41,2.04,2.36,0,4.54-.47,6.54-1.41,2-.94,3.66-2.29,4.98-4.05l7.38,2.58.24.54c-2.04,3.16-4.74,5.66-8.1,7.5-3.36,1.84-7.02,2.76-10.98,2.76-4.16,0-7.99-1.03-11.49-3.09ZM248.61,23.88h7.98v10.68l-7.98,2.52v-13.2ZM254.79,34.56h1.8c0,.36-.1.7-.3,1.02l-1.5-1.02Z"/><path class="cls-1" d="M284.16,42.75c-3.5-2.06-6.27-4.85-8.31-8.37-2.04-3.52-3.06-7.38-3.06-11.58s1.02-7.98,3.06-11.46c2.04-3.48,4.8-6.24,8.28-8.28s7.3-3.06,11.46-3.06,7.87,1.01,11.37,3.03c3.5,2.02,6.28,4.77,8.34,8.25,2.06,3.48,3.09,7.34,3.09,11.58s-1.02,8-3.06,11.52c-2.04,3.52-4.8,6.31-8.28,8.37-3.48,2.06-7.3,3.09-11.46,3.09s-7.93-1.03-11.43-3.09ZM303.03,35.88c2.24-1.36,4.03-3.18,5.37-5.46,1.34-2.28,2.01-4.8,2.01-7.56s-.66-5.21-1.98-7.47-3.11-4.06-5.37-5.4c-2.26-1.34-4.75-2.01-7.47-2.01s-5.2.67-7.44,2.01c-2.24,1.34-4.02,3.14-5.34,5.4s-1.98,4.75-1.98,7.47.66,5.28,1.98,7.56c1.32,2.28,3.11,4.1,5.37,5.46,2.26,1.36,4.73,2.04,7.41,2.04s5.2-.68,7.44-2.04Z"/><path class="cls-1" d="M337.02,44.01c-.82-.82-1.23-1.79-1.23-2.91V4.98c0-1.12.41-2.09,1.23-2.91.82-.82,1.79-1.23,2.91-1.23h30.18v7.98h-28.44l2.1-2.1v32.64l-2.1-2.1h28.44v7.98h-30.18c-1.12,0-2.09-.41-2.91-1.23ZM342.33,19.02h25.98v8.04h-25.98v-8.04Z"/><path class="cls-1" d="M0,60.84h7.98v44.4H0v-44.4ZM9.18,82.98c0-.96.28-1.78.84-2.46l17.64-19.68h10.26l-19.56,22.02,20.04,22.38h-10.68l-17.64-19.74c-.6-.76-.9-1.6-.9-2.52Z"/><path class="cls-1" d="M70.29,60.9c.66-.44,1.41-.66,2.25-.66s1.51.22,2.13.66c.62.44,1.09,1.04,1.41,1.8l18.06,42.54h-8.88l-13.98-32.76h2.34l-14.04,32.76h-8.94l18.18-42.54c.32-.76.81-1.36,1.47-1.8Z"/><path class="cls-1" d="M109.74,60.84h34.38v7.98h-34.38v-7.98ZM109.74,97.26h34.38v7.98h-34.38v-7.98ZM122.94,63.24h7.98v40.02h-7.98v-40.02Z"/><path class="cls-1" d="M163.32,60.84h7.98v44.4h-7.98v-44.4ZM172.5,82.98c0-.96.28-1.78.84-2.46l17.64-19.68h10.26l-19.56,22.02,20.04,22.38h-10.68l-17.64-19.74c-.6-.76-.9-1.6-.9-2.52Z"/><path class="cls-1" d="M217.56,60.84h34.38v7.98h-34.38v-7.98ZM217.56,97.26h34.38v7.98h-34.38v-7.98ZM230.76,63.24h7.98v40.02h-7.98v-40.02Z"/><path class="cls-1" d="M272.31,104.07c-.78-.78-1.17-1.71-1.17-2.79v-36.48c0-1.08.37-2.01,1.11-2.79.74-.78,1.67-1.17,2.79-1.17h14.1c4.04,0,7.77.99,11.19,2.97,3.42,1.98,6.13,4.67,8.13,8.07,2,3.4,3,7.12,3,11.16s-1,7.76-3,11.16c-2,3.4-4.71,6.09-8.13,8.07-3.42,1.98-7.15,2.97-11.19,2.97h-14.04c-1.08,0-2.01-.39-2.79-1.17ZM277.02,97.26h12.12c2.6,0,4.99-.63,7.17-1.89,2.18-1.26,3.91-2.98,5.19-5.16,1.28-2.18,1.92-4.57,1.92-7.17s-.64-4.98-1.92-7.14-3.01-3.88-5.19-5.16c-2.18-1.28-4.57-1.92-7.17-1.92h-12.12l2.1-2.1v32.64l-2.1-2.1Z"/><path class="cls-1" d="M330.69,104.01c-.82-.82-1.23-1.79-1.23-2.91v-36.12c0-1.12.41-2.09,1.23-2.91s1.79-1.23,2.91-1.23h30.18v7.98h-28.44l2.1-2.1v32.64l-2.1-2.1h28.44v7.98h-30.18c-1.12,0-2.09-.41-2.91-1.23ZM336,79.02h25.98v8.04h-25.98v-8.04Z"/><path class="cls-1" d="M416.04,105.48c-.56-.28-1.02-.62-1.38-1.02l-25.08-30.72,1.38-.42v31.92h-7.98v-41.16c0-1.12.39-2.07,1.17-2.85.78-.78,1.73-1.17,2.85-1.17.6,0,1.17.13,1.71.39.54.26.99.61,1.35,1.05l25.08,31.14-1.38.48v-32.28h8.04v41.04c0,1.12-.39,2.07-1.17,2.85s-1.73,1.17-2.85,1.17c-.6,0-1.18-.14-1.74-.42Z"/></g></svg>