<?xml version="1.0" encoding="UTF-8"?><svg id="_レイヤー_2" xmlns="http://www.w3.org/2000/svg" viewBox="0 0 118.15 18.03"><defs><style>.cls-1{fill:#39ff14;stroke-width:0px;}</style></defs><g id="_レイヤー_1-2"><path class="cls-1" d="M8.14,5.54h-1.94v2.04l2.3,1.92c.17.14.24.34.24.55,0,.38-.29.67-.67.67-.17,0-.31-.05-.43-.14l-1.44-1.2v7.99c0,.36-.34.65-.7.65-.38,0-.7-.29-.7-.65v-8.04l-3.62,3.24c-.12.12-.29.17-.46.17-.36,0-.72-.29-.72-.67,0-.19.1-.38.26-.53l4.54-4.08v-1.92H1.1c-.38,0-.7-.31-.7-.7,0-.36.31-.67.7-.67h3.7V1.18c0-.38.31-.7.7-.7.36,0,.7.31.7.7v3h1.94c.38,0,.7.31.7.67,0,.38-.31.7-.7.7ZM20.43,2.76h-8.42v8.09c0,.12-.02.26-.1.38l-2.11,3.26c-.12.19-.38.31-.6.31-.38,0-.7-.31-.7-.7,0-.12.05-.24.12-.36l1.99-3.12V2.06c0-.36.31-.7.7-.7h9.12c.38,0,.7.34.7.7,0,.38-.31.7-.7.7ZM21.48,17.47c-.14.17-.34.24-.53.24-.17,0-.31-.05-.46-.14l-4.9-3.84-3.58,3.94c-.14.14-.31.22-.5.22-.36,0-.72-.26-.72-.7,0-.17.05-.34.19-.46l3.5-3.86-1.99-1.58c-.17-.14-.26-.34-.26-.55,0-.36.31-.67.67-.67.17,0,.31.05.46.17l2.06,1.61,2.81-3.1v-.82h-5.09c-.41,0-.7-.31-.7-.7,0-.36.29-.7.7-.7h5.78c.38,0,.7.34.7.7v1.78c0,.17-.05.34-.17.48l-2.93,3.22,4.82,3.79c.17.14.26.34.26.55,0,.14-.05.29-.14.43Z"/><path class="cls-1" d="M45.34,16.92h-3.26s-.12,0-.14-.02l-14.5-3.1-2.54,2.3c-.12.12-.29.17-.46.17-.38,0-.7-.31-.7-.7,0-.19.07-.38.22-.53l2.57-2.3v-3.07c0-.36.31-.7.7-.7s.7.34.7.7v2.81l2.04.43v-4.56c0-.36.34-.65.7-.65.38,0,.7.29.7.65v1.32h2.47c.36,0,.67.31.67.7,0,.36-.31.7-.67.7h-2.47v2.16l10.8,2.3h3.19c.38,0,.7.31.7.7s-.31.7-.7.7ZM34.25,7.46h-8.38c-.36,0-.7-.31-.7-.7s.34-.7.7-.7h3.86v-1.97h-3.07c-.38,0-.7-.31-.7-.7s.31-.7.7-.7h3.07v-1.61c0-.38.31-.7.7-.7s.7.31.7.7v1.61h2.45c.38,0,.7.31.7.7s-.31.7-.7.7h-2.45v1.97h3.12c.36,0,.7.31.7.7s-.34.7-.7.7ZM44.64,13.87c-.24,0-.46-.1-.58-.26l-2.11-3.1-2.4,3.14c-.14.19-.36.29-.55.29-.41,0-.72-.29-.72-.7,0-.14.05-.29.14-.41l2.69-3.55-1.54-2.23c-.07-.12-.12-.26-.12-.41v-1.39h-2.69v5.35l1.7-.86c.1-.05.22-.07.31-.07.38,0,.72.31.72.67,0,.26-.14.5-.38.62l-2.71,1.44c-.1.05-.24.07-.36.07-.38,0-.65-.31-.65-.7v-7.22c0-.36.31-.7.67-.7h3.38V1.42c0-.38.31-.7.7-.7s.7.31.7.7v2.45h3.72c.38,0,.7.34.7.7,0,.38-.31.7-.7.7h-3.72v1.2l1.15,1.66,1.18-1.56c.14-.19.36-.29.58-.29.38,0,.7.31.7.72,0,.14-.05.29-.14.41l-1.46,1.94,2.38,3.46c.07.12.12.26.12.41,0,.41-.29.67-.7.67ZM43.75,2.88h-1.25c-.34,0-.62-.26-.62-.62,0-.34.29-.62.62-.62h1.25c.34,0,.6.29.6.62,0,.36-.26.62-.6.62Z"/><path class="cls-1" d="M49.34,10.32c-.38,0-.7-.31-.7-.7V3.96c0-.38.31-.7.7-.7s.7.31.7.7v5.66c0,.38-.31.7-.7.7ZM52.42,17.59c-.36,0-.7-.31-.7-.7V.77c0-.38.34-.7.7-.7.38,0,.7.31.7.7v16.13c0,.38-.31.7-.7.7ZM55.78,2.42l-.7,2.86c-.07.31-.36.53-.7.53-.38,0-.7-.31-.7-.72,0-.05,0-.12.02-.17l.7-2.83c.07-.31.36-.53.7-.53.36,0,.7.31.7.7,0,.05,0,.12-.02.17ZM69.77,10.06c-.12.24-.36.38-.6.38-.1,0-.22-.02-.31-.07l-6.91-3.31-6,3.55c-.1.07-.22.1-.34.1-.36,0-.7-.24-.7-.67,0-.26.12-.48.34-.6l5.19-3.1-2.69-1.27c-.24-.12-.38-.36-.38-.6,0-.38.31-.72.7-.72.1,0,.19.02.29.07l3.5,1.68,3.38-2.02v-.65h-6.48c-.38,0-.7-.31-.7-.7,0-.36.31-.7.7-.7h7.18c.38,0,.7.34.7.7v1.75c0,.24-.12.48-.34.6l-2.93,1.73,6.07,2.93c.26.12.41.36.41.6,0,.1-.02.22-.07.31ZM68.71,16.97h-12.79c-.38,0-.7-.31-.7-.7s.31-.7.7-.7h5.4v-2.52h-3.6c-.38,0-.7-.31-.7-.67,0-.38.31-.7.7-.7h3.6v-1.51c0-.38.34-.7.7-.7.38,0,.7.31.7.7v1.51h3.84c.38,0,.7.31.7.7,0,.36-.31.67-.7.67h-3.84v2.52h6c.38,0,.7.31.7.7s-.31.7-.7.7Z"/><path class="cls-1" d="M93.05,9.53h-4.61v7.37c0,.38-.31.7-.7.7h-3.5c-.38,0-.7-.31-.7-.7,0-.36.31-.7.7-.7h2.81v-6.67h-14.18c-.38,0-.7-.31-.7-.7s.31-.7.7-.7h20.19c.38,0,.7.31.7.7s-.31.7-.7.7ZM88.97,3.29h-5.59s-.02.02-.05.05l-4.92,3.86c-.14.1-.29.14-.46.14-.36,0-.67-.31-.67-.67,0-.22.1-.41.26-.55l3.62-2.83h-4.15c-.38,0-.7-.31-.7-.7,0-.36.31-.67.7-.67h5.18V.7c0-.38.31-.7.7-.7s.7.31.7.7v1.22h5.38c.36,0,.67.31.67.67,0,.38-.31.7-.67.7ZM82.56,15.75h-4.75c-.38,0-.7-.31-.7-.7v-3.86c0-.38.31-.7.7-.7h4.75c.38,0,.7.31.7.7v3.86c0,.38-.31.7-.7.7ZM81.87,11.88h-3.36v2.47h3.36v-2.47ZM89.47,7.13c-.14.22-.36.34-.6.34-.12,0-.24-.05-.36-.12l-3.46-2.21c-.22-.14-.31-.36-.31-.6,0-.36.29-.67.67-.67.12,0,.24.02.36.1l3.48,2.21c.19.12.34.36.34.6,0,.12-.05.24-.12.36Z"/><path class="cls-1" d="M103.27,1.78l-2.28,2.11c.1.12.14.26.14.41v12.94c0,.36-.31.65-.7.65-.36,0-.7-.29-.7-.65V5.04l-2.69,2.5c-.12.12-.29.19-.46.19-.41,0-.72-.31-.72-.72,0-.19.07-.36.22-.5l6.24-5.74c.12-.12.29-.19.48-.19.17,0,.36.07.5.22.12.14.17.31.17.48,0,.19-.07.36-.22.5ZM117.46,9.5h-7.34l-3.53,5.76h6.98l-1.66-2.45c-.07-.12-.12-.26-.12-.38,0-.38.34-.72.72-.72.22,0,.43.12.55.31l2.38,3.55c.07.12.12.26.12.41,0,.38-.31.67-.7.67h-9.55c-.38,0-.7-.31-.7-.7,0-.12.05-.26.12-.36l3.75-6.1h-5.5c-.36,0-.7-.31-.7-.7s.34-.7.7-.7h14.47c.38,0,.7.31.7.7s-.31.7-.7.7ZM114.39,4.85h-8.4c-.38,0-.7-.31-.7-.7s.31-.7.7-.7h8.4c.38,0,.7.31.7.7s-.31.7-.7.7Z"/></g></svg>